<svg width="35" height="50" viewBox="0 0 35 50" fill="none" xmlns="http://www.w3.org/2000/svg">
<path fill-rule="evenodd" clip-rule="evenodd" d="M1 16.6896C1 7.4706 8.43178 0 17.6029 0C26.774 0 34.2058 7.4706 34.2058 16.6896C34.2058 19.1344 33.6832 21.4562 32.7441 23.5484C30.9022 27.6518 24.0817 40.9517 20.2535 48.3731C19.1393 50.533 16.0665 50.533 14.9523 48.3731C11.1241 40.9517 4.30367 27.6518 2.46176 23.5484C1.52264 21.4562 1 19.1344 1 16.6896ZM25.5968 17.704C25.5968 13.3594 22.0186 9.83879 17.6028 9.83879C13.1871 9.83879 9.60885 13.3594 9.60885 17.704C9.60885 18.8562 9.86049 19.9503 10.3127 20.9363C11.0076 22.4517 13.1746 26.6285 14.9668 30.0481C16.0838 32.1793 19.1219 32.1793 20.2389 30.0481C22.0311 26.6285 24.1981 22.4517 24.893 20.9363C25.3452 19.9503 25.5968 18.8562 25.5968 17.704Z" fill="#287EDE"/>
</svg>
