<?xml version="1.0" encoding="utf-8"?><svg xmlns="http://www.w3.org/2000/svg" xmlns:xlink="http://www.w3.org/1999/xlink"><symbol viewBox="0 0 64 64" id="adv-chair" xmlns="http://www.w3.org/2000/svg"><path d="M33.768 15.958l.207-.207a1.25 1.25 0 1 0-1.768-1.768L32 14.19l-.207-.206a1.25 1.25 0 0 0-1.767 1.767l.207.207-.207.207a1.25 1.25 0 0 0 1.767 1.768l.207-.207.207.207a1.246 1.246 0 0 0 1.768 0 1.25 1.25 0 0 0 0-1.768l-.207-.207zm8.458 6.451l.207-.207a1.25 1.25 0 1 0-1.767-1.768l-.207.207-.207-.207a1.25 1.25 0 0 0-1.768 1.768l.207.207-.207.207a1.25 1.25 0 0 0 1.767 1.768l.207-.207.207.207a1.246 1.246 0 0 0 1.768 0 1.25 1.25 0 0 0 0-1.768l-.207-.207zm-16.916 0l.207-.207a1.25 1.25 0 1 0-1.768-1.768l-.207.207-.207-.207a1.25 1.25 0 0 0-1.768 1.768l.207.207-.207.207a1.25 1.25 0 0 0 1.768 1.768l.207-.207.207.207a1.246 1.246 0 0 0 1.768 0 1.25 1.25 0 0 0 0-1.768l-.207-.207zm35.978 4.801c-.6-2.623-2.735-4.638-5.33-5.202A23.912 23.912 0 0 0 48.673 6.72 23.926 23.926 0 0 0 32 0a23.926 23.926 0 0 0-16.673 6.72 23.911 23.911 0 0 0-7.284 15.288c-2.595.563-4.73 2.579-5.331 5.202-.43 1.88-.112 3.791.897 5.382a7.06 7.06 0 0 0 3.433 2.8v9.457a8.08 8.08 0 0 0 4.303 7.137V62.75c0 .69.56 1.25 1.25 1.25h4.351a1.25 1.25 0 0 0 1.136-.727l4.763-10.351h18.31l4.764 10.35a1.25 1.25 0 0 0 1.135.728h4.352c.69 0 1.25-.56 1.25-1.25V51.986a8.08 8.08 0 0 0 4.303-7.137v-9.457a7.06 7.06 0 0 0 3.432-2.8c1.01-1.59 1.328-3.502.898-5.382zM32 2.5c11.19 0 20.383 8.441 21.441 19.434a6.498 6.498 0 0 0-.196.035l-.011.002a5.766 5.766 0 0 0-.06.012h-.003a4.704 4.704 0 0 0-.063.014l-.011.002a2.986 2.986 0 0 0-.05.011l-.016.004-.054.013a.131.131 0 0 0-.007.001l-.058.014a1.076 1.076 0 0 0-.02.005l-.04.01a1.163 1.163 0 0 1-.022.006l-.055.015-.016.004-.043.012-.024.007-.035.01a.883.883 0 0 0-.024.007l-.052.016-.027.008-.031.01a2.92 2.92 0 0 0-.06.018l-.025.009-.05.017-.03.01-.027.01-.03.01-.03.01a5.099 5.099 0 0 0-.041.015l-.033.013-.032.012-.024.009-.03.012a4.957 4.957 0 0 0-.077.03l-.028.011a1.819 1.819 0 0 0-.029.012l-.025.011-.03.013-.034.014-.042.018-.026.012-.03.013-.027.013a6.647 6.647 0 0 1-.026.012l-.05.023a1 1 0 0 1-.023.011l-.031.016-.025.012-.036.017-.017.009-.052.026-.019.01-.037.02-.019.01-.053.028a6.37 6.37 0 0 0-.659.412A18.641 18.641 0 0 0 45.5 11.053a18.648 18.648 0 0 0-12.727-5.737c-5.103-.206-9.951 1.64-13.66 5.201a19.147 19.147 0 0 0-5.816 12.541 6.361 6.361 0 0 0-.671-.42l-.054-.03-.017-.008a7.838 7.838 0 0 0-.04-.021l-.016-.008a3.897 3.897 0 0 0-.053-.028l-.011-.005-.045-.022-.018-.009-.04-.019-.017-.008a8.405 8.405 0 0 0-.052-.025l-.02-.009-.035-.016a2.81 2.81 0 0 0-.06-.026l-.019-.009a4.112 4.112 0 0 0-.052-.022l-.021-.01-.036-.014-.023-.01a1.575 1.575 0 0 0-.04-.016l-.023-.01-.045-.017-.024-.01a18.482 18.482 0 0 0-.057-.021 7.902 7.902 0 0 0-.045-.017l-.029-.01-.036-.013-.025-.009-.032-.011-.026-.009-.052-.017-.023-.008a2.41 2.41 0 0 0-.035-.011l-.025-.008-.034-.01-.025-.008a4.357 4.357 0 0 0-.109-.032l-.03-.009-.032-.009-.035-.01-.042-.01a2.74 2.74 0 0 1-.027-.007l-.032-.008-.027-.007a4.843 4.843 0 0 0-.078-.02l-.033-.007-.029-.006a3.154 3.154 0 0 0-.032-.007l-.027-.006-.048-.01-.032-.007-.031-.006-.03-.006-.032-.006-.027-.005a4.136 4.136 0 0 0-.081-.014l-.032-.005-.015-.003C11.617 10.941 20.809 2.5 32 2.5zm5.946 35.35H16.008v-1.63a.532.532 0 0 0 .01-.007l.01-.007a5.812 5.812 0 0 1 .043-.032l.013-.01.041-.028a4.33 4.33 0 0 1 .056-.039l.013-.01.044-.029.011-.008.054-.035h.001l.058-.038h.001l.054-.034.016-.01a3.242 3.242 0 0 1 .04-.024l.019-.012a2.816 2.816 0 0 1 .057-.034l.037-.021.02-.012.039-.021.018-.011.043-.024.015-.008a3.86 3.86 0 0 1 .057-.03l.015-.008.042-.022.023-.012a5.789 5.789 0 0 1 .035-.018l.024-.012.034-.017a1.93 1.93 0 0 1 .026-.012l.033-.016.025-.012.035-.016.025-.012.033-.015.027-.011.045-.02.028-.012a13.657 13.657 0 0 1 .07-.03l.032-.013a3.585 3.585 0 0 1 .06-.024 9.186 9.186 0 0 1 .03-.012l.03-.012.03-.01.031-.012.03-.011.032-.012.029-.01.031-.011a7.792 7.792 0 0 1 .057-.02l.031-.01.03-.01.031-.01.031-.01.031-.009.032-.01.03-.008.032-.01.03-.008.032-.01.031-.008.031-.008.033-.009.039-.01.05-.012.03-.007.034-.008.03-.007a50353230522.892 50353230522.892 0 0 0 .064-.014l.032-.007a2.843 2.843 0 0 0 .032-.007l.032-.006a3.523 3.523 0 0 1 .032-.007l.033-.006.03-.005.039-.007a5.685 5.685 0 0 1 .086-.015l.027-.004.038-.006.028-.004.037-.005.029-.004a4.479 4.479 0 0 1 .036-.005l.029-.004.036-.004.03-.003.036-.004.027-.003.043-.004.023-.002.064-.006.018-.001a7.269 7.269 0 0 0 .047-.004l.026-.001.04-.003.027-.001.039-.002a2.585 2.585 0 0 1 .027-.002l.04-.001a73.834 73.834 0 0 1 .067-.002l.025-.001h.045a4.84 4.84 0 0 1 .087-.001h24.742a4.84 4.84 0 0 1 .133.001h.025l.04.002h.027l.04.002.027.002c.013 0 .026 0 .039.002l.027.001.04.003.026.001.046.004.02.001.063.006c.008 0 .015 0 .022.002l.043.004c.01 0 .019.002.028.003l.036.004.03.003.036.004.029.004.036.005.029.004.036.005.029.004a4.318 4.318 0 0 1 .038.006l.026.004.062.01.025.005.039.007.03.005.033.006a2.547 2.547 0 0 1 .064.013l.031.007.033.007.03.006.034.008.03.007.034.008.03.007.05.012.039.01.032.009.031.008.032.009.031.009.031.008.032.01.03.009.031.009.032.01.03.01.031.009.03.01.031.01.058.02.031.01.029.01.032.013.03.01a3.846 3.846 0 0 1 .03.012l.03.011.03.012.03.012.031.012.03.012.032.013.027.011.043.018.027.012.046.02.026.012.034.015.025.012.034.016.025.012a5.153 5.153 0 0 1 .034.016l.025.012.034.017.025.012.035.018.022.012.044.022.014.008.057.03.014.008.043.024.02.01a3.7 3.7 0 0 1 .037.022l.02.012.037.02.02.013.038.022.02.012.039.024.016.01c.018.01.036.022.053.033h.002a6.228 6.228 0 0 1 .059.04c.018.01.035.022.053.034l.012.008.043.03.014.009.041.029.014.01.042.029.013.01a4.749 4.749 0 0 1 .043.03l.01.008.01.007v5.126H16.007v-.994h21.938a1.25 1.25 0 0 0 0-2.5zm10.046-9.493v4.969a8.526 8.526 0 0 0-.64-.266l-.006-.002a8.833 8.833 0 0 0-.213-.076l-.009-.003a5.957 5.957 0 0 0-.045-.015l-.008-.003a7.199 7.199 0 0 0-.165-.052l-.049-.015-.012-.004-.04-.012-.014-.004a2.322 2.322 0 0 0-.04-.011l-.014-.005a8.935 8.935 0 0 0-.105-.029l-.014-.004-.038-.01-.017-.004-.037-.01-.017-.004-.04-.01-.012-.004a9.084 9.084 0 0 0-.106-.025l-.018-.005-.034-.008-.022-.004-.031-.008-.022-.004-.034-.008-.019-.004-.045-.01-.012-.002-.048-.01c-.006 0-.012-.002-.017-.003l-.036-.007-.02-.004-.034-.006-.02-.004a12.682 12.682 0 0 0-.035-.007l-.019-.003a7.597 7.597 0 0 0-.05-.009h-.003a5.431 5.431 0 0 0-.07-.012l-.036-.006-.022-.003a2.897 2.897 0 0 0-.031-.005l-.023-.004-.034-.005a9.525 9.525 0 0 0-.071-.01h-.001l-.053-.007-.02-.003-.034-.004-.023-.003-.03-.003-.023-.003-.036-.004-.018-.002-.05-.005-.006-.001-.052-.005a1.03 1.03 0 0 1-.017-.002l-.037-.003-.02-.002a3.611 3.611 0 0 0-.035-.003l-.022-.002a4.232 4.232 0 0 1-.032-.002l-.022-.002-.052-.004h-.002a9.817 9.817 0 0 0-.054-.004h-.018l-.036-.003a1.349 1.349 0 0 1-.02 0l-.035-.003a87.597 87.597 0 0 1-.056-.002l-.02-.001a7.901 7.901 0 0 0-.109-.004h-.017a2.26 2.26 0 0 0-.037-.001h-.023a1.761 1.761 0 0 0-.032-.001 1.673 1.673 0 0 0-.022 0 5.019 5.019 0 0 1-.04 0l-.014-.001H19.52a1.673 1.673 0 0 0-.021 0l-.033.001h-.022a2.244 2.244 0 0 0-.037.002h-.018a7.833 7.833 0 0 0-.108.004h-.02a87.597 87.597 0 0 0-.035.002l-.022.001-.034.002-.02.001-.037.002-.018.001-.054.004h-.001l-.052.004-.022.002-.033.002-.021.002-.035.003-.02.002-.038.003-.016.002a8.284 8.284 0 0 0-.052.005h-.007l-.05.006-.018.002-.035.004-.023.003-.03.003-.024.003a1.904 1.904 0 0 0-.033.004l-.02.003a4.83 4.83 0 0 0-.054.007 9.525 9.525 0 0 0-.071.01l-.035.005-.023.004-.03.005-.023.003-.036.006a29.57 29.57 0 0 0-.07.012h-.002l-.05.009-.02.003-.035.007-.02.003-.034.007-.02.004-.035.007a1.379 1.379 0 0 0-.018.003l-.048.01-.012.003-.045.01a1.222 1.222 0 0 1-.019.003l-.034.008-.021.004-.032.008-.021.004-.035.008-.018.005a7.76 7.76 0 0 0-.106.025l-.013.004-.039.01a4.44 4.44 0 0 0-.017.004l-.036.01-.017.004a5.491 5.491 0 0 0-.039.01l-.014.004a8.935 8.935 0 0 0-.105.03l-.014.004-.04.011-.014.004-.04.012-.012.004-.05.015h-.001a9.953 9.953 0 0 0-.163.052l-.008.003-.045.015a8.996 8.996 0 0 0-.222.079l-.005.002a8.563 8.563 0 0 0-.64.266v-4.911l-.001-.058v-.006a6.738 6.738 0 0 0-.25-1.76v-2.337c0-4.547 1.806-8.785 5.085-11.934 3.214-3.085 7.416-4.687 11.827-4.506a16.196 16.196 0 0 1 15.572 16.229v2.549a6.726 6.726 0 0 0-.25 1.76v.005zM16.146 61.5h-2.301v-8.677a8.1 8.1 0 0 0 .899.09l.019.001.058.003a5.668 5.668 0 0 0 .041.001h.028l.051.002h.017l.067.001h.02l.07.001h4.978L16.145 61.5zm34.01 0h-2.301l-3.947-8.578h5.068a4.97 4.97 0 0 0 .067-.002h.016a8.7 8.7 0 0 0 .052-.001l.027-.001a5.668 5.668 0 0 0 .042-.002l.058-.002a8.077 8.077 0 0 0 .918-.091V61.5zm8.124-30.247a4.529 4.529 0 0 1-2.838 1.99 1.25 1.25 0 0 0-.984 1.221v10.385c0 3-2.381 5.453-5.353 5.569H49.1a5.77 5.77 0 0 1-.059.002h-.013a3.254 3.254 0 0 1-.071.001 5.398 5.398 0 0 1-.07 0H15.115a4.06 4.06 0 0 1-.07 0h-.017l-.054-.001h-.014a5.79 5.79 0 0 1-.058-.002h-.006a5.58 5.58 0 0 1-5.354-5.569V34.464a1.25 1.25 0 0 0-.983-1.221 4.53 4.53 0 0 1-2.838-1.99c-.65-1.023-.852-2.26-.572-3.484.44-1.917 2.172-3.325 4.165-3.414a2.714 2.714 0 0 1 .044-.002h.03l.02-.001.038-.001h.016a4.75 4.75 0 0 1 .053 0h.015a3.958 3.958 0 0 1 1.903.484 3.967 3.967 0 0 1 1.883 2.319 4.205 4.205 0 0 1 .191 1.141v.035l.001.006a1.683 1.683 0 0 1 0 .04v14.219c0 .69.56 1.25 1.25 1.25h34.485c.69 0 1.25-.56 1.25-1.25V28.368a3.393 3.393 0 0 1 0-.032v-.006l.002-.034v-.003a4.206 4.206 0 0 1 .19-1.14 1.276 1.276 0 0 0 .017-.054 3.966 3.966 0 0 1 1.867-2.264c.59-.32 1.23-.483 1.9-.484h.087a2.308 2.308 0 0 1 .037 0l.02.001a1.504 1.504 0 0 1 .059.003h.016c1.992.09 3.725 1.497 4.165 3.414.28 1.224.076 2.461-.573 3.484zm-14.109 7.603a1.27 1.27 0 0 0-.186-.45 1.347 1.347 0 0 0-.156-.19 1.189 1.189 0 0 0-.19-.155 1.261 1.261 0 0 0-.216-.115 1.312 1.312 0 0 0-.233-.071 1.237 1.237 0 0 0-.489 0 1.252 1.252 0 0 0-.234.071 1.232 1.232 0 0 0-.216.115 1.188 1.188 0 0 0-.19.155 1.239 1.239 0 0 0-.155.19 1.334 1.334 0 0 0-.115.216 1.26 1.26 0 0 0-.096.48 1.244 1.244 0 0 0 .211.693 1.249 1.249 0 0 0 .561.46 1.254 1.254 0 0 0 .478.095 1.248 1.248 0 0 0 .245-.024 1.312 1.312 0 0 0 .233-.071 1.268 1.268 0 0 0 .406-.27 1.42 1.42 0 0 0 .156-.19 1.263 1.263 0 0 0 .186-.45 1.242 1.242 0 0 0 .024-.244c0-.082-.008-.164-.024-.245z"/></symbol><symbol viewBox="0 0 64 64" id="adv-house" xmlns="http://www.w3.org/2000/svg"><path d="M61.108 23.59L36.585 1.84a6.634 6.634 0 0 0-9.17 0l-8.21 7.463V6.424h1.066c.64 0 1.066-.426 1.066-1.066V1.093c0-.64-.426-1.066-1.066-1.066H7.477c-.64 0-1.066.426-1.066 1.066v4.265c0 .64.426 1.066 1.066 1.066h1.066v12.261L2.892 23.59c-.746.747-.96 1.813-.64 2.666.32.853 1.28 1.493 2.24 1.493h4.051v29.854H7.477c-.64 0-1.066.426-1.066 1.066v4.265c0 .64.426 1.066 1.066 1.066h49.046c.64 0 1.066-.426 1.066-1.173v-4.265c0-.64-.426-1.066-1.066-1.066h-1.066V27.642h4.052c1.066 0 1.919-.533 2.239-1.493.32-.853.106-1.92-.64-2.559zm-1.386 1.92c-.107.106-.214.106-.214.106H54.39c-.64 0-1.066.426-1.066 1.066V58.67c0 .64.427 1.066 1.067 1.066h1.066v2.132H8.543v-2.132h1.066c.64 0 1.066-.426 1.066-1.066V26.682c0-.64-.426-1.066-1.066-1.066H4.491c-.106 0-.106 0-.213-.106 0-.107 0-.214.107-.32l5.97-5.118c.214-.213.32-.533.32-.853V5.358c0-.64-.426-1.066-1.066-1.066H8.543V2.159h10.662v2.133H18.14c-.64 0-1.066.426-1.066 1.066v6.397c0 .427.213.853.64 1.173.426.107.853.107 1.172-.213l10.023-9.17c1.706-1.706 4.371-1.706 6.184 0l24.523 21.751c.107 0 .213.107.107.213z"/><path d="M43.728 33.08h-17.06v-5.331c0-1.6.64-2.986 1.813-4.052 1.173-1.066 2.666-1.493 4.265-1.28 2.559.427 4.585 2.772 4.585 5.545 0 1.599 1.386 2.985 2.985 2.985h.213c1.813 0 3.2-1.386 3.2-3.199 0-3.198-1.387-6.29-3.733-8.53-2.452-2.239-5.544-3.305-8.85-3.092-6.077.427-10.875 5.651-10.875 12.049v4.904c-1.813 0-3.199 1.493-3.199 3.2v14.926c0 1.813 1.493 3.199 3.2 3.199h23.456c1.813 0 3.199-1.386 3.199-3.199V36.278c0-1.812-1.493-3.198-3.199-3.198zm-21.43-5.118c0-5.225 3.944-9.596 8.955-9.916a9.39 9.39 0 0 1 7.25 2.559c2.026 1.813 3.093 4.371 3.093 7.037 0 .64-.427 1.066-1.066 1.066h-.214c-.426 0-.853-.426-.853-.853 0-3.838-2.772-7.144-6.504-7.57-2.132-.213-4.265.426-5.864 1.812-1.6 1.493-2.559 3.519-2.559 5.651v5.332h-2.239v-5.118zm22.496 23.243c0 .64-.533 1.067-1.066 1.067H20.271c-.64 0-1.066-.534-1.066-1.067V36.278c0-.64.533-1.066 1.066-1.066h23.457c.64 0 1.066.533 1.066 1.066v14.927zM34.772 38.411c-.96-.853-2.24-1.173-3.519-.96-1.706.213-3.092 1.706-3.412 3.412-.213 1.28.107 2.559.96 3.518v3.626c0 1.173.96 2.132 2.133 2.132h2.132c1.173 0 2.132-.96 2.132-2.132v-3.625c.64-.747 1.067-1.706 1.067-2.773 0-1.28-.533-2.345-1.493-3.198zm-1.493 4.798c-.213.106-.32.426-.32.746v4.052h-2.132v-4.159c0-.213-.107-.533-.32-.746-.533-.426-.746-1.173-.64-1.92.107-.852.853-1.598 1.706-1.705H32c.533 0 .96.213 1.28.533.426.427.745.96.745 1.6 0 .639-.32 1.172-.746 1.599z"/></symbol><symbol viewBox="0 0 64 64" id="adv-mortgage" xmlns="http://www.w3.org/2000/svg"><path d="M53.333 0H10.667a2.14 2.14 0 0 0-2.134 2.133v59.734A2.14 2.14 0 0 0 10.667 64h42.666a2.14 2.14 0 0 0 2.134-2.133V2.133A2.14 2.14 0 0 0 53.333 0zm0 61.867H10.667V2.133h42.666v59.734zm-26.986-48.32l1.386-1.387v4.907c0 .64.427 1.066 1.067 1.066s1.067-.426 1.067-1.066v-7.04L32 7.893l2.133 2.134v7.04c0 .64.427 1.066 1.067 1.066.64 0 1.067-.426 1.067-1.066V12.16l1.386 1.387c.214.213.427.32.747.32s.533-.107.747-.32a1.031 1.031 0 0 0 0-1.494l-3.018-3.017a.932.932 0 0 0-.365-.365l-3.018-3.018a1.031 1.031 0 0 0-1.493 0l-3.018 3.018a.93.93 0 0 0-.365.365l-3.017 3.017a1.031 1.031 0 0 0 0 1.493 1.031 1.031 0 0 0 1.494 0zM16 27.733h14.933c.64 0 1.067-.426 1.067-1.066 0-.64-.427-1.067-1.067-1.067H16c-.64 0-1.067.427-1.067 1.067 0 .64.427 1.066 1.067 1.066zM16 32h10.667c.64 0 1.066-.427 1.066-1.067s-.426-1.066-1.066-1.066H16c-.64 0-1.067.426-1.067 1.066S15.36 32 16 32zm0 12.8h10.667c.64 0 1.066-.427 1.066-1.067s-.426-1.066-1.066-1.066H16c-.64 0-1.067.426-1.067 1.066S15.36 44.8 16 44.8zm20.587-17.813a1.031 1.031 0 0 0 0 1.493l3.2 3.2c.213.213.426.32.746.32.427 0 .64-.213.854-.32l5.333-7.467c.427-.533.213-1.173-.213-1.493-.534-.427-1.174-.213-1.494.213l-4.586 6.4-2.347-2.346a1.031 1.031 0 0 0-1.493 0zM16 40.533h14.933c.64 0 1.067-.426 1.067-1.066s-.427-1.067-1.067-1.067H16c-.64 0-1.067.427-1.067 1.067 0 .64.427 1.066 1.067 1.066zm30.507-5.013c-.534-.427-1.174-.213-1.494.213l-4.586 6.4-2.347-2.346a1.031 1.031 0 0 0-1.493 0 1.031 1.031 0 0 0 0 1.493l3.2 3.2c.213.214.426.32.746.32.427 0 .64-.213.854-.32l5.333-7.466c.427-.534.213-1.174-.213-1.494zM16 53.333h14.933c.64 0 1.067-.426 1.067-1.066s-.427-1.067-1.067-1.067H16c-.64 0-1.067.427-1.067 1.067 0 .64.427 1.066 1.067 1.066zm0 4.267h10.667c.64 0 1.066-.427 1.066-1.067s-.426-1.066-1.066-1.066H16c-.64 0-1.067.426-1.067 1.066S15.36 57.6 16 57.6zm30.507-9.28c-.534-.427-1.174-.213-1.494.213l-4.586 6.4-2.347-2.346a1.031 1.031 0 0 0-1.493 0 1.031 1.031 0 0 0 0 1.493l3.2 3.2c.213.213.426.32.746.32.427 0 .64-.213.854-.32l5.333-7.467c.427-.533.213-1.173-.213-1.493z"/></symbol><symbol viewBox="0 0 64 64" id="adv-print" xmlns="http://www.w3.org/2000/svg"><path d="M14.933 12.8c.64 0 1.067-.427 1.067-1.067V6.4h1.067c.64 0 1.066-.427 1.066-1.067s-.426-1.066-1.066-1.066H16v-3.2C16 .427 15.573 0 14.933 0s-1.066.427-1.066 1.067v10.666c0 .64.426 1.067 1.066 1.067zm32 37.333c.64 0 1.067-.426 1.067-1.066V32h3.2c.427 0 .853-.213 1.067-.64.106-.427 0-.853-.32-1.173l-16.107-14.4a7.32 7.32 0 0 0-9.707 0l-16.106 14.4c-.32.32-.427.853-.32 1.173.106.32.533.64.96.64h3.2v17.067c0 .64.426 1.066 1.066 1.066h32zM13.44 29.867L27.52 17.28c1.92-1.707 4.907-1.707 6.827 0l14.08 12.587h-1.494c-.64 0-1.066.426-1.066 1.066V48H16V30.933c0-.64-.427-1.066-1.067-1.066H13.44zM62.933 48h-3.2v-1.067c0-.64-.426-1.066-1.066-1.066s-1.067.426-1.067 1.066V48h-5.333c-.64 0-1.067.427-1.067 1.067s.427 1.066 1.067 1.066h10.666c.64 0 1.067-.426 1.067-1.066 0-.64-.427-1.067-1.067-1.067zm-51.2 9.6h-1.066c-.64 0-1.067.427-1.067 1.067s.427 1.066 1.067 1.066h1.066c.64 0 1.067-.426 1.067-1.066s-.427-1.067-1.067-1.067zm5.334 0H16c-.64 0-1.067.427-1.067 1.067s.427 1.066 1.067 1.066h1.067c.64 0 1.066-.426 1.066-1.066s-.426-1.067-1.066-1.067zm5.333 0h-1.067c-.64 0-1.066.427-1.066 1.067s.426 1.066 1.066 1.066H22.4c.64 0 1.067-.426 1.067-1.066S23.04 57.6 22.4 57.6zm5.333 0h-1.066c-.64 0-1.067.427-1.067 1.067s.427 1.066 1.067 1.066h1.066c.64 0 1.067-.426 1.067-1.066s-.427-1.067-1.067-1.067zm5.334 0H32c-.64 0-1.067.427-1.067 1.067s.427 1.066 1.067 1.066h1.067c.64 0 1.066-.426 1.066-1.066s-.426-1.067-1.066-1.067zm5.333 0h-1.067c-.64 0-1.066.427-1.066 1.067s.426 1.066 1.066 1.066H38.4c.64 0 1.067-.426 1.067-1.066S39.04 57.6 38.4 57.6zm5.333 0h-1.066c-.64 0-1.067.427-1.067 1.067s.427 1.066 1.067 1.066h1.066c.64 0 1.067-.426 1.067-1.066s-.427-1.067-1.067-1.067zm5.334 0H48c-.64 0-1.067.427-1.067 1.067s.427 1.066 1.067 1.066h1.067c.64 0 1.066-.426 1.066-1.066s-.426-1.067-1.066-1.067zm5.333 0h-1.067c-.64 0-1.066.427-1.066 1.067s.426 1.066 1.066 1.066H54.4c.64 0 1.067-.426 1.067-1.066S55.04 57.6 54.4 57.6zm8.533 0h-4.266c-.64 0-1.067.427-1.067 1.067v4.266c0 .64.427 1.067 1.067 1.067.64 0 1.066-.427 1.066-1.067v-3.2h3.2c.64 0 1.067-.426 1.067-1.066s-.427-1.067-1.067-1.067zm-9.6-51.2H54.4c.64 0 1.067-.427 1.067-1.067S55.04 4.267 54.4 4.267h-1.067c-.64 0-1.066.426-1.066 1.066 0 .64.426 1.067 1.066 1.067zM48 6.4h1.067c.64 0 1.066-.427 1.066-1.067s-.426-1.066-1.066-1.066H48c-.64 0-1.067.426-1.067 1.066 0 .64.427 1.067 1.067 1.067zm-5.333 0h1.066c.64 0 1.067-.427 1.067-1.067s-.427-1.066-1.067-1.066h-1.066c-.64 0-1.067.426-1.067 1.066 0 .64.427 1.067 1.067 1.067zm-5.334 0H38.4c.64 0 1.067-.427 1.067-1.067S39.04 4.267 38.4 4.267h-1.067c-.64 0-1.066.426-1.066 1.066 0 .64.426 1.067 1.066 1.067zM32 6.4h1.067c.64 0 1.066-.427 1.066-1.067s-.426-1.066-1.066-1.066H32c-.64 0-1.067.426-1.067 1.066 0 .64.427 1.067 1.067 1.067zm-5.333 0h1.066c.64 0 1.067-.427 1.067-1.067s-.427-1.066-1.067-1.066h-1.066c-.64 0-1.067.426-1.067 1.066 0 .64.427 1.067 1.067 1.067zm-5.334 0H22.4c.64 0 1.067-.427 1.067-1.067S23.04 4.267 22.4 4.267h-1.067c-.64 0-1.066.426-1.066 1.066 0 .64.426 1.067 1.066 1.067zm-10.666 0c.64 0 1.066-.427 1.066-1.067s-.426-1.066-1.066-1.066H9.6c-.64 0-1.067.426-1.067 1.066 0 .64.427 1.067 1.067 1.067h1.067zm48 0h4.266c.64 0 1.067-.427 1.067-1.067s-.427-1.066-1.067-1.066h-3.2v-3.2c0-.64-.426-1.067-1.066-1.067S57.6.427 57.6 1.067v4.266c0 .64.427 1.067 1.067 1.067zM5.333 0c-.64 0-1.066.427-1.066 1.067v3.2h-3.2C.427 4.267 0 4.693 0 5.333 0 5.973.427 6.4 1.067 6.4h4.266c.64 0 1.067-.427 1.067-1.067V1.067C6.4.427 5.973 0 5.333 0zm0 9.6c-.64 0-1.066.427-1.066 1.067v1.066c0 .64.426 1.067 1.066 1.067.64 0 1.067-.427 1.067-1.067v-1.066c0-.64-.427-1.067-1.067-1.067zm0 5.333c-.64 0-1.066.427-1.066 1.067v1.067c0 .64.426 1.066 1.066 1.066.64 0 1.067-.426 1.067-1.066V16c0-.64-.427-1.067-1.067-1.067zm0 5.334c-.64 0-1.066.426-1.066 1.066V22.4c0 .64.426 1.067 1.066 1.067.64 0 1.067-.427 1.067-1.067v-1.067c0-.64-.427-1.066-1.067-1.066zm0 5.333c-.64 0-1.066.427-1.066 1.067v1.066c0 .64.426 1.067 1.066 1.067.64 0 1.067-.427 1.067-1.067v-1.066c0-.64-.427-1.067-1.067-1.067zm0 5.333c-.64 0-1.066.427-1.066 1.067v1.067c0 .64.426 1.066 1.066 1.066.64 0 1.067-.426 1.067-1.066V32c0-.64-.427-1.067-1.067-1.067zm0 5.334c-.64 0-1.066.426-1.066 1.066V38.4c0 .64.426 1.066 1.066 1.066.64 0 1.067-.426 1.067-1.066v-1.067c0-.64-.427-1.066-1.067-1.066zm0 5.333c-.64 0-1.066.427-1.066 1.067v1.066c0 .64.426 1.067 1.066 1.067.64 0 1.067-.427 1.067-1.067v-1.066c0-.64-.427-1.067-1.067-1.067zm0 5.333c-.64 0-1.066.427-1.066 1.067v1.067c0 .64.426 1.066 1.066 1.066.64 0 1.067-.426 1.067-1.066V48c0-.64-.427-1.067-1.067-1.067zm0 5.334c-.64 0-1.066.426-1.066 1.066V54.4c0 .64.426 1.066 1.066 1.066.64 0 1.067-.426 1.067-1.066v-1.067c0-.64-.427-1.066-1.067-1.066zm53.334-40.534c.64 0 1.066-.426 1.066-1.066V9.6c0-.64-.426-1.067-1.066-1.067S57.6 8.96 57.6 9.6v1.067c0 .64.427 1.066 1.067 1.066zm0 5.334c.64 0 1.066-.427 1.066-1.067v-1.067c0-.64-.426-1.066-1.066-1.066s-1.067.426-1.067 1.066V16c0 .64.427 1.067 1.067 1.067zm0 5.333c.64 0 1.066-.427 1.066-1.067v-1.066c0-.64-.426-1.067-1.066-1.067s-1.067.427-1.067 1.067v1.066c0 .64.427 1.067 1.067 1.067zm0 5.333c.64 0 1.066-.426 1.066-1.066V25.6c0-.64-.426-1.067-1.066-1.067S57.6 24.96 57.6 25.6v1.067c0 .64.427 1.066 1.067 1.066zm0 5.334c.64 0 1.066-.427 1.066-1.067v-1.067c0-.64-.426-1.066-1.066-1.066s-1.067.426-1.067 1.066V32c0 .64.427 1.067 1.067 1.067zm0 5.333c.64 0 1.066-.427 1.066-1.067v-1.066c0-.64-.426-1.067-1.066-1.067s-1.067.427-1.067 1.067v1.066c0 .64.427 1.067 1.067 1.067zm0 5.333c.64 0 1.066-.426 1.066-1.066V41.6c0-.64-.426-1.067-1.066-1.067S57.6 40.96 57.6 41.6v1.067c0 .64.427 1.066 1.067 1.066zm0 11.734c.64 0 1.066-.427 1.066-1.067v-1.067c0-.64-.426-1.066-1.066-1.066s-1.067.426-1.067 1.066V54.4c0 .64.427 1.067 1.067 1.067zM5.333 57.6H1.067C.427 57.6 0 58.027 0 58.667s.427 1.066 1.067 1.066h3.2v3.2c0 .64.426 1.067 1.066 1.067S6.4 63.573 6.4 62.933v-4.266c0-.64-.427-1.067-1.067-1.067z"/></symbol><symbol viewBox="0 0 64 64" id="adv-tv" xmlns="http://www.w3.org/2000/svg"><path d="M64 22.563V10.588c0-2.977-2.436-5.345-5.412-5.345-2.977 0-5.413 2.436-5.413 5.412v11.84c0 2.57 1.76 4.668 4.195 5.21v5.005H37.277c0-.135.068-.27.068-.405v-3.45c0-.136 0-.271-.068-.407h12.042a2.859 2.859 0 0 0 2.842-2.841V5.987a2.859 2.859 0 0 0-2.842-2.841h-34.3a2.859 2.859 0 0 0-2.841 2.841v19.755a2.859 2.859 0 0 0 2.841 2.842h12.042c0 .135-.067.27-.067.406v3.45c0 .135 0 .27.067.406H6.698v-4.6c2.368-.542 4.194-2.707 4.194-5.21V10.994c0-2.977-2.435-5.412-5.412-5.412S.068 8.017.068 10.994v11.84c0 2.57 1.759 4.667 4.194 5.208v4.668H2.64A2.642 2.642 0 0 0 0 35.35v22.867a2.642 2.642 0 0 0 2.639 2.638h58.655a2.642 2.642 0 0 0 2.638-2.638v-22.8a2.642 2.642 0 0 0-2.638-2.638h-1.488v-5.006C62.172 27.23 64 25.066 64 22.562zm-8.389-11.907c0-1.692 1.353-3.045 2.977-3.045 1.623 0 2.977 1.353 2.977 2.977v2.503H55.61v-2.435zM15.019 26.148c-.203-.068-.406-.27-.406-.474V5.988c0-.203.203-.406.406-.406h34.3c.203 0 .406.203.406.406v19.754a.437.437 0 0 1-.406.406h-34.3zm19.89 2.706v3.45a.437.437 0 0 1-.406.406h-4.6c-.27 0-.406-.135-.406-.405v-3.45c0-.204.203-.407.406-.407h4.6c.203 0 .406.203.406.406zM2.503 10.994c0-1.624 1.353-2.977 2.977-2.977s2.977 1.353 2.977 2.977v2.03H2.503v-2.03zm0 11.907v-7.442h5.954v7.374c0 1.624-1.353 2.977-2.977 2.977-1.624.068-2.977-1.286-2.977-2.91zm59.062 35.315c0 .203-.136.27-.271.27H2.706a.291.291 0 0 1-.27-.27V48h59.128v10.216zm-.271-23.07a.29.29 0 0 1 .27.27v10.216H2.436V35.417c0-.136.136-.271.271-.271h58.588zm-2.706-9.674c-1.624 0-2.977-1.353-2.977-2.977v-7.036h5.954v6.968c0 1.692-1.354 3.045-2.977 3.045zM5.48 19.518a1.285 1.285 0 1 0 0-2.57 1.285 1.285 0 0 0 0 2.57zm0 4.668a1.285 1.285 0 1 0 0-2.57 1.285 1.285 0 0 0 0 2.57zm53.108-4.668a1.285 1.285 0 1 0 0-2.57 1.285 1.285 0 0 0 0 2.57zm0 4.668a1.285 1.285 0 1 0 0-2.57 1.285 1.285 0 0 0 0 2.57zM35.856 39.34h-7.848a1.213 1.213 0 0 0-1.217 1.218c0 .677.54 1.218 1.218 1.218h7.847a1.213 1.213 0 0 0 1.218-1.218 1.213 1.213 0 0 0-1.218-1.218zm0 12.922h-7.848a1.213 1.213 0 0 0-1.217 1.218c0 .677.54 1.218 1.218 1.218h7.847a1.213 1.213 0 0 0 1.218-1.218 1.213 1.213 0 0 0-1.218-1.218z"/></symbol><symbol viewBox="0 0 60 60" id="contacts-address" xmlns="http://www.w3.org/2000/svg"><path d="M42.117 43.007a1 1 0 0 0-.234 1.986C52.399 46.231 58 49.567 58 51.5c0 2.714-10.652 6.5-28 6.5S2 54.214 2 51.5c0-1.933 5.601-5.269 16.117-6.507a1 1 0 0 0-.234-1.986C7.354 44.247 0 47.739 0 51.5 0 55.724 10.305 60 30 60s30-4.276 30-8.5c0-3.761-7.354-7.253-17.883-8.493zm-12.294 11.75L45.164 32.6c5.754-7.671 4.922-20.28-1.781-26.982C39.761 1.995 34.945 0 29.823 0s-9.938 1.995-13.56 5.617c-6.703 6.702-7.535 19.311-1.804 26.952l15.364 22.188zM30 12c3.86 0 7 3.141 7 7s-3.14 7-7 7-7-3.141-7-7 3.14-7 7-7z"/></symbol><symbol viewBox="0 0 13 13" id="contacts-email" xmlns="http://www.w3.org/2000/svg"><path d="M1.863 11.177a6.322 6.322 0 0 0 2.128 1.341A7.68 7.68 0 0 0 6.733 13c1.112 0 2.138-.168 3.06-.513.836-.304.116-1.844-.498-1.592-.677.282-1.503.429-2.446.429a5.781 5.781 0 0 1-2.011-.335 4.386 4.386 0 0 1-1.535-.943 4.29 4.29 0 0 1-.995-1.487c-.244-.587-.36-1.257-.36-1.99 0-.692.116-1.352.35-1.939.232-.586.55-1.11.973-1.53a4.425 4.425 0 0 1 1.503-1.015 5.092 5.092 0 0 1 1.959-.367c.667 0 1.28.094 1.831.262a3.78 3.78 0 0 1 1.398.775c.392.346.699.765.92 1.268.223.503.33 1.09.33 1.76a4.6 4.6 0 0 1-.128 1.1c-.085.324-.19.618-.339.848-.137.22-.296.398-.487.524-.222.146-.55.23-.804.146-.318-.104-.254-.544-.233-.806.032-.356.127-.691.2-1.037.117-.566.244-1.121.36-1.676.064-.304.138-.618.202-.922a.634.634 0 0 0-.625-.765h-.465a.635.635 0 0 0-.615.461c-.031.126-.063.23-.063.23-.233-.712-1.09-.91-1.768-.9-.89.01-1.704.46-2.297 1.1-.053.062-.117.125-.17.188a4.03 4.03 0 0 0-.698 1.247c-.17.482-.254.974-.254 1.477 0 .43.063.838.18 1.204.127.378.306.702.54.975.232.272.529.492.878.65.35.156.741.24 1.165.24.317 0 .614-.052.878-.146a3.28 3.28 0 0 0 .688-.346c.16-.105.307-.23.424-.346.074.136.159.251.275.367.297.314.752.471 1.355.471a3.44 3.44 0 0 0 1.377-.283 3.258 3.258 0 0 0 1.153-.859c.318-.377.583-.838.773-1.382.19-.545.286-1.174.286-1.865 0-.943-.18-1.78-.53-2.483a5.199 5.199 0 0 0-1.418-1.77C10.47.954 9.792.608 9.041.367A7.132 7.132 0 0 0 6.733 0c-.921 0-1.8.168-2.615.492A6.844 6.844 0 0 0 1.98 1.865 6.356 6.356 0 0 0 .53 3.928 6.359 6.359 0 0 0 0 6.516c0 .932.159 1.812.487 2.598a5.908 5.908 0 0 0 1.376 2.063zm5.727-4.4c-.074.283-.18.556-.328.807a1.9 1.9 0 0 1-.56.597c-.213.147-.467.22-.784.22a.886.886 0 0 1-.477-.115.908.908 0 0 1-.307-.325 1.518 1.518 0 0 1-.169-.46 2.563 2.563 0 0 1-.053-.462c0-.293.042-.586.127-.89a2.74 2.74 0 0 1 .36-.796c.159-.23.339-.42.561-.566a1.18 1.18 0 0 1 .688-.199c.212 0 .381.032.508.105a.883.883 0 0 1 .307.283c.085.126.138.272.18.43.043.177.064.366.064.544-.01.262-.042.534-.117.828z"/></symbol><symbol viewBox="0 0 60 60" id="contacts-tel" xmlns="http://www.w3.org/2000/svg"><path d="M58.833 47.71l-12.565-8.376a2.62 2.62 0 0 0-3.517.57l-3.659 4.704a2.606 2.606 0 0 1-3.327.69c-2.482-1.38-5.418-2.681-11.896-9.167-6.478-6.486-7.786-9.414-9.167-11.897a2.606 2.606 0 0 1 .69-3.326l4.703-3.66a2.62 2.62 0 0 0 .571-3.517L12.29 1.167A2.62 2.62 0 0 0 8.764.373L3.51 3.525A6.42 6.42 0 0 0 .595 7.298c-1.437 5.239-1.727 16.795 16.793 35.315 18.52 18.52 30.075 18.23 35.314 16.792a6.419 6.419 0 0 0 3.773-2.915l3.152-5.254a2.62 2.62 0 0 0-.794-3.526zM34.137 9.31c9.708.01 17.575 7.878 17.586 17.586a1.034 1.034 0 1 0 2.069 0c-.012-10.85-8.805-19.643-19.655-19.655a1.035 1.035 0 0 0 0 2.07zm0 6.207c6.281.007 11.372 5.098 11.379 11.379a1.035 1.035 0 0 0 2.07 0c-.01-7.424-6.025-13.44-13.45-13.448a1.035 1.035 0 0 0 0 2.069zm0 6.207a5.178 5.178 0 0 1 5.172 5.172 1.035 1.035 0 0 0 2.07 0 7.25 7.25 0 0 0-7.242-7.241 1.034 1.034 0 0 0 0 2.069z"/></symbol><symbol viewBox="0 0 60 60" id="contacts-time" xmlns="http://www.w3.org/2000/svg"><path d="M30 0C13.458 0 0 13.458 0 30s13.458 30 30 30 30-13.458 30-30S46.542 0 30 0zm12.616 50.036l-1.293-2.224a.84.84 0 0 0-.724-.416.821.821 0 0 0-.418.113.83.83 0 0 0-.389.51.833.833 0 0 0 .086.633l1.295 2.227a23.516 23.516 0 0 1-9.594 2.752V50.49a1.58 1.58 0 0 0-3.158 0v3.14a23.51 23.51 0 0 1-9.466-2.684l1.281-2.234a.83.83 0 0 0 .082-.634.83.83 0 0 0-.391-.506.823.823 0 0 0-.414-.111.84.84 0 0 0-.727.42l-1.28 2.232a23.876 23.876 0 0 1-7.175-6.933l2.714-1.567a1.579 1.579 0 1 0-1.58-2.735l-2.717 1.57a23.516 23.516 0 0 1-2.413-9.539l2.578-.008a.83.83 0 0 0 .59-.246.83.83 0 0 0 .243-.592.837.837 0 0 0-.836-.833l-2.58.008c.11-3.466.968-6.746 2.418-9.684l2.717 1.57a1.578 1.578 0 0 0 1.579-2.735l-2.713-1.567a23.869 23.869 0 0 1 7.053-6.857l1.293 2.224a.825.825 0 0 0 .305.305c.256.146.58.148.837-.002a.83.83 0 0 0 .388-.51.83.83 0 0 0-.085-.633l-1.295-2.226a23.51 23.51 0 0 1 9.594-2.752v3.14a1.579 1.579 0 0 0 3.158 0V6.37c3.4.224 6.605 1.17 9.465 2.684l-1.28 2.234c-.23.4-.09.912.309 1.14a.824.824 0 0 0 .414.112.839.839 0 0 0 .726-.42l1.28-2.232a23.871 23.871 0 0 1 7.176 6.933l-2.714 1.566a1.579 1.579 0 0 0 .791 2.947 1.571 1.571 0 0 0 .788-.212l2.718-1.57a23.51 23.51 0 0 1 2.413 9.54l-2.578.007a.829.829 0 0 0-.59.247.83.83 0 0 0-.243.591.84.84 0 0 0 .421.724.833.833 0 0 0 .414.11h.003l2.58-.008a23.522 23.522 0 0 1-2.42 9.683l-2.717-1.57a1.579 1.579 0 0 0-1.58 2.735l2.715 1.567a23.882 23.882 0 0 1-7.054 6.857zm-.947-28.598l-10.127 5.62a3.306 3.306 0 0 0-1.543-.382 3.31 3.31 0 0 0-1.542.381l-10.127-5.62a1.984 1.984 0 0 0-1.924 3.47l10.333 5.733a3.324 3.324 0 0 0 6.52 0l10.334-5.734a1.984 1.984 0 0 0-1.924-3.468z"/></symbol><symbol viewBox="0 0 80 80" id="icon-adv" xmlns="http://www.w3.org/2000/svg"><path d="M32.438 11.6l-.682-2.58a32.839 32.839 0 0 0-4.056 1.31l1.027 2.471a30.36 30.36 0 0 1 3.711-1.201zm35.957 12.452a32.387 32.387 0 0 0-2.366-3.467L63.861 22.2a29.734 29.734 0 0 1 2.17 3.183l2.364-1.331zM23.16 67.449a33.014 33.014 0 0 0 3.792 1.908l1.091-2.445a30.206 30.206 0 0 1-3.472-1.75l-1.41 2.287zM11.088 32.083l-2.628-.719a31.53 31.53 0 0 0-.877 4.083l2.701.377a28.906 28.906 0 0 1 .804-3.741zm7.88-13.016l-1.91-1.904a32.556 32.556 0 0 0-2.846 3.113l2.148 1.643a29.851 29.851 0 0 1 2.609-2.852zm44.254-1.628a32.988 32.988 0 0 0-3.196-2.76l-1.672 2.109a29.642 29.642 0 0 1 2.932 2.533l1.936-1.882zm5.588 30.828l2.618.75c.4-1.335.71-2.695.93-4.07l-2.697-.414a28.871 28.871 0 0 1-.851 3.734zm-8.046 12.917l1.886 1.924a32.644 32.644 0 0 0 2.883-3.067l-2.128-1.672a29.67 29.67 0 0 1-2.641 2.815zM40 10.667h.195V8H40a34.075 34.075 0 0 0-4.054.243l.332 2.645A31.582 31.582 0 0 1 40 10.667zm29.01 21.769l2.636-.687a31.397 31.397 0 0 0-1.364-3.953l-2.523 1.017a28.72 28.72 0 0 1 1.251 3.623zm-3.359 22.801l2.33 1.388a31.716 31.716 0 0 0 1.976-3.693l-2.495-1.077a29.093 29.093 0 0 1-1.81 3.382zM40 69.333h-.555L39.389 72H40a34.677 34.677 0 0 0 3.65-.195l-.298-2.652a31.255 31.255 0 0 1-3.352.18zm14.472-3.629l1.318 2.336a33.325 33.325 0 0 0 3.596-2.247l-1.617-2.149a30.288 30.288 0 0 1-3.297 2.06zm15.293-29.519A28.853 28.853 0 0 1 70.017 40c0 .244 0 .485-.008.728l2.73.063c0-.267.009-.534.009-.791a31.697 31.697 0 0 0-.273-4.159l-2.71.344zm-55.611-11.11l-2.348-1.36a31.89 31.89 0 0 0-1.93 3.716l2.51 1.049a28.999 28.999 0 0 1 1.768-3.405zM47.2 68.484l.654 2.59a33.023 33.023 0 0 0 4.07-1.262l-.992-2.479a30.362 30.362 0 0 1-3.732 1.151zM25.203 14.472l-1.347-2.317a33.303 33.303 0 0 0-3.567 2.289l1.638 2.133a30.505 30.505 0 0 1 3.276-2.105zm5.766 56.296a33.642 33.642 0 0 0 4.17.883l.409-2.638a30.818 30.818 0 0 1-3.82-.81l-.76 2.565zm25.521-58.42a32.939 32.939 0 0 0-3.82-1.867l-1.057 2.459a30.535 30.535 0 0 1 3.495 1.705l1.383-2.297zM11.404 55.6a32.252 32.252 0 0 0 2.32 3.499l2.19-1.591a29.654 29.654 0 0 1-2.13-3.21l-2.38 1.302zm5.088 6.679a32.901 32.901 0 0 0 3.163 2.8l1.696-2.09a29.853 29.853 0 0 1-2.9-2.566l-1.959 1.856zM48.64 9.127a33.277 33.277 0 0 0-4.181-.832l-.366 2.638a30.457 30.457 0 0 1 3.833.762l.714-2.568zM9.983 40.007v-.374l-2.73-.033v.4a31.496 31.496 0 0 0 .226 3.764l2.71-.31a29.173 29.173 0 0 1-.206-3.447zm.914 7.205l-2.647.653a31.616 31.616 0 0 0 1.323 3.971l2.537-.987a28.591 28.591 0 0 1-1.213-3.637z"/><path d="M79.915 31.099a10.06 10.06 0 0 0-3.258-4.667 10.993 10.993 0 0 1-2.228-2.632 10.914 10.914 0 0 1-.744-3.413 9.85 9.85 0 0 0-1.682-5.334 10.315 10.315 0 0 0-4.959-2.8 11.43 11.43 0 0 1-3.224-1.456 11.052 11.052 0 0 1-2.151-2.732 10.136 10.136 0 0 0-3.903-4.122 10.414 10.414 0 0 0-5.665-.412 11.673 11.673 0 0 1-3.598.05 11.153 11.153 0 0 1-3.092-1.52A10.628 10.628 0 0 0 40 0a10.626 10.626 0 0 0-5.411 2.073A11.2 11.2 0 0 1 31.497 3.6a11.761 11.761 0 0 1-3.598-.052 10.438 10.438 0 0 0-5.665.412 10.124 10.124 0 0 0-3.904 4.124 11.058 11.058 0 0 1-2.15 2.732 11.433 11.433 0 0 1-3.224 1.45 10.318 10.318 0 0 0-4.959 2.8A9.848 9.848 0 0 0 6.315 20.4a10.915 10.915 0 0 1-.744 3.413 10.972 10.972 0 0 1-2.23 2.632 10.065 10.065 0 0 0-3.256 4.667 9.728 9.728 0 0 0 .85 5.443A11.061 11.061 0 0 1 1.796 40a11.062 11.062 0 0 1-.861 3.459 9.728 9.728 0 0 0-.85 5.442 10.061 10.061 0 0 0 3.258 4.667A10.992 10.992 0 0 1 5.571 56.2a10.91 10.91 0 0 1 .744 3.413 9.85 9.85 0 0 0 1.682 5.334 10.317 10.317 0 0 0 4.959 2.786 11.435 11.435 0 0 1 3.224 1.456 11.053 11.053 0 0 1 2.152 2.732 10.136 10.136 0 0 0 3.902 4.123 10.438 10.438 0 0 0 5.665.412 11.677 11.677 0 0 1 3.598-.05 11.155 11.155 0 0 1 3.092 1.52A10.626 10.626 0 0 0 40 80a10.626 10.626 0 0 0 5.411-2.073 11.2 11.2 0 0 1 3.092-1.527 11.889 11.889 0 0 1 3.598.052 10.398 10.398 0 0 0 5.665-.412 10.125 10.125 0 0 0 3.904-4.124 11.058 11.058 0 0 1 2.15-2.732 11.433 11.433 0 0 1 3.224-1.45 10.319 10.319 0 0 0 4.959-2.794 9.849 9.849 0 0 0 1.682-5.333 10.914 10.914 0 0 1 .744-3.414 10.971 10.971 0 0 1 2.23-2.632 10.064 10.064 0 0 0 3.256-4.666 9.727 9.727 0 0 0-.85-5.443A11.062 11.062 0 0 1 78.204 40a11.062 11.062 0 0 1 .86-3.459 9.727 9.727 0 0 0 .851-5.442zm-3.428 13.237a7.854 7.854 0 0 1 .767 3.973 8.131 8.131 0 0 1-2.524 3.372 12.948 12.948 0 0 0-2.759 3.362 12.912 12.912 0 0 0-.997 4.266 7.952 7.952 0 0 1-1.103 3.967 8.37 8.37 0 0 1-3.729 1.94 13.516 13.516 0 0 0-4.025 1.888 13.084 13.084 0 0 0-2.76 3.401 8.136 8.136 0 0 1-2.778 3.138 8.425 8.425 0 0 1-4.176.162 14.019 14.019 0 0 0-4.503 0 13.258 13.258 0 0 0-3.942 1.867A8.423 8.423 0 0 1 40 77.333a8.422 8.422 0 0 1-3.957-1.662 13.268 13.268 0 0 0-3.94-1.867 8.685 8.685 0 0 0-1.885-.188 24.49 24.49 0 0 0-2.62.19 8.441 8.441 0 0 1-4.176-.163 8.16 8.16 0 0 1-2.778-3.138 13.072 13.072 0 0 0-2.76-3.4 13.482 13.482 0 0 0-4.024-1.889 8.338 8.338 0 0 1-3.729-1.94 7.95 7.95 0 0 1-1.103-3.965 12.92 12.92 0 0 0-.996-4.267 12.976 12.976 0 0 0-2.76-3.36 8.136 8.136 0 0 1-2.52-3.375 7.854 7.854 0 0 1 .766-3.973A13.079 13.079 0 0 0 4.525 40a13.08 13.08 0 0 0-1.012-4.336 7.854 7.854 0 0 1-.767-3.973 8.131 8.131 0 0 1 2.524-3.372 12.95 12.95 0 0 0 2.759-3.362c.574-1.358.91-2.8.997-4.266a7.952 7.952 0 0 1 1.103-3.967 8.37 8.37 0 0 1 3.729-1.94 13.516 13.516 0 0 0 4.025-1.888 13.049 13.049 0 0 0 2.759-3.403 8.15 8.15 0 0 1 2.779-3.137 8.442 8.442 0 0 1 4.176-.163 13.864 13.864 0 0 0 4.503 0 13.259 13.259 0 0 0 3.942-1.866A8.422 8.422 0 0 1 40 2.667a8.422 8.422 0 0 1 3.957 1.662 13.269 13.269 0 0 0 3.94 1.867 13.873 13.873 0 0 0 4.503 0 8.412 8.412 0 0 1 4.176.163 8.159 8.159 0 0 1 2.781 3.134 13.07 13.07 0 0 0 2.76 3.4 13.481 13.481 0 0 0 4.024 1.89 8.336 8.336 0 0 1 3.73 1.94 7.95 7.95 0 0 1 1.103 3.966 12.919 12.919 0 0 0 .996 4.267 12.976 12.976 0 0 0 2.759 3.36c1.128.89 2 2.053 2.525 3.373a7.854 7.854 0 0 1-.766 3.974A13.079 13.079 0 0 0 75.475 40a13.08 13.08 0 0 0 1.013 4.336zm-31.952-9.67L40 21.012l-4.535 13.656h-14.68l11.879 8.416-4.535 13.637L40 48.292l11.87 8.428-4.533-13.637 11.878-8.416h-14.68zm2.15 15.067L40 44.995l-6.686 4.738 2.552-7.676-6.668-4.724h8.25L40 29.651l2.551 7.682h8.251l-6.673 4.73 2.557 7.67zM65.926 40c0-5.01-1.521-9.908-4.37-14.074s-6.897-7.413-11.634-9.33a26.485 26.485 0 0 0-14.979-1.443 26.117 26.117 0 0 0-13.273 6.934 25.16 25.16 0 0 0-7.095 12.97 24.797 24.797 0 0 0 1.475 14.638c1.962 4.629 5.285 8.585 9.548 11.369A26.356 26.356 0 0 0 40 65.334c6.873-.008 13.463-2.68 18.323-7.429 4.86-4.75 7.593-11.188 7.601-17.905zM40 62.667c-4.588 0-9.072-1.33-12.887-3.82a22.788 22.788 0 0 1-8.543-10.173 22.187 22.187 0 0 1-1.32-13.096 22.512 22.512 0 0 1 6.348-11.606 23.368 23.368 0 0 1 11.877-6.203c4.5-.875 9.163-.426 13.401 1.29a23.09 23.09 0 0 1 10.41 8.348A22.301 22.301 0 0 1 63.196 40c-.008 6.01-2.454 11.771-6.802 16.02C52.045 60.27 46.15 62.66 40 62.667z"/></symbol><symbol viewBox="0 0 64 64" id="icon-adv-view" xmlns="http://www.w3.org/2000/svg"><path fill-rule="evenodd" clip-rule="evenodd" d="M32 62c16.569 0 30-13.431 30-30C62 15.431 48.569 2 32 2 15.431 2 2 15.431 2 32c0 16.569 13.431 30 30 30zm0 1c17.12 0 31-13.88 31-31C63 14.88 49.12 1 32 1 14.88 1 1 14.88 1 32c0 17.12 13.88 31 31 31z"/><path d="M52 32c0 11.046-8.954 20-20 20s-20-8.954-20-20 8.954-20 20-20 20 8.954 20 20z"/><path d="M51.279 18.134L48.155 15l-14.06 14.105 3.124 3.134 14.06-14.105zM60.652 15L37.22 38.731l-9.374-9.403-3.124 3.135L37.219 45 64 18.134 60.652 15zM12 32.463L24.498 45l3.124-3.134-12.498-12.538L12 32.463z" fill="#075E81"/></symbol><symbol viewBox="0 0 60 60" id="icon-map" xmlns="http://www.w3.org/2000/svg"><path d="M59.044.977l-.01-.011-.01-.01a3.234 3.234 0 0 0-3.5-.725L2.084 21.127a3.236 3.236 0 0 0-2.06 3.441 3.236 3.236 0 0 0 2.816 2.857l26.118 3.522a.111.111 0 0 1 .095.095l3.522 26.118a3.236 3.236 0 0 0 2.857 2.816c.138.016.274.024.409.024 1.343 0 2.53-.8 3.032-2.085L59.77 4.475a3.234 3.234 0 0 0-.725-3.499zm-55.78 23.31c-.06-.007-.086-.01-.096-.096-.01-.084.015-.094.07-.116l49.998-19.55-23.385 23.386c-.153-.044-26.588-3.623-26.588-3.623zm32.66 32.476c-.02.054-.03.08-.115.069-.085-.01-.088-.037-.096-.095 0 0-3.58-26.435-3.624-26.587L55.475 6.764l-19.55 49.998z"/></symbol><symbol viewBox="0 0 54 37" id="icon-next" xmlns="http://www.w3.org/2000/svg"><path d="M53.264 16.732l-16.07-16a2.519 2.519 0 0 0-3.55 0c-.98.977-.98 2.56 0 3.536L45.427 16H2.511A2.506 2.506 0 0 0 0 18.5C0 19.88 1.124 21 2.51 21h42.917L33.644 32.732c-.98.977-.98 2.56 0 3.536A2.51 2.51 0 0 0 35.42 37a2.51 2.51 0 0 0 1.775-.732l16.07-16c.98-.977.98-2.56 0-3.536z"/></symbol><symbol viewBox="0 0 54 37" id="icon-prev" xmlns="http://www.w3.org/2000/svg"><path d="M.736 20.268l16.069 16c.98.976 2.57.976 3.55 0a2.49 2.49 0 0 0 0-3.536L8.574 21H51.49c1.386 0 2.51-1.12 2.51-2.5S52.876 16 51.49 16H8.572L20.356 4.268c.98-.977.98-2.56 0-3.536A2.51 2.51 0 0 0 18.58 0a2.51 2.51 0 0 0-1.775.732l-16.07 16c-.98.977-.98 2.56 0 3.536z"/></symbol><symbol viewBox="0 0 27 44" id="icon-scroll" xmlns="http://www.w3.org/2000/svg"><path fill-rule="evenodd" clip-rule="evenodd" d="M13.5 0C8.814 0 5.17 1.423 2.76 4.306.353 7.187 0 10.55 0 12.283v19.435c0 1.732.352 5.095 2.76 7.976C5.17 42.577 8.815 44 13.5 44s8.33-1.423 10.74-4.306C26.648 36.813 27 33.45 27 31.718V12.282c0-1.731-.352-5.095-2.76-7.976C21.83 1.423 18.185 0 13.5 0zM2.36 12.283c0-.813.131-3.212 1.498-5.437 1.298-2.113 3.75-4.133 8.462-4.422v4.094a3.645 3.645 0 0 0-2.402 3.44v3.766a3.645 3.645 0 0 0 2.402 3.44v5.325c0 .65.519 1.193 1.18 1.193.661 0 1.18-.543 1.18-1.193v-5.325a3.645 3.645 0 0 0 2.402-3.44V9.959a3.645 3.645 0 0 0-2.402-3.44V2.423c4.713.29 7.163 2.309 8.462 4.422 1.367 2.225 1.498 4.624 1.498 5.437v19.435c0 .83-.137 3.315-1.586 5.579-1.425 2.225-4.17 4.316-9.554 4.316-5.385 0-8.129-2.091-9.554-4.316-1.45-2.264-1.586-4.749-1.586-5.58V12.284zm9.918-2.324c0-.703.558-1.257 1.222-1.257.664 0 1.222.554 1.222 1.257v3.765c0 .702-.558 1.257-1.222 1.257-.664 0-1.222-.555-1.222-1.257V9.959z"/></symbol><symbol viewBox="0 0 16 17" id="icon-search" xmlns="http://www.w3.org/2000/svg"><path d="M15.757 15.484l-3.944-4.208a6.949 6.949 0 0 0 1.57-4.412C13.382 3.079 10.38 0 6.69 0 3.001 0 0 3.08 0 6.864s3.002 6.863 6.691 6.863a6.505 6.505 0 0 0 3.834-1.242l3.974 4.24a.856.856 0 0 0 1.234.025.913.913 0 0 0 .024-1.266zM6.69 1.791c2.727 0 4.946 2.275 4.946 5.073 0 2.797-2.219 5.073-4.946 5.073S1.746 9.66 1.746 6.864c0-2.798 2.218-5.073 4.945-5.073z"/></symbol><symbol viewBox="0 0 120 50" id="logotip" xmlns="http://www.w3.org/2000/svg"><path d="M8.587 39.013H4V3.333h4.587v35.68zm32.273-4.8V17.947c0-.676-.106-1.12-.32-1.334-.177-.213-.622-.32-1.333-.32h-12.16c-.711 0-1.173.107-1.387.32-.177.214-.266.658-.266 1.334v16.266c0 .711.089 1.174.266 1.387.214.178.676.267 1.387.267h12.16c.711 0 1.156-.09 1.333-.267.214-.213.32-.676.32-1.387zM25.074 13.147H41.18c2.81 0 4.214 1.404 4.214 4.213V34.8c0 2.809-1.405 4.213-4.214 4.213H25.074c-2.81 0-4.214-1.404-4.214-4.213V17.36c0-2.809 1.405-4.213 4.214-4.213zm37.766 22.72h11.733c.64 0 1.103-.143 1.387-.427.285-.284.427-.764.427-1.44V18.16c0-.676-.142-1.156-.427-1.44-.284-.284-.747-.427-1.387-.427H62.84c-.676 0-1.12.107-1.333.32-.214.214-.32.658-.32 1.334v16.266c0 .711.106 1.174.32 1.387.213.178.657.267 1.333.267zm18.133 2.453h.054v4c0 2.809-1.405 4.213-4.214 4.213H57.507v-3.146h17.28c.675 0 1.12-.107 1.333-.32.213-.214.32-.658.32-1.334v-2.826h-.053v-1.6c-.463 1.137-1.44 1.706-2.934 1.706h-12.64c-2.809 0-4.213-1.404-4.213-4.213V17.36c0-2.809 1.404-4.213 4.213-4.213h12.64c1.494 0 2.471.569 2.934 1.706v-1.706h4.586V38.32zm31.21-4.107V17.947c0-.676-.106-1.12-.32-1.334-.177-.213-.622-.32-1.333-.32H98.37c-.711 0-1.173.107-1.387.32-.177.214-.266.658-.266 1.334v16.266c0 .711.089 1.174.266 1.387.214.178.676.267 1.387.267h12.16c.711 0 1.156-.09 1.333-.267.214-.213.32-.676.32-1.387zM96.397 13.147h16.106c2.809 0 4.214 1.404 4.214 4.213V34.8c0 2.809-1.405 4.213-4.214 4.213H96.397c-2.81 0-4.214-1.404-4.214-4.213V17.36c0-2.809 1.405-4.213 4.214-4.213z"/></symbol><symbol viewBox="0 0 12 12" id="modal-close" xmlns="http://www.w3.org/2000/svg"><path d="M11.414 2.414a1.414 1.414 0 1 0-2-2l-3.5 3.5-3.5-3.5a1.414 1.414 0 1 0-2 2l3.5 3.5-3.5 3.5a1.414 1.414 0 0 0 2 2l3.5-3.5 3.5 3.5a1.414 1.414 0 1 0 2-2l-3.5-3.5 3.5-3.5z"/></symbol><symbol viewBox="0 0 7 4" id="navbar-dropdown" xmlns="http://www.w3.org/2000/svg"><path d="M3.5 4a.488.488 0 0 1-.347-.144L.143.84a.492.492 0 0 1 0-.695.49.49 0 0 1 .694 0L3.5 2.814 6.163.144a.49.49 0 0 1 .693 0 .492.492 0 0 1 0 .695l-3.01 3.017A.488.488 0 0 1 3.5 4z"/></symbol><symbol viewBox="0 0 11 17" id="pagin-next" xmlns="http://www.w3.org/2000/svg"><path fill-rule="evenodd" clip-rule="evenodd" d="M.9.98A1.5 1.5 0 0 0 .98 3.1l5.816 5.4-5.817 5.4a1.5 1.5 0 0 0 2.042 2.2l7-6.5a1.5 1.5 0 0 0 0-2.2l-7-6.5A1.5 1.5 0 0 0 .9.98z"/></symbol><symbol viewBox="0 0 11 17" id="pagin-prev" xmlns="http://www.w3.org/2000/svg"><path fill-rule="evenodd" clip-rule="evenodd" d="M10.1.98a1.5 1.5 0 0 1-.08 2.12L4.205 8.5l5.817 5.4a1.5 1.5 0 0 1-2.042 2.2l-7-6.5a1.5 1.5 0 0 1 0-2.2l7-6.5a1.5 1.5 0 0 1 2.12.08z"/></symbol><symbol viewBox="0 0 59 58" id="soc-fb" xmlns="http://www.w3.org/2000/svg"><path d="M58.989 5a5 5 0 0 0-5-5H5.931a5 5 0 0 0-5 5v48a5 5 0 0 0 5 5h16.612V36.676h-4.536v-7.35h4.536v-4.424c0-3.14.765-5.517 2.294-7.13 1.53-1.613 4.047-2.42 7.551-2.42h6.057v7.35h-3.789c-.694 0-1.25.056-1.668.168-.417.113-.72.315-.907.608a2.44 2.44 0 0 0-.36.893c-.053.303-.08.73-.08 1.281v3.674h6.857l-.8 7.35H31.64V58h22.35a5 5 0 0 0 5-5V5z"/></symbol><symbol viewBox="0 0 59 58" id="soc-inst" xmlns="http://www.w3.org/2000/svg"><path d="M34.47 19.614c0-.676.552-1.228 1.229-1.228h3.088c.677 0 1.23.552 1.23 1.228v2.941c0 .676-.553 1.23-1.23 1.23h-3.088c-.677 0-1.23-.554-1.23-1.23v-2.94zm3.155 7.281h2.405v11.53c0 .597-.488 1.085-1.086 1.085H19.918a1.09 1.09 0 0 1-1.086-1.085v-11.53h2.51a7.964 7.964 0 0 0-.351 2.342c0 4.54 3.802 8.22 8.492 8.22 4.69 0 8.493-3.68 8.493-8.22 0-.813-.123-1.6-.35-2.342zm-13.63 2.046c0-2.934 2.457-5.312 5.488-5.312 3.03 0 5.487 2.378 5.487 5.312s-2.457 5.31-5.487 5.31c-3.03 0-5.487-2.376-5.487-5.31z"/><path fill-rule="evenodd" clip-rule="evenodd" d="M58.486 5a5 5 0 0 0-5-5H5.428a5 5 0 0 0-5 5v48a5 5 0 0 0 5 5h48.058a5 5 0 0 0 5-5V5zM39.611 15.353H19.303c-1.93 0-3.507 1.427-3.507 3.503v20.288c0 2.076 1.578 3.503 3.507 3.503H39.61c1.929 0 3.507-1.427 3.507-3.503V18.856c0-2.076-1.578-3.503-3.507-3.503z"/></symbol><symbol viewBox="0 0 59 58" id="soc-ok" xmlns="http://www.w3.org/2000/svg"><path d="M29.03 16.352a4.206 4.206 0 0 1 4.22 4.216 4.197 4.197 0 0 1-4.198 4.235 4.206 4.206 0 0 1-4.251-4.184 4.211 4.211 0 0 1 4.23-4.267z"/><path fill-rule="evenodd" clip-rule="evenodd" d="M0 5a5 5 0 0 1 5-5h48.059a5 5 0 0 1 5 5v48a5 5 0 0 1-5 5H5a5 5 0 0 1-5-5V5zm27.35 30.973c-2.646-.276-5.031-.927-7.074-2.525l-.148-.116a7.272 7.272 0 0 1-.598-.495c-.894-.86-.984-1.842-.276-2.855.605-.867 1.62-1.099 2.676-.601.205.096.4.217.586.346 3.806 2.615 9.034 2.687 12.855.118.378-.29.783-.527 1.252-.648.911-.234 1.762.101 2.25.898.56.912.553 1.8-.136 2.508-1.056 1.084-2.327 1.868-3.739 2.415-1.335.518-2.797.778-4.244.951l.146.16.026.028c.112.122.191.209.286.304l2.16 2.165a1203 1203 0 0 1 3.737 3.755c.667.674.807 1.51.44 2.295-.402.857-1.302 1.422-2.183 1.361-.559-.038-.995-.316-1.382-.706-.422-.426-.847-.848-1.273-1.271l-.188-.188-.048-.047c-.988-.982-1.975-1.963-2.937-2.97-.423-.442-.626-.359-1 .025a299.64 299.64 0 0 1-4.532 4.55c-.685.675-1.5.797-2.294.411-.844-.409-1.381-1.27-1.34-2.136.029-.586.317-1.033.719-1.434 1.508-1.506 3.012-3.014 4.517-4.523l1.306-1.309c.08-.08.156-.163.247-.262l.188-.204zM20.4 20.556c-.028 4.726 3.841 8.638 8.561 8.654 4.767.017 8.664-3.806 8.689-8.522.023-4.828-3.81-8.734-8.585-8.747-4.766-.013-8.639 3.838-8.666 8.615z"/></symbol><symbol viewBox="0 0 59 58" id="soc-vk" xmlns="http://www.w3.org/2000/svg"><path fill-rule="evenodd" clip-rule="evenodd" d="M58.059 5a5 5 0 0 0-5-5H5a5 5 0 0 0-5 5v48a5 5 0 0 0 5 5h48.059a5 5 0 0 0 5-5V5zM47.47 38.611c.043.069.086.15.136.246.043.103.093.273.136.526.05.246.05.464-.007.663-.05.198-.222.375-.509.54-.28.164-.688.245-1.204.245l-5.237.076c-.33.068-.71.034-1.146-.096-.437-.13-.796-.273-1.068-.43l-.408-.233c-.409-.273-.889-.69-1.433-1.25a30.38 30.38 0 0 1-1.404-1.51 6.566 6.566 0 0 0-1.247-1.134c-.444-.3-.824-.403-1.154-.3a.944.944 0 0 0-.164.068c-.072.026-.187.122-.351.28a2.712 2.712 0 0 0-.437.574c-.137.225-.251.56-.352 1.01a5.83 5.83 0 0 0-.136 1.51c0 .2-.021.377-.071.54a1.077 1.077 0 0 1-.15.363l-.08.095c-.243.247-.601.39-1.081.43h-2.35a9.656 9.656 0 0 1-2.988-.32c-1.017-.267-1.913-.608-2.687-1.032a25.604 25.604 0 0 1-2.106-1.291c-.63-.438-1.11-.806-1.44-1.121l-.51-.472a11.963 11.963 0 0 1-.565-.587c-.236-.26-.724-.854-1.462-1.777a48.382 48.382 0 0 1-2.17-2.944c-.71-1.039-1.548-2.406-2.508-4.113a56.894 56.894 0 0 1-2.658-5.33 1.544 1.544 0 0 1-.122-.526c0-.143.021-.246.065-.314l.078-.117c.208-.245.595-.369 1.168-.369l5.603-.04c.165.027.322.068.473.13.15.054.265.109.33.164l.1.061c.222.143.387.348.494.622.272.655.58 1.325.939 2.022.35.697.63 1.23.838 1.592l.33.567c.393.779.78 1.455 1.146 2.03.372.573.702 1.018.996 1.338.286.322.573.568.845.752.272.185.502.274.695.274.193 0 .372-.034.552-.096a.317.317 0 0 0 .1-.096c.036-.055.122-.198.244-.43.129-.233.215-.54.279-.916.057-.375.122-.902.194-1.578.027-.29.043-.43.047-.57.005-.185-.01-.371-.047-.913a9.076 9.076 0 0 0-.187-1.42c-.093-.425-.193-.726-.286-.896l-.122-.233c-.344-.444-.924-.724-1.741-.84-.18-.027-.143-.184.1-.472a2.61 2.61 0 0 1 .774-.587c.723-.341 2.35-.499 4.886-.471 1.118.013 2.035.096 2.759.253.272.068.501.157.687.266a1.1 1.1 0 0 1 .423.471c.093.198.165.41.215.622.05.219.072.513.072.888 0 .376-.008.738-.022 1.073-.006.145-.012.133-.02.122-.008-.017-.018-.034-.03.295a43.507 43.507 0 0 0-.029 1.612c0 .144-.007.418-.021.82l-.003.136c-.006.339-.01.607-.004.8a7.4 7.4 0 0 0 .071.793c.043.3.122.553.237.759.114.205.265.361.458.478.094.017.188.037.286.06l.065.015c.122.027.301-.04.53-.212a6.33 6.33 0 0 0 .782-.67c.286-.28.637-.71 1.06-1.305.423-.594.888-1.29 1.39-2.097a31.108 31.108 0 0 0 2.192-4.386c.05-.13.122-.247.2-.343a.881.881 0 0 1 .223-.204l.079-.062.1-.048.265-.061c.18-.034.315-.041.408-.007l5.89-.04c.53-.07.967-.05 1.31.047.338.096.553.205.631.321l.122.191c.316.827-.709 2.74-3.066 5.733-.33.417-.774.97-1.333 1.66-1.06 1.298-1.676 2.153-1.841 2.556-.23.533-.136 1.058.286 1.578.23.273.781.806 1.655 1.599h.022l.021.02.022.02.043.042c1.92 1.7 3.224 3.143 3.905 4.311z"/></symbol><symbol viewBox="0 0 44 44" id="view" xmlns="http://www.w3.org/2000/svg"><path fill-rule="evenodd" clip-rule="evenodd" d="M43 22c0 11.598-9.402 21-21 21S1 33.598 1 22 10.402 1 22 1s21 9.402 21 21zm1 0c0 12.15-9.85 22-22 22S0 34.15 0 22 9.85 0 22 0s22 9.85 22 22zm-4.968 0c0 9.407-7.625 17.032-17.032 17.032S4.968 31.407 4.968 22 12.593 4.968 22 4.968 39.032 12.593 39.032 22zm-11.443.798h-4.79v4.79a.798.798 0 1 1-1.597 0v-4.79h-4.79a.798.798 0 1 1 0-1.597h4.79v-4.79a.798.798 0 0 1 1.596 0v4.79h4.79a.799.799 0 0 1 0 1.597z"/></symbol></svg>