<svg version="1" xmlns="http://www.w3.org/2000/svg" width="346.667" height="346.667" viewBox="0 0 260.000000 260.000000"><path d="M122.1 16.1c-21.5 30.6-42.8 61.4-42.7 61.6.1.1 10.6-2.9 23.3-6.7l23.1-6.8 23.3 5.3c12.8 3 23.4 5.3 23.5 5.2.3-.3-44.2-59.7-46.1-61.6-1.1-1.2-1.8-.7-4.4 3zM84.1 97.5c-22.8 8.5-41.6 15.7-41.9 15.9-.2.3.6 7.9 1.9 16.9l2.4 16.5 39.5-13 39.5-12.9 27.7 4.7c15.3 2.6 28.3 5.1 28.9 5.4 1.6 1.1-2.3 8-6.9 12.2-8.5 7.6-14.9 8.2-37.2 3.3l-12.5-2.7L88 156c-20.6 6.6-37.8 12.4-38.1 12.8-.6.6 2.9 29.1 3.7 30 .1.2 16.4-4 36.3-9.3l36-9.7 17.2 2.2c9.4 1.2 18.6 2.8 20.5 3.6 7.6 3.2 14.4 11.6 15.9 19.7.7 3.7.7 3.7-2.6 3.6-1.9 0-14.2-1.3-27.4-2.9l-24-2.8-34 9.1c-18.7 5-34.2 9.2-34.4 9.4-.8.5 3.2 26.3 4 26.3.5 0 15.3-3.3 32.8-7.4l31.9-7.5 38.9 4.4c21.3 2.4 38.9 4.2 39.1 4 1.5-1.4 3.5-13.3 3.9-23.5.4-9.4.1-14.5-1.1-20.3-1.8-8.7-6.2-20.6-9.9-26.3l-2.4-3.8 6.3-8c11.4-14.4 18.1-30.6 18.7-45.6l.2-5.4L173 95.3c-25.6-7.3-46.7-13.2-47-13.2-.3 0-19.1 6.9-41.9 15.4z"/></svg>