<svg width="64" height="64" viewBox="0 0 64 64" xmlns="http://www.w3.org/2000/svg"><path d="M64 46.9334V51.2C64 51.7894 63.5227 52.2667 62.9333 52.2667H60.3573C60.108 53.144 59.7547 53.9894 59.3067 54.7854L61.1333 56.6094C61.5507 57.0267 61.5507 57.7014 61.1333 58.1174L58.1173 61.1347C57.7013 61.5507 57.0253 61.5507 56.6093 61.1347L54.7853 59.312C53.9907 59.7574 53.1453 60.1094 52.2667 60.3587V62.9347C52.2667 63.524 51.7893 64.0014 51.2 64.0014H46.9333C46.344 64.0014 45.8667 63.524 45.8667 62.9347V60.3587C44.988 60.112 44.14 59.7627 43.3427 59.3174L42.5187 60.1414L42.3053 60.5214C42.164 60.7667 41.9307 60.9454 41.6573 61.0187C41.384 61.092 41.0933 61.0534 40.848 60.912L39.3787 60.0587C38.7547 60.5454 38.0667 60.944 37.3333 61.2427V62.936C37.3333 63.5254 36.856 64.0027 36.2667 64.0027H32C31.4107 64.0027 30.9333 63.5254 30.9333 62.936V61.2427C30.2 60.9427 29.512 60.5427 28.888 60.0534L27.4187 60.9067C27.1733 61.048 26.8827 61.0867 26.6093 61.0134C26.336 60.94 26.1027 60.7614 25.9613 60.516L23.828 56.8214C23.5333 56.3107 23.7093 55.6587 24.22 55.364L25.6867 54.5174C25.572 53.7334 25.572 52.9374 25.6867 52.1534L24.22 51.3067C23.9747 51.1654 23.796 50.9334 23.7227 50.6587C23.6813 50.4867 23.684 50.3067 23.7307 50.1347H1.06667C0.477333 50.1347 0 49.6574 0 49.068V22.4014C0.00133333 22.1187 0.113333 21.848 0.312 21.6467L21.6453 0.313343C22.0627 -0.102657 22.7373 -0.102657 23.1533 0.313343L31.9987 9.15868V5.33334C31.9987 4.74401 32.476 4.26668 33.0653 4.26668H39.4653C40.0547 4.26668 40.532 4.74401 40.532 5.33334V17.692L44.4867 21.6467C44.6853 21.8467 44.7987 22.1187 44.7987 22.4014V38.148C45.1493 38.0107 45.5027 37.884 45.8653 37.776V35.2C45.8653 34.6107 46.3427 34.1334 46.932 34.1334H51.1987C51.788 34.1334 52.2653 34.6107 52.2653 35.2V37.776C53.1427 38.0267 53.988 38.3787 54.784 38.8267L56.608 37C57.0253 36.584 57.7 36.584 58.116 37L61.1333 40.016C61.5507 40.4334 61.5507 41.108 61.1333 41.524L59.3107 43.348C59.7573 44.144 60.108 44.9894 60.3573 45.8667H62.9333C63.5227 45.8667 64 46.344 64 46.9334ZM3.64133 21.3334H41.1587L38.7133 18.8867C38.5133 18.6867 38.4013 18.416 38.4013 18.1334V6.40001H34.1347V11.7333C34.1347 12.164 33.8747 12.5533 33.476 12.7187C33.0773 12.884 32.6187 12.792 32.3133 12.488L22.4013 2.57601L3.64133 21.3334ZM2.13333 48H7.46667V38.4C7.46667 37.8107 7.944 37.3334 8.53333 37.3334H17.0667C17.656 37.3334 18.1333 37.8107 18.1333 38.4V47.9947H24.8947L25.9613 46.1467C26.1027 45.9014 26.336 45.7227 26.6093 45.6494C26.8827 45.576 27.1733 45.6147 27.4187 45.756L28.888 46.6094C29.512 46.1227 30.2 45.724 30.9333 45.4254V43.732C30.9333 43.1427 31.4107 42.6654 32 42.6654H36.2667C36.856 42.6654 37.3333 43.1427 37.3333 43.732V45.4254C37.508 45.4974 37.672 45.592 37.8427 45.6747C38.084 44.8654 38.412 44.0854 38.8213 43.3467L36.9987 41.5227C36.5827 41.1067 36.5827 40.4307 36.9987 40.0147L40.016 36.9987C40.432 36.5827 41.108 36.5827 41.524 36.9987L42.6667 38.1414V23.4667H2.13333V48ZM16 48V39.4667H9.6V48H16ZM38.5253 57.98C38.8693 57.6587 39.3827 57.6014 39.7893 57.8374L40.988 58.5307L42.0547 56.6827L40.856 55.9907C40.4467 55.7547 40.2413 55.2774 40.352 54.8174C40.592 53.8454 40.592 52.8294 40.352 51.856C40.2413 51.396 40.4467 50.9187 40.856 50.6827L42.0547 49.9907L40.988 48.1427L39.7893 48.836C39.3813 49.072 38.8653 49.0107 38.524 48.6867C37.7973 48 36.9213 47.492 35.964 47.2027C35.512 47.068 35.2013 46.6534 35.2013 46.1814V44.8014H33.068V46.1814C33.0653 46.6507 32.756 47.0627 32.3053 47.196C31.348 47.4854 30.472 47.9934 29.7453 48.6814C29.4027 49.0054 28.888 49.0667 28.48 48.8307L27.2813 48.1374L26.2147 49.9854L27.4133 50.6774C27.8227 50.9134 28.028 51.3907 27.9173 51.8507C27.6773 52.8227 27.6773 53.8387 27.9173 54.812C28.028 55.272 27.8227 55.7494 27.4133 55.9854L26.2147 56.6774L27.2813 58.5254L28.48 57.832C28.888 57.596 29.404 57.6574 29.7453 57.9814C30.472 58.668 31.348 59.176 32.3053 59.4654C32.7573 59.6 33.068 60.016 33.068 60.4867V61.868H35.204V60.4867C35.204 60.0147 35.5147 59.6 35.9667 59.4654C36.924 59.176 37.8 58.668 38.5267 57.9814L38.5253 57.98ZM61.8667 48H59.5187C59.012 48 58.5747 47.6427 58.4733 47.1467C58.2293 45.9427 57.7533 44.7987 57.072 43.776C56.792 43.3534 56.848 42.7907 57.208 42.432L58.8707 40.7694L57.3627 39.2614L55.7 40.924C55.3413 41.284 54.7787 41.34 54.356 41.06C53.3347 40.3787 52.1907 39.904 50.9867 39.66C50.4907 39.5587 50.1333 39.1214 50.1333 38.6147V36.268H48V38.616C48 39.1227 47.6427 39.56 47.1467 39.6614C45.944 39.9054 44.7987 40.3814 43.7773 41.0614C43.3547 41.3427 42.792 41.2854 42.4333 40.9254L40.7707 39.2627L39.2627 40.7707L40.9253 42.4334C41.284 42.792 41.3413 43.3547 41.0613 43.7774C40.5387 44.564 40.1373 45.424 39.868 46.328L40.848 45.7614C41.0933 45.62 41.384 45.5814 41.6573 45.6547C41.9307 45.728 42.164 45.9067 42.3053 46.152L42.9347 47.244C43.812 44.284 46.6787 42.372 49.7493 42.7027C52.8187 43.0334 55.2147 45.5094 55.4413 48.5894C55.668 51.6694 53.6627 54.4707 50.6747 55.248C47.6867 56.0254 44.5693 54.556 43.268 51.756L42.5813 52.1507C42.696 52.9347 42.696 53.7307 42.5813 54.5147L44.048 55.3614C44.5587 55.656 44.7333 56.308 44.44 56.8187L44.16 57.3014C45.0813 57.86 46.092 58.256 47.1467 58.4747C47.6427 58.576 48 59.0134 48 59.52V61.8667H50.1333V59.5187C50.1333 59.012 50.4907 58.5747 50.9867 58.4734C52.1907 58.2294 53.336 57.7534 54.3573 57.072C54.7813 56.7907 55.3427 56.848 55.7013 57.208L57.364 58.8707L58.872 57.3627L57.2093 55.7C56.8507 55.3414 56.7933 54.7787 57.0733 54.356C57.7547 53.3347 58.2293 52.1907 58.4733 50.9867C58.5747 50.4894 59.012 50.1334 59.5187 50.1334H61.8653L61.8667 48ZM49.0667 53.3334C51.4227 53.3334 53.3333 51.4227 53.3333 49.0667C53.3333 46.7094 51.4227 44.8 49.0667 44.8C46.7107 44.8 44.8 46.7094 44.8 49.0667C44.8 51.4227 46.7107 53.3334 49.0667 53.3334Z M38.4 53.3334C38.4 55.6894 36.4893 57.6 34.1333 57.6C31.7773 57.6 29.8667 55.6894 29.8667 53.3334C29.8667 50.976 31.7773 49.0667 34.1333 49.0667C36.4893 49.0667 38.4 50.976 38.4 53.3334ZM36.2667 53.3334C36.2667 52.1547 35.312 51.2 34.1333 51.2C32.9547 51.2 32 52.1547 32 53.3334C32 54.512 32.9547 55.4667 34.1333 55.4667C35.312 55.4667 36.2667 54.512 36.2667 53.3334Z M21.3333 35.2V28.8C21.3333 28.2107 21.8107 27.7334 22.4 27.7334H33.0667C33.656 27.7334 34.1333 28.2107 34.1333 28.8V35.2C34.1333 35.7893 33.656 36.2667 33.0667 36.2667H22.4C21.8107 36.2667 21.3333 35.7893 21.3333 35.2ZM32 29.8667H28.8V34.1334H32V29.8667ZM23.4667 34.1334H26.6667V29.8667H23.4667V34.1334Z"/></svg>