<svg width="64" height="64" xmlns="http://www.w3.org/2000/svg"><path d="M33.7678 15.9584l.207-.207c.4883-.4884.4883-1.2798.0002-1.7679-.4882-.488-1.2797-.488-1.7679 0l-.2068.207-.2069-.2069c-.4881-.4878-1.2794-.4881-1.7679 0-.4881.4882-.4881 1.2795 0 1.7678l.207.207-.207.207c-.4881.4882-.4881 1.2796 0 1.7679.2441.244.564.3661.8839.3661.32 0 .6399-.1221.8839-.3661l.2068-.2069.2069.2069c.2441.244.564.3661.8839.3661.3199 0 .6397-.1221.8839-.3661.4881-.4882.4881-1.2796 0-1.7679l-.207-.207zM42.2261 22.4091l.207-.207c.4884-.4882.4884-1.2797.0003-1.7679-.4883-.488-1.2795-.488-1.7679 0l-.207.2071-.207-.2071c-.4882-.488-1.2795-.488-1.7679 0-.4881.4882-.4881 1.2797 0 1.7679l.207.207-.207.207c-.4881.4882-.4881 1.2797 0 1.7679.2442.244.564.3661.8839.3661.3199 0 .6398-.122.8839-.3661l.207-.207.207.207c.2441.244.564.3661.8839.3661.32 0 .6397-.122.8838-.3661.4882-.4881.4882-1.2796 0-1.7679l-.207-.207zM25.3095 22.4091l.207-.207c.4884-.4882.4884-1.2797.0003-1.7679-.4883-.488-1.2795-.488-1.7679 0l-.207.2071-.207-.2071c-.4883-.488-1.2795-.488-1.7679 0-.4881.4882-.4881 1.2797 0 1.7679l.207.207-.207.207c-.4881.4882-.4881 1.2797 0 1.7679.2441.244.564.3661.8839.3661.32 0 .6397-.122.8839-.3661l.207-.207.207.207c.2441.244.564.3661.8838.3661.32 0 .6398-.122.8839-.3661.4881-.4881.4881-1.2796 0-1.7679l-.207-.207z M61.2885 27.2103c-.6011-2.6232-2.7355-4.6387-5.3306-5.2018-.4866-5.8154-3.0494-11.2106-7.2846-15.2881C44.1719 2.3868 38.2506 0 32.0003 0c-6.2504 0-12.1717 2.3868-16.673 6.7204-4.2354 4.0775-6.7982 9.4728-7.2847 15.2881-2.595.563-4.7295 2.5785-5.3306 5.2016-.4307 1.8796-.1121 3.791.8973 5.3823.8116 1.2795 2.0302 2.2647 3.4328 2.7996v9.4571c0 3.0905 1.7457 5.781 4.3028 7.1372V62.75c0 .6902.5597 1.25 1.25 1.25h4.3515a1.25 1.25 0 0 0 1.1355-.7274l4.7631-10.3507h18.3106l4.7632 10.3507A1.25 1.25 0 0 0 47.0543 64h4.3515c.6902 0 1.25-.5598 1.25-1.25V51.9863c2.5571-1.3562 4.3027-4.0467 4.3027-7.1372V35.392c1.4026-.5349 2.6213-1.5201 3.4329-2.7996 1.0092-1.5913 1.3279-3.5026.8971-5.3821zM32.0003 2.5c11.1903 0 20.383 8.4412 21.4411 19.4339l-.0006.0001a6.4985 6.4985 0 0 0-.1963.0349l-.0107.0021a5.766 5.766 0 0 0-.0599.012l-.0026.0005c-.021.0042-.042.0087-.063.0132l-.0115.0026a2.9857 2.9857 0 0 0-.05.0111l-.0158.0035c-.0181.0041-.0362.0084-.0542.0126a.1313.1313 0 0 0-.0067.0016c-.0195.0047-.039.0094-.0585.0143a1.0762 1.0762 0 0 0-.0192.0049c-.0135.0033-.0269.0068-.0404.0102a1.1632 1.1632 0 0 1-.0219.0056l-.0547.0145-.016.0044-.043.0119-.0243.0068-.0347.0101a.8826.8826 0 0 0-.0246.0072c-.0173.0051-.0347.0102-.0519.0155-.0089.0026-.0176.0055-.0265.0081l-.0315.0098a2.9208 2.9208 0 0 0-.0591.019l-.0262.0085-.05.0167-.0291.01-.0277.0097c-.0098.0033-.0195.0068-.0293.0102l-.0301.0107a5.0986 5.0986 0 0 0-.0416.0152l-.0333.0122-.0314.0119-.024.0091-.0306.0119a4.9567 4.9567 0 0 0-.0765.0305l-.0276.0112a1.8186 1.8186 0 0 0-.0293.0122l-.0255.0107-.0296.0125-.0344.0148-.0415.0181-.0266.0119c-.0096.0042-.0191.0086-.0287.013l-.028.0127a6.6475 6.6475 0 0 1-.0262.012l-.0491.023a1.0002 1.0002 0 0 1-.0234.0111l-.0315.0153-.0247.0121-.0356.0176-.0177.0088c-.0172.0086-.0343.0174-.0516.0262l-.019.0099-.0367.0193-.0188.0098c-.0177.0095-.0355.019-.0532.0287a6.3704 6.3704 0 0 0-.6592.4118c-.2356-4.4962-2.067-8.7242-5.217-11.9966-3.3713-3.5024-7.8915-5.5396-12.7275-5.7367-5.103-.2065-9.9506 1.6395-13.6597 5.2009-3.4319 3.2951-5.5136 7.8113-5.8156 12.5411a6.361 6.361 0 0 0-.6713-.4206l-.054-.0291-.0165-.0087a7.8384 7.8384 0 0 0-.0405-.0211l-.0155-.008a3.8967 3.8967 0 0 0-.0539-.0274l-.011-.0055c-.0146-.0074-.0293-.0146-.0441-.0219l-.0186-.0091c-.013-.0064-.0261-.0126-.0393-.019-.0057-.0027-.0113-.0055-.0171-.0081a8.4048 8.4048 0 0 0-.0524-.0247l-.0198-.0091-.0353-.0161a2.8101 2.8101 0 0 0-.0595-.0265l-.0194-.0085a4.1122 4.1122 0 0 0-.0523-.0225l-.021-.0089-.0354-.0147-.0229-.0095a1.5748 1.5748 0 0 0-.0407-.0165c-.0077-.0032-.0154-.0061-.023-.0093l-.0453-.0179-.0239-.0092a18.4815 18.4815 0 0 0-.0571-.0216 7.9022 7.9022 0 0 0-.0442-.0164l-.0289-.0105-.036-.0129-.0255-.009-.0324-.0112-.0255-.0088-.0521-.0174-.0225-.0073a2.41 2.41 0 0 0-.0353-.0114l-.0255-.0081c-.0113-.0037-.0226-.0071-.034-.0106l-.0246-.0077a4.3567 4.3567 0 0 0-.1086-.0319l-.0296-.0083c-.0112-.0032-.0223-.0061-.0333-.0093l-.0346-.0093-.0418-.0112a2.7406 2.7406 0 0 1-.0273-.0071c-.0105-.0028-.0212-.0054-.0317-.008l-.0276-.0069a4.8427 4.8427 0 0 0-.078-.0187l-.0327-.0077-.0285-.0064a3.154 3.154 0 0 0-.0328-.0073l-.0261-.0057c-.0161-.0034-.0321-.0069-.0483-.0102l-.0326-.0066-.0307-.0061-.0302-.0059-.0316-.006c-.0089-.0016-.0177-.0034-.0266-.0049a4.1358 4.1358 0 0 0-.0818-.0142l-.0315-.0053-.0155-.0026C11.6174 10.9414 20.8099 2.5 32.0003 2.5zm5.9452 35.3507H16.0083V36.219a.5316.5316 0 0 0 .009-.0068l.0103-.0076a5.8119 5.8119 0 0 1 .043-.0312l.0135-.0098c.0137-.0097.0274-.0195.0412-.0291a4.3297 4.3297 0 0 1 .0555-.0385l.0136-.0094.0432-.0292.0119-.008c.0178-.0118.0354-.0235.0533-.0351l.0016-.0012c.0191-.0125.0384-.0248.0577-.0371l.0013-.0007c.0177-.0113.0355-.0224.0534-.0336l.0161-.0098a3.2417 3.2417 0 0 1 .0397-.0243l.019-.0113a2.8163 2.8163 0 0 1 .0579-.0343l.0365-.0211.0204-.0118.0382-.0216.0188-.0105c.0142-.008.0285-.0157.0427-.0236l.0147-.008a3.8602 3.8602 0 0 1 .0568-.0305l.015-.0079c.0142-.0074.0283-.0149.0425-.0221l.0228-.0117a5.7888 5.7888 0 0 1 .0351-.0178l.0245-.0123.0339-.0167a1.9291 1.9291 0 0 1 .0252-.0123l.0338-.0161.025-.0119.0342-.016.0253-.0116.0335-.0151.0262-.0118.0458-.0201.0277-.012a13.6573 13.6573 0 0 1 .0692-.0291c.011-.0045.0218-.0091.0328-.0135a3.5854 3.5854 0 0 1 .0602-.024 9.1862 9.1862 0 0 1 .0296-.0117c.0101-.004.0202-.0078.0304-.0117.01-.0039.02-.0076.0301-.0114l.0307-.0115.0299-.011.0323-.0116.0286-.0103.0312-.0108a7.7924 7.7924 0 0 1 .0574-.0195l.0305-.0103.0309-.01c.0101-.0032.0202-.0066.0304-.0097l.0308-.0097.0314-.0097c.0104-.0031.0208-.0064.0311-.0094l.0303-.009.0319-.0092.0307-.0088.0313-.0087.0317-.0087.0309-.0083c.0109-.0029.0217-.0058.0326-.0085.013-.0034.0259-.0068.0389-.01l.0507-.0127.0289-.0068.0341-.0082.0302-.0068a50353230522.8917 50353230522.8917 0 0 0 .064-.0142l.0327-.007a2.8433 2.8433 0 0 0 .0311-.0065l.0324-.0065a3.5226 3.5226 0 0 1 .0316-.0062l.0333-.0062.0299-.0057.0388-.0068a5.685 5.685 0 0 1 .0867-.0147c.009-.0015.0181-.0028.0271-.0042l.0375-.0059.0284-.0041.0365-.0053.0288-.0039a4.479 4.479 0 0 1 .0362-.0047l.0288-.0036.0362-.0044.0296-.0034.0365-.004c.0092-.001.0184-.002.0276-.0028l.0429-.0042c.0075-.0007.0149-.0015.0224-.0021.0212-.002.0426-.0037.0638-.0055l.0189-.0014a7.2689 7.2689 0 0 0 .0465-.0035l.026-.0016c.0133-.0009.0265-.0018.0399-.0025l.0274-.0015c.0127-.0008.0256-.0014.0383-.002a2.5846 2.5846 0 0 1 .0278-.0013l.0389-.0015a73.8344 73.8344 0 0 1 .068-.0021l.0248-.0006.0449-.0007a4.8403 4.8403 0 0 1 .0873-.0008h24.7422a4.8403 4.8403 0 0 1 .1321.0015l.0249.0006.0409.0012.0271.0009.0389.0015.0277.0013c.0129.0006.0257.0012.0384.002l.0274.0015c.0132.0007.0266.0016.0399.0025l.026.0016.0465.0035.0188.0014c.0213.0018.0427.0035.0639.0055.0075.0006.0149.0014.0224.0021l.0429.0042c.0092.001.0185.002.0276.0028l.0365.004.0296.0034.0361.0044c.0097.0012.0193.0023.0289.0036l.0361.0047.0289.0039.0365.0053.0284.0041a4.318 4.318 0 0 1 .038.0059l.0265.0041.0619.0102.0248.0044.0389.0069.0299.0056.0332.0063a2.5472 2.5472 0 0 1 .064.0127l.0312.0065.0327.007.0306.0066.0334.0075c.01.0023.0201.0045.0301.0069l.0342.0081.0288.0069.0508.0126.0389.0101.0326.0085c.0102.0027.0206.0054.0309.0083l.0317.0086.0313.0088.0307.0088.0319.0092.0302.009.0313.0094.0314.0097.0308.0097.0304.0097.0309.01.0305.0103c.0191.0063.0382.013.0574.0195l.0312.0108.0286.0103c.0108.0039.0215.0076.0323.0116l.0297.011a3.846 3.846 0 0 1 .0308.0115l.0301.0114c.0101.0038.0203.0077.0304.0117l.0296.0117.0309.0122.0292.0117.0329.0135.0263.0109c.0143.006.0286.0121.0428.0183l.0278.012c.0152.0066.0306.0132.0457.0201l.0263.0118.0335.0151.0252.0116.0343.016.025.0119a5.153 5.153 0 0 1 .0337.0161c.0084.0041.0169.0081.0253.0123l.0339.0167.0245.0123.0357.0181.0218.0111c.0146.0075.0291.0151.0435.0227l.0142.0075c.019.01.038.0203.0569.0306l.0146.008c.0143.0078.0286.0156.0429.0236l.0187.0105c.0128.0071.0255.0143.0383.0216l.0204.0118.0365.0211.0206.0121.0372.0221.019.0114c.0133.008.0265.0161.0398.0243l.0161.0098c.0179.0111.0356.0223.0534.0335l.0012.0008a6.2282 6.2282 0 0 1 .0594.0382c.0178.0117.0355.0233.0533.0352l.0118.008.0433.0292.0136.0094.0415.0287.014.0098c.0138.0096.0274.0194.0411.0291l.0135.0097a4.749 4.749 0 0 1 .043.0313l.0104.0076.009.0068v5.126H16.0083v-.9942h21.9372c.6903 0 1.25-.5597 1.25-1.25 0-.6902-.5597-1.25-1.25-1.25zm10.0469-9.4936c-.0001.0191-.0003.0383-.0003.0575v4.9116a8.5258 8.5258 0 0 0-.6406-.2666l-.0054-.002a8.8334 8.8334 0 0 0-.2132-.0755l-.0089-.003a5.957 5.957 0 0 0-.0451-.0151l-.008-.0026a7.1986 7.1986 0 0 0-.1645-.0527l-.0493-.015c-.004-.0012-.008-.0023-.0118-.0036l-.0403-.012-.014-.0041a2.3216 2.3216 0 0 0-.0399-.0115l-.0141-.0041a8.935 8.935 0 0 0-.1045-.0291l-.0144-.0039-.0385-.0104-.0168-.0045-.0363-.0095-.0176-.0045-.039-.0099-.0129-.0032a9.0835 9.0835 0 0 0-.1059-.0258l-.018-.0042-.0343-.008-.0215-.0049-.0317-.0071-.0213-.0048-.0343-.0075-.0185-.004-.0452-.0095-.012-.0025-.0479-.0097c-.0059-.0013-.0119-.0024-.0178-.0035l-.0353-.007c-.0068-.0013-.0135-.0027-.0203-.0039-.0115-.0023-.023-.0044-.0344-.0065l-.0187-.0035a12.6825 12.6825 0 0 0-.0363-.0066l-.0185-.0034a7.5974 7.5974 0 0 0-.0506-.0089l-.002-.0004a5.4312 5.4312 0 0 0-.0697-.0116c-.0122-.002-.0243-.004-.0365-.0058l-.0222-.0036a2.8973 2.8973 0 0 0-.0311-.0047l-.0229-.0035-.0343-.0051a9.5254 9.5254 0 0 0-.071-.01l-.0009-.0001-.0531-.0072-.0199-.0026-.0334-.0042-.0235-.0029-.0309-.0038-.0223-.0026-.0354-.004-.0185-.0021-.0493-.0053-.0067-.0007-.0519-.0052a1.0307 1.0307 0 0 1-.0166-.0016l-.0371-.0034-.0212-.0018a3.611 3.611 0 0 0-.0341-.0029l-.0215-.0018a4.2317 4.2317 0 0 1-.0325-.0026l-.0224-.0017-.0518-.0038-.0013-.0001a9.8174 9.8174 0 0 0-.0541-.0035l-.0179-.0011-.0366-.0022a1.3486 1.3486 0 0 1-.0206-.0011l-.0342-.0017a87.597 87.597 0 0 1-.0561-.0025l-.0202-.0009a7.9014 7.9014 0 0 0-.1084-.0037l-.0178-.0005a2.2591 2.2591 0 0 0-.0368-.0009l-.0223-.0005a1.761 1.761 0 0 0-.0325-.0005 1.6734 1.6734 0 0 0-.0224-.0004 5.019 5.019 0 0 1-.0388-.0004l-.0144-.0001-.0559-.0003H19.629l-.0559.0003-.0143.0001-.0389.0004a1.6734 1.6734 0 0 0-.0224.0004l-.0325.0005c-.0074.0001-.0149.0002-.0222.0005a2.244 2.244 0 0 0-.0369.0009c-.0059.0001-.0119.0002-.0178.0005a7.833 7.833 0 0 0-.1083.0037l-.0203.0009a87.597 87.597 0 0 0-.034.0015l-.0221.001-.0341.0017-.0207.0011-.0366.0022-.0179.0011-.0541.0035-.0012.0001-.0519.0038-.0224.0017c-.0109.0009-.0216.0016-.0325.0026-.0071.0007-.0142.0012-.0215.0018l-.0341.0029-.0211.0018-.0372.0034-.0166.0016a8.2842 8.2842 0 0 0-.0519.0052l-.0067.0007-.0493.0053-.0185.0021-.0353.004-.0225.0026-.0309.0038-.0235.0029a1.9036 1.9036 0 0 0-.0334.0042l-.02.0026a4.8296 4.8296 0 0 0-.0531.0072l-.0009.0001a9.5254 9.5254 0 0 0-.071.01c-.0115.0016-.0229.0034-.0344.0051-.0076.0011-.0152.0022-.0228.0035l-.0312.0047-.0221.0036c-.0121.0018-.0242.0038-.0365.0058a29.5695 29.5695 0 0 0-.0697.0116l-.002.0004-.0507.0089-.0183.0034-.0363.0066-.0187.0035-.0344.0065-.0204.0039c-.0119.0022-.0236.0046-.0354.007a1.3788 1.3788 0 0 0-.0177.0035l-.0479.0097-.012.0025-.0452.0095a1.2218 1.2218 0 0 1-.0185.004l-.0343.0075c-.0071.0017-.0142.0032-.0214.0048l-.0316.0071-.0215.0049c-.0114.0026-.0229.0052-.0344.008l-.018.0042a7.7595 7.7595 0 0 0-.1058.0258l-.0129.0032-.039.0099a4.4407 4.4407 0 0 0-.0176.0045l-.0363.0095-.0169.0045a5.4914 5.4914 0 0 0-.0385.0104l-.0143.0039a8.935 8.935 0 0 0-.1045.0291l-.0142.0041-.0397.0115-.014.0041-.0403.012-.012.0036-.0492.015-.0023.0008a9.9527 9.9527 0 0 0-.1622.0519l-.008.0026-.0451.0151a8.9963 8.9963 0 0 0-.2222.0785l-.0053.002a8.563 8.563 0 0 0-.6407.2666v-4.9116l-.0002-.0575-.0001-.0059a6.7382 6.7382 0 0 0-.2498-1.7593v-2.3383c0-4.5467 1.8059-8.7847 5.0853-11.9332 3.2137-3.0856 7.4158-4.6874 11.8265-4.5063 8.7321.3557 15.5723 7.484 15.5723 16.2285v2.5493h.0002a6.7255 6.7255 0 0 0-.2498 1.7593l-.0001.0059zM16.1455 61.5h-2.3006v-8.6774a8.1 8.1 0 0 0 .899.0909c.0062.0003.0125.0005.0186.0009.0194.0009.0389.0016.0583.0022a5.668 5.668 0 0 0 .0412.0014l.0276.0008.0517.0012.0165.0004.0672.001.0194.0002c.0234.0001.0467.0004.0702.0004h4.9783L16.1455 61.5zm34.0101 0H47.855l-3.9475-8.5781h4.9783c.0235 0 .0468-.0001.0702-.0004l.0194-.0003a4.97 4.97 0 0 0 .0672-.001l.0165-.0003a8.6993 8.6993 0 0 0 .0517-.0013l.0276-.0007a5.668 5.668 0 0 0 .0412-.0014l.0584-.0023a8.0773 8.0773 0 0 0 .9176-.0916V61.5zm8.1245-30.2469c-.6412 1.0108-1.6757 1.736-2.8382 1.9896a1.25 1.25 0 0 0-.9835 1.2213v10.385c0 2.9994-2.3818 5.4529-5.3533 5.5685l-.006.0003a5.7705 5.7705 0 0 1-.0588.0018l-.0138.0004a3.2537 3.2537 0 0 1-.0709.0012 5.3984 5.3984 0 0 1-.0697.0005H15.1148a4.0604 4.0604 0 0 1-.0698-.0005l-.0167-.0002c-.0182-.0002-.0362-.0006-.0542-.001l-.0137-.0004a5.7902 5.7902 0 0 1-.0589-.0018l-.006-.0003c-2.9715-.1156-5.3532-2.569-5.3532-5.5685V34.464a1.25 1.25 0 0 0-.9835-1.2213c-1.1625-.2536-2.197-.9788-2.8383-1.9896-.649-1.0232-.852-2.2606-.5715-3.4845.4393-1.9163 2.1724-3.3242 4.1646-3.4136a2.7136 2.7136 0 0 1 .0444-.0017l.0305-.0011.0203-.0005.037-.0007.016-.0003a4.7493 4.7493 0 0 1 .0535-.0003h.015c.6725.001 1.3125.164 1.9023.4841.8943.4856 1.552 1.301 1.8674 2.2641.0049.0184.01.0366.0158.0549a4.205 4.205 0 0 1 .1912 1.1419l.0009.0347.0001.0059a1.6835 1.6835 0 0 1 .0006.0399c.0002.0129.0002.0256.0002.0385V42.595c0 .6903.5597 1.25 1.25 1.25h34.4838c.6904 0 1.25-.5597 1.25-1.25V28.4145c0-.0129.0002-.0256.0003-.0385l.0001-.008a3.3933 3.3933 0 0 1 .0005-.0319l.0001-.0059c.0003-.0116.0005-.0232.0009-.0347l.0001-.003a4.2058 4.2058 0 0 1 .1912-1.1389 1.2763 1.2763 0 0 0 .0157-.0549c.3154-.9631.9731-1.7786 1.8674-2.2641.5899-.3202 1.2299-.4831 1.9004-.4841h.017c.0177 0 .0356.0001.0533.0004l.016.0002a2.308 2.308 0 0 1 .0372.0008l.0202.0005c.0103.0002.0204.0006.0305.001.0095.0003.019.0006.0285.0011.0053.0002.0105.0005.0159.0006 1.9922.0895 3.7254 1.4973 4.1646 3.4136.2798 1.2238.0768 2.4613-.5724 3.4844z M44.1711 38.8561a1.27 1.27 0 0 0-.1863-.4499 1.3467 1.3467 0 0 0-.1562-.1901 1.1888 1.1888 0 0 0-.1901-.1549 1.2614 1.2614 0 0 0-.215-.1151 1.3121 1.3121 0 0 0-.2338-.0711 1.237 1.237 0 0 0-.4887 0 1.2515 1.2515 0 0 0-.2337.0711 1.2321 1.2321 0 0 0-.2162.1151 1.188 1.188 0 0 0-.19.1549 1.239 1.239 0 0 0-.155.1901 1.3343 1.3343 0 0 0-.115.2161 1.26 1.26 0 0 0-.0963.4788c0 .0812.0088.1625.025.2437.0163.08.04.1589.0713.2338.0312.075.0698.1475.115.2161.0448.0675.0975.1325.155.1901.0575.0575.1212.1088.19.155.0675.0449.14.0838.2162.115.075.0313.1537.0549.2337.0711.0801.0164.1626.0238.2437.0238a1.248 1.248 0 0 0 .245-.0238 1.3121 1.3121 0 0 0 .2338-.0711 1.268 1.268 0 0 0 .4051-.27c.0575-.0575.11-.1225.1562-.1901a1.263 1.263 0 0 0 .1863-.4499 1.2424 1.2424 0 0 0 .0237-.2437c0-.0825-.0075-.1638-.0237-.245z"/></svg>