<svg width="64" height="64" viewBox="0 0 64 64" xmlns="http://www.w3.org/2000/svg"><path d="M63.0888 16.8058C63.0887 16.8058 63.0887 16.8058 63.0886 16.8058L63.0865 16.8036L58.9555 16.2142C58.3748 16.1315 57.9712 15.5938 58.0539 15.0132C58.0935 14.7341 58.2426 14.4825 58.468 14.3133L61.8068 11.8093C62.2761 11.4574 62.3711 10.7918 62.0192 10.3225L58.1962 5.22514C57.8443 4.75589 57.1787 4.66085 56.7094 5.01275L53.3717 7.51684C52.9044 7.8714 52.2383 7.78007 51.8838 7.31281C51.7116 7.08595 51.6378 6.79936 51.6789 6.51754L52.2694 2.38654C52.3526 1.80591 51.9495 1.2679 51.369 1.18454C51.3686 1.18454 51.3682 1.18441 51.3678 1.18441L45.064 0.283868C44.4835 0.200505 43.9453 0.603516 43.8619 1.18414C43.8619 1.18427 43.8619 1.18427 43.8619 1.18441L43.2715 5.31541C43.1888 5.89603 42.651 6.29971 42.0704 6.21701C41.7914 6.17732 41.5397 6.02824 41.3706 5.80284L38.8675 2.46406C38.5156 1.99481 37.85 1.89976 37.3808 2.25167L34.1896 4.64638C32.7459 4.49292 31.29 4.49292 29.8462 4.64638C20.3914 5.72705 12.977 13.2672 12.0553 22.7389C12.0266 23.0394 12.016 23.3378 12.0011 23.6362H11.6826C11.1787 23.6372 10.7447 23.9921 10.644 24.4858L9.91016 27.9754L6.97067 25.9481C6.54881 25.657 5.97907 25.7089 5.61668 26.0713L2.43082 29.2572C2.06895 29.6194 2.01718 30.1884 2.30763 30.6101L4.32534 33.5443L0.834698 34.2781C0.346465 34.3851 -0.00105953 34.818 2.42714e-06 35.3177V39.5656C-0.000263061 40.0679 0.351642 40.5017 0.843194 40.6052L4.33384 41.339L2.31612 44.2732C2.02568 44.6949 2.07745 45.2639 2.43931 45.6261L5.62517 48.812C5.98757 49.1744 6.5573 49.2263 6.97917 48.9352L9.91335 46.9122L10.6472 50.4028C10.7479 50.8965 11.1818 51.2514 11.6857 51.2524H15.9336C16.4359 51.2526 16.8697 50.9007 16.9732 50.4092L17.707 46.9185L20.6412 48.9362C21.0629 49.2267 21.6319 49.1749 21.9941 48.8131L23.6434 47.1585V50.1851C23.6481 51.6959 24.4575 53.0895 25.7673 53.8425V59.7427C25.7673 62.0887 27.6691 63.9905 30.0151 63.9905H34.2629C36.6089 63.9905 38.5107 62.0887 38.5107 59.7427V53.8425C39.8205 53.0895 40.6298 51.6959 40.6346 50.1851V45.9819C40.6634 44.2133 41.5887 42.5806 43.0909 41.647C43.9722 41.0753 44.808 40.4361 45.5908 39.7355L44.1741 38.1532C43.4739 38.7808 42.7257 39.3528 41.9366 39.864C39.8279 41.1874 38.5371 43.4924 38.5107 45.9819V50.1851C38.5107 51.3582 37.5599 52.309 36.3868 52.309H27.8912C26.7181 52.309 25.7673 51.3582 25.7673 50.1851V45.8937C25.7427 43.4514 24.4722 41.1909 22.3987 39.9001C13.9818 34.6113 11.4459 23.5007 16.7347 15.0838C20.0161 9.8615 25.743 6.68294 31.9107 6.6609C31.8949 6.69874 31.8809 6.73736 31.8692 6.77666C31.8298 7.05542 31.9028 7.33856 32.0721 7.56356L34.5751 10.9013C34.839 11.2428 34.8644 11.712 34.6388 12.0801C34.4217 12.4504 34.0018 12.6524 33.5769 12.5909L29.4459 12.0004C28.8652 11.9172 28.3272 12.3203 28.2439 12.9008C28.2439 12.9012 28.2437 12.9016 28.2437 12.902L27.3421 19.209C27.2589 19.7894 27.6621 20.3276 28.2425 20.411C28.2429 20.411 28.2433 20.4111 28.2437 20.4111L32.3747 21.0015C32.9554 21.0842 33.359 21.622 33.2763 22.2026C33.2366 22.4816 33.0876 22.7333 32.8622 22.9024L29.5245 25.4055C29.0552 25.7574 28.9602 26.4229 29.3121 26.8922L33.1351 31.9896C33.487 32.4588 34.1526 32.5539 34.6218 32.202L37.9606 29.6989C38.4303 29.3477 39.0958 29.4437 39.4471 29.9135C39.6151 30.1382 39.6875 30.4204 39.6481 30.6982L39.0587 34.8292C38.9753 35.4097 39.3783 35.948 39.959 36.0314C39.9591 36.0314 39.9591 36.0314 39.9592 36.0314L46.2672 36.933C46.3169 36.9393 46.3669 36.9425 46.417 36.9425C46.9457 36.9432 47.3942 36.5548 47.4694 36.0314L48.0587 31.9004C48.1414 31.3197 48.6792 30.9161 49.2598 30.9988C49.5388 31.0385 49.7905 31.1875 49.9596 31.4129L52.4637 34.7507C52.8156 35.2199 53.4812 35.315 53.9505 34.963L59.0478 31.14C59.5171 30.7881 59.6121 30.1225 59.2602 29.6533L56.7572 26.3156C56.4945 25.9735 56.4692 25.5051 56.6935 25.1368C56.906 24.7615 57.3297 24.5582 57.7555 24.627L61.8865 25.2164C62.4669 25.2998 63.0052 24.8966 63.0886 24.3162C63.0886 24.316 63.0886 24.316 63.0886 24.3159L63.9891 18.0079C64.0725 17.4273 63.6695 16.8891 63.0888 16.8058ZM27.8912 54.4329H36.3868V56.5568H27.8912V54.4329ZM27.8912 58.6807H36.3868V59.7427C36.3868 60.9157 35.436 61.8666 34.2629 61.8666H30.0151C28.842 61.8666 27.8912 60.9157 27.8912 59.7427V58.6807ZM19.437 40.3673C20.0168 40.8415 20.6226 41.283 21.2518 41.6895C22.2552 42.3236 23.0106 43.2829 23.3917 44.407L21.1138 46.6807L18.9081 45.1599C17.9423 44.4944 16.6197 44.7378 15.954 45.7037C15.7944 45.9353 15.6824 46.1963 15.6245 46.4714L15.0681 49.1231H12.5438L11.9873 46.4757C11.7457 45.3279 10.6194 44.5931 9.47157 44.8347C9.19639 44.8926 8.93542 45.0046 8.70378 45.1642L6.49704 46.6807L4.56216 44.75L6.08181 42.5454C6.74806 41.58 6.5054 40.2573 5.53995 39.591C5.30818 39.4311 5.04694 39.3188 4.77136 39.2608L2.12391 38.7032V36.18L4.77136 35.6225C5.9188 35.3792 6.65182 34.2518 6.4085 33.1042C6.35075 32.832 6.24018 32.5738 6.08288 32.3443L4.56216 30.1333L6.49704 28.2026L8.70484 29.7234C9.67109 30.3883 10.9936 30.144 11.6585 29.1778C11.8178 28.9464 11.9296 28.6857 11.9873 28.4108L12.1732 27.5272C12.3434 28.7509 12.6252 29.9562 13.0153 31.1283C9.52109 31.5449 7.02616 34.7153 7.44271 38.2096C7.85926 41.7038 11.0297 44.1987 14.524 43.7822C16.6274 43.5313 18.4687 42.2515 19.437 40.3673ZM17.7877 38.871C16.9947 41.0753 14.5651 42.2192 12.3609 41.4264C10.1567 40.6334 9.01267 38.2037 9.80556 35.9995C10.4122 34.3133 12.0132 33.1901 13.8053 33.1938C13.8191 33.1938 13.8318 33.1938 13.8456 33.1938C14.8222 35.2996 16.1559 37.2202 17.7877 38.871ZM61.1303 22.9608L58.0507 22.5212C56.3088 22.2724 54.6952 23.4829 54.4464 25.2247C54.3269 26.0611 54.5446 26.9108 55.0517 27.5867L56.9176 30.0749L53.5193 32.6236L51.6524 30.1365C50.5968 28.7287 48.5999 28.4432 47.1923 29.4988C46.5164 30.0056 46.0694 30.7602 45.9497 31.5967L45.5196 34.6806L41.3153 34.0795L41.755 30.9998C42.0044 29.2581 40.7946 27.6439 39.0528 27.3946C38.2159 27.2748 37.3658 27.4925 36.6895 27.9998L34.2013 29.8657L31.6526 26.4674L34.1397 24.6005C35.5475 23.5449 35.833 21.548 34.7774 20.1404C34.2706 19.4645 33.5159 19.0175 32.6795 18.8978L29.5999 18.4582L30.2009 14.2539L33.2806 14.6935C35.0223 14.943 36.6365 13.7331 36.8858 11.9914C37.0057 11.1544 36.788 10.3043 36.2806 9.628L34.4084 7.13772L37.8066 4.58903L39.6736 7.07719C40.7291 8.48494 42.726 8.77048 44.1336 7.71489C44.8096 7.20808 45.2565 6.45342 45.3762 5.617L45.8159 2.53733L50.0202 3.13734L49.5805 6.21701C49.3318 7.95888 50.5421 9.57252 52.284 9.82128C53.1204 9.94075 53.9701 9.72305 54.646 9.21597L57.1342 7.35011L59.6829 10.7484L57.1947 12.6153C55.787 13.6709 55.5015 15.6677 56.557 17.0754C57.0639 17.7513 57.8185 18.1982 58.6549 18.318L61.7346 18.7576L61.1303 22.9608Z M45.664 10.1112C40.9721 10.1112 37.1684 13.9148 37.1684 18.6068C37.1684 23.2988 40.9721 27.1025 45.664 27.1025C50.356 27.1025 54.1597 23.2988 54.1597 18.6068C54.1544 13.917 50.3539 10.1164 45.664 10.1112ZM45.664 24.9786C42.145 24.9786 39.2923 22.1259 39.2923 18.6068C39.2923 15.0878 42.145 12.2351 45.664 12.2351C49.1831 12.2351 52.0358 15.0878 52.0358 18.6068C52.0316 22.1242 49.1814 24.9744 45.664 24.9786Z M33.2009 46.9992H31.077V50.1851H33.2009V46.9992Z M27.494 36.5698C20.9384 34.0089 17.7001 26.6185 20.2612 20.0629C21.2536 17.5227 23.0346 15.3679 25.3425 13.9151L24.2072 12.1183C17.2599 16.495 15.176 25.6749 19.5527 32.6222C21.2477 35.3128 23.7608 37.3891 26.723 38.5461C29.345 39.5507 31.0764 42.0675 31.077 44.8753H33.2009C33.2043 41.1914 30.9341 37.8875 27.494 36.5698Z M59.7501 39.5657H52.3164V41.6896H59.7501V39.5657Z M51.9337 45.1206L50.5742 46.7524L56.9464 52.0613L58.3059 50.4295L51.9337 45.1206Z M48.0692 48.0613H45.9453V55.495H48.0692V48.0613Z M9.57903 16.2338L1.08398 18.3573L1.59877 20.4167L10.0938 18.2931L9.57903 16.2338Z M4.08145 5.78228L2.84766 7.50964L10.2807 12.8189L11.5145 11.0915L4.08145 5.78228Z M14.0049 0.00882016L11.9473 0.534912L14.1192 9.02989L16.1769 8.50379L14.0049 0.00882016Z"/></svg>