<svg width="64" height="64"  xmlns="http://www.w3.org/2000/svg"><path d="M53.3333 0H10.6666C9.4932 0 8.5332.96 8.5332 2.1334v59.7333c0 1.1734.96 2.1334 2.1334 2.1334h42.6666c1.1734 0 2.1334-.96 2.1334-2.1334V2.1334C55.4666.96 54.5066 0 53.3333 0zm0 61.8666H10.6666V2.1334h42.6666v59.7332h.0001z M26.3466 13.5466l1.3866-1.3866v4.9066c0 .64.4266 1.0666 1.0666 1.0666s1.0667-.4266 1.0667-1.0666v-7.04L32 7.8934l2.1333 2.1333v7.04c0 .64.4267 1.0667 1.0667 1.0667.64 0 1.0666-.4267 1.0666-1.0667V12.16l1.3866 1.3866c.2134.2134.4266.32.7466.32.32 0 .5334-.1066.7467-.32.4266-.4266.4266-1.0666 0-1.4933L36.129 9.0358a.9323.9323 0 0 0-.3652-.3652l-3.0175-3.0175c-.4266-.4266-1.0666-.4266-1.4933 0l-3.0175 3.0175a.9308.9308 0 0 0-.365.365l-3.0175 3.0175c-.4267.4267-.4267 1.0667 0 1.4934.4266.4268 1.067.4269 1.4936.0001zM16 27.7334h14.9333c.64 0 1.0667-.4267 1.0667-1.0667 0-.64-.4267-1.0666-1.0667-1.0666H16c-.64 0-1.0667.4266-1.0667 1.0666 0 .6399.4267 1.0667 1.0667 1.0667zM16 32h10.6666c.64 0 1.0666-.4266 1.0666-1.0666s-.4266-1.0666-1.0666-1.0666H16c-.64 0-1.0667.4266-1.0667 1.0666S15.36 32 16 32zM16 44.8h10.6666c.64 0 1.0666-.4266 1.0666-1.0666s-.4266-1.0666-1.0666-1.0666H16c-.64 0-1.0667.4266-1.0667 1.0666S15.36 44.8 16 44.8zM36.5866 26.9866c-.4266.4267-.4266 1.0666 0 1.4934l3.2 3.2c.2134.2134.4266.32.7466.32.4266 0 .64-.2134.8534-.32l5.3334-7.4666c.4266-.5334.2133-1.1734-.2134-1.4934-.5334-.4266-1.1734-.2134-1.4934.2134l-4.5866 6.4-2.3466-2.3467c-.4267-.4267-1.0667-.4267-1.4934-.0001zM16 40.5334h14.9333c.64 0 1.0667-.4266 1.0667-1.0666s-.4267-1.0667-1.0667-1.0667H16c-.64 0-1.0667.4267-1.0667 1.0667 0 .64.4267 1.0666 1.0667 1.0666zM46.5066 35.52c-.5334-.4266-1.1734-.2134-1.4934.2134l-4.5866 6.4-2.3466-2.3466c-.4267-.4267-1.0667-.4267-1.4934 0-.4268.4266-.4266 1.0666 0 1.4933l3.2 3.2c.2134.2134.4266.32.7466.32.4266 0 .64-.2133.8534-.32l5.3334-7.4666c.4266-.5335.2133-1.1735-.2134-1.4935zM16 53.3334h14.9333c.64 0 1.0667-.4266 1.0667-1.0666s-.4267-1.0667-1.0667-1.0667H16c-.64 0-1.0667.4267-1.0667 1.0667 0 .64.4267 1.0666 1.0667 1.0666zM16 57.6h10.6666c.64 0 1.0666-.4266 1.0666-1.0666s-.4266-1.0666-1.0666-1.0666H16c-.64 0-1.0667.4266-1.0667 1.0666S15.36 57.6 16 57.6zM46.5066 48.32c-.5334-.4266-1.1734-.2134-1.4934.2134l-4.5866 6.4-2.3466-2.3466c-.4267-.4267-1.0667-.4267-1.4934 0-.4268.4266-.4266 1.0666 0 1.4933l3.2 3.2c.2134.2134.4266.32.7466.32.4266 0 .64-.2134.8534-.32l5.3334-7.4666c.4266-.5335.2133-1.1735-.2134-1.4935z"/></svg>