<svg width="64" height="64" xmlns="http://www.w3.org/2000/svg"><path d="M14.9334 12.8c.64 0 1.0666-.4266 1.0666-1.0666V6.4h1.0666c.64 0 1.0666-.4266 1.0666-1.0666s-.4266-1.0667-1.0666-1.0667H16v-3.2C16 .4267 15.5734 0 14.9334 0s-1.0667.4266-1.0667 1.0666v10.6666c-.0001.6402.4267 1.0668 1.0667 1.0668zM46.9334 50.1334c.64 0 1.0666-.4267 1.0666-1.0667V32h3.2c.4266 0 .8534-.2134 1.0666-.64.1066-.4266 0-.8534-.32-1.1734l-16.1066-14.4c-2.7734-2.4534-6.9334-2.4534-9.7066 0l-16.1067 14.4c-.32.32-.4266.8534-.32 1.1734.1067.32.5334.64.96.64h3.2v17.0666c0 .64.4267 1.0667 1.0667 1.0667l32 .0001zM13.44 29.8666L27.52 17.28c1.92-1.7066 4.9066-1.7066 6.8266 0l14.08 12.5866h-1.4933c-.64 0-1.0667.4267-1.0667 1.0667V48H16V30.9334c0-.64-.4266-1.0666-1.0666-1.0666H13.44v-.0002zM62.9334 48h-3.2v-1.0666c0-.64-.4266-1.0667-1.0666-1.0667s-1.0667.4267-1.0667 1.0667V48h-5.3333c-.64 0-1.0667.4266-1.0667 1.0666s.4267 1.0667 1.0667 1.0667h10.6666c.64 0 1.0666-.4267 1.0666-1.0667 0-.64-.4266-1.0666-1.0666-1.0666zM11.7334 57.6h-1.0667c-.64 0-1.0666.4266-1.0666 1.0666s.4266 1.0666 1.0666 1.0666h1.0667c.64 0 1.0666-.4266 1.0666-1.0666S12.3734 57.6 11.7334 57.6zM17.0666 57.6H16c-.64 0-1.0666.4266-1.0666 1.0666S15.36 59.7332 16 59.7332h1.0666c.64 0 1.0666-.4266 1.0666-1.0666S17.7066 57.6 17.0666 57.6zM22.4 57.6h-1.0666c-.64 0-1.0666.4266-1.0666 1.0666s.4266 1.0666 1.0666 1.0666H22.4c.64 0 1.0666-.4266 1.0666-1.0666S23.04 57.6 22.4 57.6zM27.7334 57.6h-1.0667c-.64 0-1.0666.4266-1.0666 1.0666s.4266 1.0666 1.0666 1.0666h1.0667c.64 0 1.0666-.4266 1.0666-1.0666S28.3734 57.6 27.7334 57.6zM33.0666 57.6H32c-.64 0-1.0666.4266-1.0666 1.0666S31.36 59.7332 32 59.7332h1.0666c.64 0 1.0667-.4266 1.0667-1.0666S33.7066 57.6 33.0666 57.6zM38.4 57.6h-1.0666c-.64 0-1.0666.4266-1.0666 1.0666s.4266 1.0666 1.0666 1.0666H38.4c.64 0 1.0666-.4266 1.0666-1.0666S39.04 57.6 38.4 57.6zM43.7334 57.6h-1.0666c-.64 0-1.0667.4266-1.0667 1.0666s.4267 1.0666 1.0667 1.0666h1.0666c.64 0 1.0666-.4266 1.0666-1.0666S44.3734 57.6 43.7334 57.6zM49.0666 57.6H48c-.64 0-1.0666.4266-1.0666 1.0666S47.36 59.7332 48 59.7332h1.0666c.64 0 1.0667-.4266 1.0667-1.0666S49.7066 57.6 49.0666 57.6zM54.4 57.6h-1.0666c-.64 0-1.0666.4266-1.0666 1.0666s.4266 1.0666 1.0666 1.0666H54.4c.64 0 1.0666-.4266 1.0666-1.0666S55.04 57.6 54.4 57.6zM62.9334 57.6h-4.2666c-.64 0-1.0667.4266-1.0667 1.0666v4.2667c0 .64.4267 1.0666 1.0667 1.0666.64 0 1.0666-.4266 1.0666-1.0666v-3.2001h3.2c.64 0 1.0666-.4266 1.0666-1.0666S63.5734 57.6 62.9334 57.6zM53.3334 6.4H54.4c.64 0 1.0666-.4266 1.0666-1.0666S55.04 4.2667 54.4 4.2667h-1.0666c-.64 0-1.0666.4267-1.0666 1.0667 0 .64.4266 1.0666 1.0666 1.0666zM48 6.4h1.0666c.64 0 1.0667-.4266 1.0667-1.0666s-.4267-1.0667-1.0667-1.0667H48c-.64 0-1.0666.4267-1.0666 1.0667 0 .64.4266 1.0666 1.0666 1.0666zM42.6666 6.4h1.0666c.64 0 1.0667-.4266 1.0667-1.0666s-.4267-1.0667-1.0667-1.0667h-1.0666c-.64 0-1.0666.4267-1.0666 1.0667 0 .64.4266 1.0666 1.0666 1.0666zM37.3334 6.4H38.4c.64 0 1.0666-.4266 1.0666-1.0666S39.04 4.2667 38.4 4.2667h-1.0666c-.64 0-1.0666.4267-1.0666 1.0667 0 .64.4266 1.0666 1.0666 1.0666zM32 6.4h1.0666c.64 0 1.0667-.4266 1.0667-1.0666s-.4267-1.0667-1.0667-1.0667H32c-.64 0-1.0666.4267-1.0666 1.0667 0 .64.4266 1.0666 1.0666 1.0666zM26.6666 6.4h1.0666c.64 0 1.0667-.4266 1.0667-1.0666s-.4267-1.0667-1.0667-1.0667h-1.0666c-.64 0-1.0666.4267-1.0666 1.0667 0 .64.4266 1.0666 1.0666 1.0666zM21.3334 6.4H22.4c.64 0 1.0666-.4266 1.0666-1.0666S23.04 4.2667 22.4 4.2667h-1.0666c-.64 0-1.0666.4267-1.0666 1.0667 0 .64.4266 1.0666 1.0666 1.0666zM10.6666 6.4c.64 0 1.0666-.4266 1.0666-1.0666s-.4266-1.0667-1.0666-1.0667H9.6c-.64 0-1.0666.4267-1.0666 1.0667C8.5334 5.9734 8.96 6.4 9.6 6.4h1.0666zM58.6666 6.4h4.2667c.64 0 1.0666-.4266 1.0666-1.0666s-.4266-1.0667-1.0666-1.0667h-3.2001v-3.2c0-.64-.4266-1.0666-1.0666-1.0666S57.6.4266 57.6 1.0666v4.2666c0 .6402.4266 1.0668 1.0666 1.0668zM5.3334 0c-.64 0-1.0667.4266-1.0667 1.0666v3.2h-3.2C.4267 4.2666 0 4.6934 0 5.3334 0 5.9734.4266 6.4 1.0666 6.4h4.2666c.64 0 1.0667-.4266 1.0667-1.0666V1.0666C6.4.4266 5.9734 0 5.3334 0zM5.3334 9.6c-.64 0-1.0667.4266-1.0667 1.0666v1.0666c0 .64.4267 1.0667 1.0667 1.0667.64 0 1.0666-.4267 1.0666-1.0667v-1.0666c0-.64-.4266-1.0666-1.0666-1.0666zM5.3334 14.9334c-.64 0-1.0667.4266-1.0667 1.0666v1.0666c0 .64.4267 1.0666 1.0667 1.0666.64 0 1.0666-.4266 1.0666-1.0666V16c0-.64-.4266-1.0666-1.0666-1.0666zM5.3334 20.2666c-.64 0-1.0667.4267-1.0667 1.0667v1.0666c0 .64.4267 1.0666 1.0667 1.0666.64 0 1.0666-.4265 1.0666-1.0665v-1.0666c0-.64-.4266-1.0668-1.0666-1.0668zM5.3334 25.6c-.64 0-1.0667.4266-1.0667 1.0666v1.0666c0 .64.4267 1.0667 1.0667 1.0667.64 0 1.0666-.4267 1.0666-1.0667v-1.0666c0-.64-.4266-1.0666-1.0666-1.0666zM5.3334 30.9334c-.64 0-1.0667.4266-1.0667 1.0666v1.0666c0 .64.4267 1.0667 1.0667 1.0667.64 0 1.0666-.4267 1.0666-1.0667V32c0-.64-.4266-1.0666-1.0666-1.0666zM5.3334 36.2666c-.64 0-1.0667.4266-1.0667 1.0666v1.0667c0 .64.4267 1.0666 1.0667 1.0666.64 0 1.0666-.4265 1.0666-1.0665v-1.0666c0-.64-.4266-1.0668-1.0666-1.0668zM5.3334 41.6c-.64 0-1.0667.4266-1.0667 1.0666v1.0666c0 .64.4267 1.0667 1.0667 1.0667.64 0 1.0666-.4267 1.0666-1.0667v-1.0666c0-.64-.4266-1.0666-1.0666-1.0666zM5.3334 46.9334c-.64 0-1.0667.4266-1.0667 1.0666v1.0666c0 .64.4267 1.0667 1.0667 1.0667.64 0 1.0666-.4267 1.0666-1.0667V48c0-.64-.4266-1.0666-1.0666-1.0666zM5.3334 52.2666c-.64 0-1.0667.4266-1.0667 1.0666v1.0667c0 .64.4267 1.0666 1.0667 1.0666.64 0 1.0666-.4265 1.0666-1.0665v-1.0666c0-.64-.4266-1.0668-1.0666-1.0668zM58.6666 11.7334c.64 0 1.0666-.4267 1.0666-1.0667V9.6c0-.64-.4266-1.0666-1.0666-1.0666S57.6 8.96 57.6 9.6v1.0666c0 .64.4266 1.0668 1.0666 1.0668zM58.6666 17.0666c.64 0 1.0666-.4266 1.0666-1.0666v-1.0666c0-.64-.4266-1.0667-1.0666-1.0667S57.6 14.2934 57.6 14.9334V16c0 .64.4266 1.0666 1.0666 1.0666zM58.6666 22.4c.64 0 1.0666-.4266 1.0666-1.0666v-1.0666c0-.64-.4266-1.0667-1.0666-1.0667S57.6 19.6268 57.6 20.2668v1.0666c0 .64.4266 1.0666 1.0666 1.0666zM58.6666 27.7334c.64 0 1.0666-.4267 1.0666-1.0667V25.6c0-.64-.4266-1.0666-1.0666-1.0666S57.6 24.96 57.6 25.6v1.0666c0 .64.4266 1.0668 1.0666 1.0668zM58.6666 33.0666c.64 0 1.0666-.4266 1.0666-1.0666v-1.0666c0-.64-.4266-1.0666-1.0666-1.0666S57.6 30.2934 57.6 30.9334V32c0 .64.4266 1.0666 1.0666 1.0666zM58.6666 38.4c.64 0 1.0666-.4266 1.0666-1.0666v-1.0666c0-.64-.4266-1.0667-1.0666-1.0667S57.6 35.6268 57.6 36.2668v1.0666c0 .64.4266 1.0666 1.0666 1.0666zM58.6666 43.7334c.64 0 1.0666-.4266 1.0666-1.0666V41.6c0-.64-.4266-1.0666-1.0666-1.0666S57.6 40.96 57.6 41.6v1.0666c0 .64.4266 1.0668 1.0666 1.0668zM58.6666 55.4666c.64 0 1.0666-.4266 1.0666-1.0666v-1.0666c0-.64-.4266-1.0666-1.0666-1.0666S57.6 52.6934 57.6 53.3334V54.4c0 .64.4266 1.0666 1.0666 1.0666zM5.3334 57.6H1.0666C.4266 57.6 0 58.0266 0 58.6666s.4266 1.0666 1.0666 1.0666h3.2v3.2001c0 .64.4266 1.0666 1.0666 1.0666S6.4 63.5733 6.4 62.9333v-4.2667C6.4 58.0266 5.9734 57.6 5.3334 57.6z"/></svg>