<svg width="64" height="64" xmlns="http://www.w3.org/2000/svg"><path d="M61.1078 23.5902L36.5847 1.8392c-2.559-2.4523-6.6107-2.4523-9.1696 0l-8.2099 7.4636V6.424h1.0661c.6398 0 1.0662-.4265 1.0662-1.0662V1.0929c0-.6397-.4264-1.0661-1.0662-1.0661H7.4768c-.6398 0-1.0662.4264-1.0662 1.0662v4.2648c0 .6397.4264 1.0662 1.0662 1.0662H8.543v12.2615l-5.651 4.9047c-.7462.7463-.9595 1.8126-.6397 2.6655.3199.8529 1.2795 1.4928 2.2391 1.4928h4.0517v29.8542H7.4768c-.6398 0-1.0662.4264-1.0662 1.0662v4.2648c0 .6398.4264 1.0662 1.0662 1.0662H56.523c.6397 0 1.0662-.4264 1.0662-1.1729v-4.2648c0-.6398-.4265-1.0662-1.0662-1.0662h-1.0662V27.6419h4.0517c1.0662 0 1.9192-.5331 2.2391-1.4927.3198-.8531.1066-1.9193-.6398-2.559zm-1.3861 1.9192c-.1066.1066-.2133.1066-.2133.1066h-5.1179c-.6397 0-1.0662.4264-1.0662 1.0662v31.9867c0 .6397.4265 1.0662 1.0662 1.0662h1.0662v2.1324H8.543v-2.1323H9.609c.6398 0 1.0662-.4265 1.0662-1.0662V26.6823c0-.6397-.4264-1.0662-1.0662-1.0662H4.4913c-.1066 0-.1066 0-.2133-.1066 0-.1065 0-.2132.1066-.3198l5.9709-5.1179c.2132-.2133.3198-.5331.3198-.853V5.3578c0-.6397-.4264-1.0662-1.0662-1.0662H8.543V2.1591h10.6622v2.1325H18.139c-.6398 0-1.0662.4265-1.0662 1.0662v6.3973c0 .4265.2133.8531.6397 1.1729.4265.1066.853.1066 1.1729-.2133l10.0225-9.1695c1.7059-1.706 4.3715-1.706 6.184 0L59.6151 25.296c.1066 0 .2133.1067.1066.2133z"/><path d="M43.7281 33.0796H26.6686v-5.3311c0-1.5993.6397-2.9854 1.8126-4.0517 1.1729-1.0662 2.6655-1.4928 4.2649-1.2795 2.5589.4265 4.5847 2.7722 4.5847 5.5443 0 1.5994 1.386 2.9854 2.9854 2.9854h.2133c1.8126 0 3.1986-1.386 3.1986-3.1986 0-3.1987-1.386-6.2908-3.7318-8.5299-2.4523-2.239-5.5443-3.3052-8.8497-3.0921-6.0774.4265-10.8755 5.6511-10.8755 12.0484v4.9046c-1.8126 0-3.1986 1.4927-3.1986 3.1987v14.9271c0 1.8126 1.4927 3.1987 3.1986 3.1987H43.728c1.8126 0 3.1987-1.3861 3.1987-3.1987V36.2783c.0001-1.8126-1.4925-3.1987-3.1986-3.1987zm-21.431-5.1178c0-5.2245 3.9449-9.596 8.9562-9.9159 2.7722-.2133 5.3312.7463 7.2504 2.5589 2.0258 1.8127 3.0921 4.3716 3.0921 7.0371 0 .6397-.4265 1.0662-1.0662 1.0662h-.2133c-.4264 0-.853-.4265-.853-.853 0-3.8384-2.7722-7.1437-6.5039-7.5703-2.1325-.2132-4.2649.4265-5.8642 1.8127-1.5994 1.4927-2.559 3.5185-2.559 5.651v5.3311h-2.239l-.0001-5.1178zm22.4973 23.2435c0 .6398-.5331 1.0662-1.0661 1.0662h-23.457c-.6398 0-1.0662-.5331-1.0662-1.0662v-14.927c0-.6397.5331-1.0662 1.0662-1.0662h23.4568c.6398 0 1.0662.5332 1.0662 1.0662l.0001 14.927z M34.7719 38.4106c-.9596-.853-2.2391-1.1729-3.5185-.9596-1.706.2133-3.0921 1.7059-3.412 3.412-.2133 1.2794.1066 2.5589.9596 3.5185v3.6251c0 1.1729.9596 2.1325 2.1325 2.1325h2.1325c1.1729 0 2.1325-.9596 2.1325-2.1325v-3.6251c.6397-.7463 1.0661-1.7059 1.0661-2.7722 0-1.2795-.5331-2.3457-1.4927-3.1987zm-1.4926 4.798c-.2133.1066-.3199.4265-.3199.7463v4.0517h-2.1325v-4.1583c0-.2132-.1066-.5331-.3199-.7463-.5331-.4264-.7463-1.1729-.6397-1.9192.1066-.853.853-1.5993 1.7059-1.7059h.4265c.5331 0 .9596.2133 1.2794.5332.4265.4264.7464.9596.7464 1.5993.0001.6396-.3198 1.1728-.7462 1.5992z"/></svg>