<svg width="64" height="64" xmlns="http://www.w3.org/2000/svg"><path d="M64 22.5625V10.5879c0-2.9768-2.4355-5.3446-5.4123-5.3446-2.9767 0-5.4122 2.4355-5.4122 5.4122v11.8393c0 2.5709 1.759 4.6681 4.1945 5.2093v5.0064H37.277c0-.1353.0676-.2706.0676-.4059v-3.4504c0-.1353 0-.2706-.0676-.4059h12.0422c1.5561 0 2.8415-1.2854 2.8415-2.8414V5.9874c0-1.556-1.2854-2.8414-2.8415-2.8414H15.019c-1.556 0-2.8414 1.2854-2.8414 2.8414v19.7548c0 1.556 1.2854 2.8414 2.8414 2.8414h12.0423c0 .1353-.0676.2706-.0676.4059v3.4504c0 .1353 0 .2706.0676.4059H6.6977v-4.6004c2.3678-.5413 4.1945-2.7062 4.1945-5.2093V10.9938c0-2.9768-2.4355-5.4123-5.4123-5.4123-2.9767 0-5.4122 2.4355-5.4122 5.4123v11.8393c0 2.5708 1.759 4.6681 4.1945 5.2093v4.6681H2.6385C1.15 32.7105 0 33.9282 0 35.349v22.8668c0 1.4883 1.2178 2.6384 2.6385 2.6384h58.6554c1.4883 0 2.6385-1.2177 2.6385-2.6384V35.4166c0-1.4884-1.2178-2.6385-2.6385-2.6385h-1.4884v-5.0063C62.1734 27.2306 64 25.0657 64 22.5625zm-8.389-11.907c0-1.6913 1.3531-3.0444 2.9767-3.0444 1.6237 0 2.9768 1.353 2.9768 2.9768v2.5031H55.611v-2.4355zM15.019 26.1481c-.2029-.0676-.4059-.2706-.4059-.4736V5.9875c0-.203.203-.406.4059-.406h34.3002c.203 0 .406.203.406.406v19.7547c0 .203-.203.4059-.406.4059H15.019zm19.8901 2.7061v3.4504c0 .2029-.203.4059-.4059.4059h-4.6004c-.2707 0-.406-.1353-.406-.4059v-3.4504c0-.2029.203-.4059.406-.4059h4.6004c.2029 0 .4059.203.4059.4059zM2.5031 10.9938c0-1.6237 1.3531-2.9768 2.9768-2.9768s2.9768 1.3531 2.9768 2.9768v2.0296H2.5032v-2.0296zm0 11.907v-7.4419h5.9536v7.3742c0 1.6237-1.3531 2.9767-2.9768 2.9767-1.6237.0677-2.9767-1.2854-2.9767-2.909zm59.0614 35.315c0 .2029-.1353.2706-.2706.2706H2.7061c-.1353 0-.2706-.1353-.2706-.2706V48.0001h59.129v10.2157zm-.2706-23.0698c.1353 0 .2706.1353.2706.2706v10.2157H2.4355V35.4166c0-.1353.1353-.2706.2706-.2706H61.294zm-2.7062-9.6744c-1.6236 0-2.9767-1.3531-2.9767-2.9768v-7.0359h5.9535v6.9683c0 1.6913-1.3531 3.0444-2.9768 3.0444z M5.48 19.5181c.7098 0 1.2853-.5755 1.2853-1.2854 0-.7099-.5755-1.2854-1.2854-1.2854-.7099 0-1.2854.5755-1.2854 1.2854 0 .7099.5755 1.2854 1.2854 1.2854zM5.48 24.1862c.7098 0 1.2853-.5755 1.2853-1.2854 0-.71-.5755-1.2855-1.2854-1.2855-.7099 0-1.2854.5755-1.2854 1.2855 0 .7099.5755 1.2854 1.2854 1.2854zM58.5877 19.5181c.71 0 1.2855-.5755 1.2855-1.2854 0-.7099-.5755-1.2854-1.2855-1.2854-.7099 0-1.2854.5755-1.2854 1.2854 0 .7099.5755 1.2854 1.2854 1.2854zM58.5877 24.1862c.71 0 1.2855-.5755 1.2855-1.2854 0-.71-.5755-1.2855-1.2855-1.2855-.7099 0-1.2854.5755-1.2854 1.2855 0 .7099.5755 1.2854 1.2854 1.2854zM35.8562 39.3405h-7.8477a1.2127 1.2127 0 0 0-1.2178 1.2178c0 .6765.5412 1.2177 1.2178 1.2177h7.8477a1.2127 1.2127 0 0 0 1.2178-1.2177 1.2127 1.2127 0 0 0-1.2178-1.2178zM35.8562 52.2623h-7.8477a1.2127 1.2127 0 0 0-1.2178 1.2177c0 .6766.5412 1.2178 1.2178 1.2178h7.8477A1.2127 1.2127 0 0 0 37.074 53.48a1.2127 1.2127 0 0 0-1.2178-1.2177z"/></svg>