<svg width="64" height="64" viewBox="0 0 64 64" xmlns="http://www.w3.org/2000/svg"><path d="M51.6145 12.388C55.0303 12.388 57.808 9.60973 57.808 6.1944C57.808 2.77858 55.0303 0.000854492 51.6145 0.000854492C48.1986 0.000854492 45.4209 2.77858 45.4209 6.1944C45.4209 9.60973 48.1986 12.388 51.6145 12.388ZM51.6145 2.06537C53.8917 2.06537 55.7435 3.91719 55.7435 6.1944C55.7435 8.47112 53.8917 10.3234 51.6145 10.3234C49.3372 10.3234 47.4854 8.47112 47.4854 6.1944C47.4854 3.91719 49.3372 2.06537 51.6145 2.06537Z M61.9283 18.4603C61.9016 18.2289 61.7972 18.0142 61.6334 17.8514L58.5367 14.7547C58.3436 14.5606 58.08 14.4522 57.8068 14.4522H45.4198C45.1462 14.4522 44.8831 14.5606 44.69 14.7547L41.5933 17.8514C41.429 18.0152 41.3246 18.2299 41.2979 18.4603L39.2334 36.0085C39.1991 36.3018 39.2914 36.5947 39.4874 36.8144C39.6825 37.0357 39.9632 37.1617 40.2586 37.1617H45.2938L42.3292 62.849C42.2959 63.1413 42.3881 63.4342 42.5842 63.6544C42.7803 63.8742 43.061 64.0002 43.3554 64.0002H49.5488C50.0856 64.0002 50.5322 63.5894 50.5781 63.0536L51.6133 50.6243L52.6486 63.0546C52.694 63.5894 53.1411 64.0002 53.6778 64.0002H59.8713C60.1652 64.0002 60.4459 63.8742 60.6425 63.6554C60.8386 63.4362 60.9303 63.1423 60.897 62.85L57.9328 37.1617H62.9681C63.2629 37.1617 63.5442 37.0357 63.7392 36.816C63.9353 36.5957 64.027 36.3018 63.9928 36.0095L61.9283 18.4603ZM57.8068 35.0972V20.6457H55.7423V36.1295C55.7423 36.1683 55.7444 36.2086 55.7484 36.2479L58.7131 61.9357H54.6274L52.6426 38.1083C52.5967 37.5725 52.1501 37.1617 51.6133 37.1617C51.0766 37.1617 50.6295 37.5725 50.5841 38.1083L48.5993 61.9357H44.5136L47.4778 36.2479C47.4823 36.2086 47.4843 36.1683 47.4843 36.1295V20.6457H45.4198V35.0972H41.4199L43.3065 19.057L45.8473 16.5167H57.3794L59.9197 19.057L61.8068 35.0972H57.8068Z M35.828 32.3029L33.7635 30.2384C33.5705 30.0444 33.3068 29.936 33.0337 29.936H22.7112C22.4375 29.936 22.1744 30.0444 21.9813 30.2384L19.9168 32.3029C19.7722 32.4471 19.6744 32.6301 19.6351 32.8302L17.5706 43.1526C17.5096 43.4561 17.5882 43.7711 17.7843 44.0095C17.9804 44.2489 18.2722 44.3875 18.5822 44.3875H22.7112V45.2998L18.6089 62.7316C18.5368 63.0381 18.6089 63.3611 18.805 63.6086C19.001 63.8556 19.2984 64.0002 19.6144 64.0002H24.7757C25.2721 64.0002 25.6985 63.6459 25.7903 63.1575L27.8724 52.0528L29.9546 63.1575C30.0463 63.6459 30.4727 64.0002 30.9692 64.0002H36.1304C36.4459 64.0002 36.7433 63.8556 36.9394 63.6086C37.1354 63.3611 37.208 63.0381 37.1354 62.7316L33.0337 45.2998V44.3875H37.1627C37.4721 44.3875 37.7645 44.2489 37.9605 44.0095C38.1566 43.7711 38.2352 43.4561 38.1742 43.1526L36.1097 32.8302C36.0704 32.6301 35.9721 32.4471 35.828 32.3029ZM33.0337 42.323V35.0973H30.9692V45.4198C30.9692 45.4989 30.9782 45.5785 30.9959 45.6561L34.8265 61.9357H31.826L28.887 46.262C28.7953 45.7736 28.3689 45.4198 27.8724 45.4198C27.376 45.4198 26.9495 45.7736 26.8578 46.262L23.9188 61.9357H20.9178L24.7485 45.6561C24.7661 45.5785 24.7757 45.4989 24.7757 45.4198V35.0973H22.7112V42.323H19.8412L21.5983 33.5413L23.1386 32.0005H32.6062L34.1476 33.5413L35.9031 42.323H33.0337Z M15.0251 45.5932L11.9284 43.5287C11.7595 43.4158 11.5589 43.3553 11.3558 43.3553H5.16232C4.95869 43.3553 4.75859 43.4158 4.58924 43.5287L1.49249 45.5932C1.2425 45.759 1.07869 46.0257 1.04038 46.3241L0.00813301 54.582C-0.029165 54.8759 0.063072 55.1712 0.259139 55.393C0.455205 55.6153 0.736957 55.7423 1.03332 55.7423H3.65074L3.10085 62.8884C3.07917 63.1752 3.17695 63.4579 3.37252 63.6686C3.56858 63.8803 3.84277 64.0003 4.13007 64.0003H12.3881C12.6748 64.0003 12.9495 63.8803 13.1456 63.6696C13.3407 63.4579 13.44 63.1752 13.4173 62.8894L12.8669 55.7423H15.4848C15.7812 55.7423 16.0629 55.6153 16.259 55.393C16.4551 55.1712 16.5458 54.8759 16.5095 54.582L15.4772 46.3241C15.4394 46.0257 15.2741 45.759 15.0251 45.5932ZM12.7091 53.6778L12.385 49.4692L10.3266 49.6269L11.2731 61.9358H9.29131V55.7423H7.22681V61.9358H5.24498L6.19154 49.6279L4.13309 49.4702L3.809 53.6778H2.20267L3.03179 47.0483L5.47481 45.4198H11.0438L13.4873 47.0483L14.315 53.6778H12.7091Z M22.7112 22.7103C22.7112 25.5561 25.0262 27.8716 27.8725 27.8716C30.7183 27.8716 33.0338 25.5561 33.0338 22.7103C33.0338 19.864 30.7183 17.549 27.8725 17.549C25.0262 17.549 22.7112 19.864 22.7112 22.7103ZM30.9693 22.7103C30.9693 24.4174 29.5797 25.8071 27.8725 25.8071C26.1649 25.8071 24.7757 24.4174 24.7757 22.7103C24.7757 21.0026 26.1649 19.6135 27.8725 19.6135C29.5797 19.6135 30.9693 21.0026 30.9693 22.7103Z M4.13057 37.1618C4.13057 39.4385 5.98239 41.2908 8.2596 41.2908C10.5368 41.2908 12.3886 39.4385 12.3886 37.1618C12.3886 34.8846 10.5368 33.0328 8.2596 33.0328C5.98239 33.0328 4.13057 34.8846 4.13057 37.1618ZM10.3241 37.1618C10.3241 38.3004 9.39821 39.2263 8.2596 39.2263C7.12099 39.2263 6.19509 38.3004 6.19509 37.1618C6.19509 36.0232 7.12099 35.0973 8.2596 35.0973C9.39821 35.0973 10.3241 36.0232 10.3241 37.1618Z M25.5053 7.52901C25.1016 7.12528 24.4494 7.12528 24.0456 7.52901L0.303931 31.2707L1.76359 32.7304L24.7755 9.718L27.1424 12.0854C27.4377 12.3803 27.8803 12.468 28.2674 12.3092C28.6524 12.1494 28.9045 11.7724 28.9045 11.3556V1.0331C28.9045 0.463048 28.4418 0.000854492 27.8722 0.000854492H17.5497C17.1324 0.000854492 16.7559 0.252364 16.5956 0.637441C16.4358 1.02353 16.5245 1.46757 16.8199 1.76293L19.1868 4.12985L0.303931 23.0127L1.76359 24.4724L21.3763 4.85968C21.7795 4.45595 21.7795 3.80324 21.3763 3.40002L20.0416 2.06535H26.84V8.86367L25.5053 7.52901Z"/></svg>