<svg width="64" height="64" viewBox="0 0 64 64" xmlns="http://www.w3.org/2000/svg"><path d="M63.9948 21.3332C63.9949 20.9803 63.8243 20.6416 63.5177 20.4411L32.5844 0.174444C32.2303 -0.0578225 31.7699 -0.0578225 31.4156 0.174444L0.482267 20.4411C0.175733 20.6416 0.00506667 20.9803 0.0052 21.3332H0V62.9332C0 63.5223 0.477067 63.9999 1.06667 63.9999H9.6C10.1896 63.9999 10.6667 63.5223 10.6667 62.9332V28.7999H53.3333V62.9332C53.3333 63.5223 53.8104 63.9999 54.4 63.9999H62.9333C63.5229 63.9999 64 63.5223 64 62.9332V21.3332H63.9948ZM32 2.34164L59.3593 20.2667H4.64067L32 2.34164ZM61.8667 61.8666H55.4667V27.7332C55.4667 27.1442 54.9896 26.6666 54.4 26.6666H9.6C9.0104 26.6666 8.53333 27.1442 8.53333 27.7332V61.8666H2.13333V22.3999H61.8667V61.8666Z M59.7333 29.8665H57.6V36.2665H59.7333V29.8665Z M6.4 29.8665H4.26667V36.2665H6.4V29.8665Z M49.0667 50.1332V47.9999H46.8592C46.3316 43.7972 42.7432 40.5332 38.4 40.5332H25.6C21.2568 40.5332 17.6684 43.7972 17.1408 47.9999H14.9333V50.1332H17.0667V51.3964C15.8277 51.8381 14.9333 53.0111 14.9333 54.3999V60.7999C14.9333 62.5644 16.3688 63.9999 18.1333 63.9999H20.2667C22.0312 63.9999 23.4667 62.5644 23.4667 60.7999V59.7332H40.5333V60.7999C40.5333 62.5644 41.9688 63.9999 43.7333 63.9999H45.8667C47.6312 63.9999 49.0667 62.5644 49.0667 60.7999V54.3999C49.0667 53.0111 48.1723 51.8381 46.9333 51.3964V50.1332H49.0667ZM19.2 49.0665C19.2 45.5373 22.0708 42.6665 25.6 42.6665H38.4C41.9292 42.6665 44.8 45.5373 44.8 49.0665V51.1999H19.2V49.0665ZM21.3333 60.7999C21.3333 61.3879 20.8552 61.8665 20.2667 61.8665H18.1333C17.5448 61.8665 17.0667 61.3879 17.0667 60.7999V59.7332H21.3333V60.7999ZM46.9333 60.7999C46.9333 61.3879 46.4552 61.8665 45.8667 61.8665H43.7333C43.1448 61.8665 42.6667 61.3879 42.6667 60.7999V59.7332H46.9333V60.7999ZM46.9333 56.5332V57.5999H17.0667V56.5332H20.2667V54.3999H17.0667C17.0667 53.8119 17.5448 53.3332 18.1333 53.3332H45.8667C46.4552 53.3332 46.9333 53.8119 46.9333 54.3999H43.7333V56.5332H46.9333Z M51.2 30.9332H12.8C12.2104 30.9332 11.7333 31.4108 11.7333 31.9999V36.2665C11.7333 36.8556 12.2104 37.3332 12.8 37.3332H51.2C51.7896 37.3332 52.2667 36.8556 52.2667 36.2665V31.9999C52.2667 31.4108 51.7896 30.9332 51.2 30.9332ZM50.1333 35.1999H13.8667V33.0665H50.1333V35.1999Z"/></svg>