<svg width="60" height="60" xmlns="http://www.w3.org/2000/svg"><path d="M30 0C13.4577 0 0 13.458 0 30s13.4577 30 30 30c16.5422 0 30-13.4577 30-30C60 13.4578 46.5422 0 30 0zm12.6158 50.0357l-1.2929-2.2238a.8403.8403 0 0 0-.7242-.416.8214.8214 0 0 0-.4181.1135.8295.8295 0 0 0-.3881.5088.833.833 0 0 0 .0856.6342l1.2945 2.2267c-2.8921 1.5541-6.143 2.5234-9.5937 2.7521V50.49c0-.8717-.7072-1.579-1.5789-1.579-.8719 0-1.5789.7073-1.5789 1.579v3.1407a23.5107 23.5107 0 0 1-9.4657-2.6845l1.2807-2.2341a.8298.8298 0 0 0 .0816-.6344.8299.8299 0 0 0-.3908-.5061.823.823 0 0 0-.4143-.1111.8403.8403 0 0 0-.7268.4204l-1.2792 2.2316a23.8763 23.8763 0 0 1-7.1759-6.9329l2.7139-1.5668c.7551-.4359 1.0139-1.4016.5778-2.1568-.436-.7549-1.4017-1.0138-2.1567-.5776l-2.7177 1.569c-1.4299-2.8972-2.2841-6.1263-2.4133-9.5384l2.5785-.0079a.8298.8298 0 0 0 .59-.2465.8302.8302 0 0 0 .2429-.5918c-.0015-.4594-.3765-.8332-.8358-.8332l-2.5812.0079c.1103-3.4656.9688-6.7452 2.4187-9.6832l2.7177 1.569c.2486.1435.52.2118.7878.2118.5456 0 1.0765-.2832 1.3689-.7897.4361-.7552.1773-1.7209-.5777-2.1568l-2.7139-1.5668a23.869 23.869 0 0 1 7.0533-6.8564l1.2928 2.2238a.8252.8252 0 0 0 .3056.3045c.2554.1462.5793.1478.8366-.002a.83.83 0 0 0 .3882-.5089.83.83 0 0 0-.0855-.6336l-1.2944-2.2267c2.8925-1.5541 6.1432-2.5238 9.5937-2.752v3.1403c0 .8719.707 1.5789 1.5789 1.5789.8718 0 1.579-.707 1.579-1.579V6.3705c3.3995.2249 6.605 1.17 9.4653 2.6844l-1.2807 2.234c-.2291.3998-.0903.9116.3093 1.1407a.8235.8235 0 0 0 .4144.111.8388.8388 0 0 0 .7263-.4202l1.2795-2.2318a23.871 23.871 0 0 1 7.1762 6.933l-2.7139 1.5668c-.7552.4359-1.0138 1.4016-.5777 2.1568.2927.5065.8232.7896 1.3689.7896a1.571 1.571 0 0 0 .7878-.2117l2.7176-1.5692c1.4303 2.8971 2.2841 6.1264 2.4133 9.5385l-2.5784.0079a.8286.8286 0 0 0-.5898.2464.8303.8303 0 0 0-.2428.5917c.001.2979.162.575.4213.7236a.8328.8328 0 0 0 .4141.1094h.0027l2.5789-.0079c-.1104 3.4657-.9688 6.7454-2.4188 9.6832l-2.7177-1.5691c-.7553-.4361-1.7204-.1772-2.1567.5779-.4361.755-.1774 1.7207.5778 2.1567l2.7139 1.5667a23.8816 23.8816 0 0 1-7.0538 6.8569zm-.9466-28.5978l-10.1277 5.6192a3.3058 3.3058 0 0 0-1.5421-.3809c-.5571 0-1.081.1387-1.542.3809l-10.1276-5.6192c-.9574-.5314-2.1649-.1856-2.6965.772-.5312.9576-.1857 2.1649.7723 2.6963l10.3331 5.7334c.2986 1.5293 1.644 2.6837 3.2605 2.6837s2.9621-1.1545 3.2605-2.6837l10.3328-5.7334c.9578-.5313 1.3033-1.7385.7723-2.6963-.5305-.9578-1.7376-1.3034-2.6956-.772z"/></svg>