<svg width="60" height="60" xmlns="http://www.w3.org/2000/svg"><path d="M42.117 43.007c-.55-.067-1.046.327-1.11.876-.064.549.328 1.046.876 1.11C52.399 46.231 58 49.567 58 51.5c0 2.714-10.652 6.5-28 6.5S2 54.214 2 51.5c0-1.933 5.601-5.269 16.117-6.507.548-.064.94-.562.876-1.11-.065-.549-.561-.945-1.11-.876C7.354 44.247 0 47.739 0 51.5 0 55.724 10.305 60 30 60s30-4.276 30-8.5c0-3.761-7.354-7.253-17.883-8.493z M29.823 54.757L45.164 32.6c5.754-7.671 4.922-20.28-1.781-26.982C39.761 1.995 34.945 0 29.823 0s-9.938 1.995-13.56 5.617c-6.703 6.702-7.535 19.311-1.804 26.952l15.364 22.188zM30 12c3.86 0 7 3.141 7 7s-3.14 7-7 7-7-3.141-7-7 3.14-7 7-7z"/></svg>