<svg width="60" height="60" xmlns="http://www.w3.org/2000/svg"><path d="M58.8332 47.7096l-12.5647-8.3761c-1.1411-.7592-2.6747-.5103-3.5172.5711l-3.6589 4.7037c-.786 1.0207-2.1998 1.314-3.3269.69-2.4827-1.381-5.4186-2.6813-11.8964-9.1675-6.4778-6.4861-7.7864-9.4136-9.1675-11.8964-.624-1.1271-.3307-2.5409.69-3.3268l4.7038-3.6589c1.0812-.8423 1.3303-2.3759.571-3.5172L12.2903 1.1667C11.5149.0035 9.9626-.3457 8.7638.3732L3.5097 3.5253A6.4194 6.4194 0 0 0 .5945 7.298C-.8423 12.5366-1.132 24.0927 17.3881 42.6128c18.5201 18.52 30.0752 18.2294 35.3137 16.7925a6.4187 6.4187 0 0 0 3.7727-2.9151l3.1521-5.2541c.719-1.1989.3698-2.751-.7934-3.5265zM34.1369 9.3101c9.7079.0108 17.5752 7.878 17.586 17.586 0 .5713.4631 1.0345 1.0345 1.0345.5713 0 1.0345-.4631 1.0345-1.0345C53.78 16.046 44.9871 7.2531 34.137 7.2411c-.5713 0-1.0345.4632-1.0345 1.0346-.0001.5712.463 1.0344 1.0344 1.0344z M34.1369 15.5168c6.2815.0074 11.3718 5.0977 11.3791 11.3791 0 .5713.4632 1.0345 1.0346 1.0345.5712 0 1.0345-.4631 1.0345-1.0345-.0086-7.4236-6.0244-13.4396-13.4482-13.4482-.5713 0-1.0345.4632-1.0345 1.0346 0 .5714.4631 1.0345 1.0345 1.0345z M34.1369 21.7236c2.8552.0034 5.169 2.3171 5.1723 5.1724 0 .5713.4632 1.0345 1.0346 1.0345.5713 0 1.0345-.4631 1.0345-1.0345-.0046-3.9973-3.244-7.2367-7.2413-7.2413-.5713 0-1.0345.4631-1.0345 1.0345-.0001.5713.463 1.0344 1.0344 1.0344z"/></svg>