<svg width="60" height="60" xmlns="http://www.w3.org/2000/svg"><path d="M59.0439.9766c-.0035-.0035-.0063-.0073-.0098-.0108-.0035-.0035-.0073-.0063-.0108-.0096-.9337-.926-2.2732-1.2042-3.4992-.7248L2.0846 21.1267C.6718 21.679-.1559 23.0622.0245 24.5682c.1808 1.5061 1.312 2.6542 2.8151 2.8568l26.1184 3.5224a.111.111 0 0 1 .0947.0948l3.5225 26.1182c.2026 1.5031 1.3507 2.6346 2.8568 2.8152.1375.0165.2738.0243.4088.0243 1.3428 0 2.5306-.8008 3.0326-2.0844l20.8956-53.44c.4792-1.2258.2011-2.565-.7251-3.499zM3.2633 24.2875c-.0586-.008-.085-.0114-.0952-.0962-.01-.0848.0148-.0947.0695-.1159l49.9985-19.55-23.3853 23.3855c-.1525-.0441-26.5875-3.6234-26.5875-3.6234zm32.6614 32.475c-.0213.0547-.0299.0799-.1159.0694-.0847-.0101-.0883-.0367-.0961-.0949 0 0-3.5792-26.4351-3.6234-26.5875L55.4747 6.764l-19.55 49.9985z"/></svg>