<svg width="64" height="64" viewBox="0 0 64 64" xmlns="http://www.w3.org/2000/svg"><path fill-rule="evenodd" clip-rule="evenodd" d="M32 62C48.5685 62 62 48.5685 62 32C62 15.4315 48.5685 2 32 2C15.4315 2 2 15.4315 2 32C2 48.5685 15.4315 62 32 62ZM32 63C49.1208 63 63 49.1208 63 32C63 14.8792 49.1208 1 32 1C14.8792 1 1 14.8792 1 32C1 49.1208 14.8792 63 32 63Z"/><path d="M52 32C52 43.0457 43.0457 52 32 52C20.9543 52 12 43.0457 12 32C12 20.9543 20.9543 12 32 12C43.0457 12 52 20.9543 52 32Z"/><path d="M51.279 18.1343L48.1546 15L34.0945 29.1045L37.2189 32.2388L51.279 18.1343ZM60.6524 15L37.2188 38.7313L27.8454 29.3284L24.721 32.4627L37.2188 45L64 18.1343L60.6524 15ZM12 32.4627L24.4979 45L27.6223 41.8657L15.1245 29.3284L12 32.4627Z" fill="#075E81"/></svg>