<svg width="421" height="134" xmlns="http://www.w3.org/2000/svg"><path d="M90.3 83.4c-1.2 1.5-2.5 3-3.9 4.4 2.6 3.9 4.6 8.2 6 12.8 1.2 4.1 1.9 8.4 2 12.8v1c0 5.4-.9 10.7-2.6 15.5l-26.8-3-6.6-.7-10.8-1.2-36.7 8.7-2.2-15.3 38.9-10.3 1.1.1 29.6 3.4c-.1-5.7-3.5-10.6-8.2-13-1.1-.5-2.2-.9-3.4-1.2-1-.2-2-.4-3.1-.4l-16-2-13.2 3.6-27.5 7.6L4.6 90l-.2-1.3 43.3-13.9L60 77.3c1.6.7 3.4 1 5.3 1.1h.3c3.4 0 6.5-1.1 9-3 2.6-1.9 4.5-4.7 5.5-7.8l-29.4-5.2-2.9-.5L9 74.7l-6.1 2L.2 57.6l4.2-1.5L47.9 40l52.9 15c-.1 5.5-1.2 10.8-3 15.6-2 4.6-4.5 8.9-7.5 12.8z M47.7 39.9v21.9L8.8 74.6l-6.1 2-2.7-19L4.1 56l43.6-16.1zM47.7 74.7v20.2l-13.2 3.6L7 106.1 4.6 89.8l-.2-1.2 43.3-13.9zM47.7 108.1V125L11 133.7l-2.3-15.3 39-10.3zM74.7 36l-26.8-6.1-.2-.1-26.6 8.1L47.7 0l.2.3L74.7 36z M47.9.3v29.6l-.2-.1-26.6 8.1L47.7 0l.2.3zM170.1 86.8H145V43.9h24.3c4 0 7.1 1.1 9.3 3.2 2.2 2.2 3.3 4.7 3.3 7.7 0 2.6-.7 4.7-2.1 6.5-1.4 1.8-3.1 2.9-5.2 3.3 2.3.3 4.3 1.5 5.8 3.5s2.3 4.3 2.3 7c0 3.3-1.1 6.1-3.3 8.3-2.1 2.3-5.3 3.4-9.3 3.4zm-3.3-26.4c1.1 0 2-.3 2.7-1 .7-.7 1.1-1.5 1.1-2.6 0-1-.4-1.9-1.1-2.5-.7-.7-1.6-1-2.7-1h-10.7v7.1h10.7zm.4 17.1c1.3 0 2.4-.4 3.1-1.1.8-.7 1.1-1.6 1.1-2.8 0-1.1-.4-2-1.1-2.8-.8-.7-1.8-1.1-3.1-1.1h-11.1v7.7h11.1v.1zM188.8 43.9h11.1v14.4h10.4c4.6 0 8.3 1.4 10.9 4.1 2.7 2.7 4 6.1 4 10.1 0 4.1-1.3 7.5-4 10.2-2.7 2.7-6.3 4.1-10.9 4.1h-21.5V43.9zm20 24.1h-8.9v9.2h8.9c1.5 0 2.7-.4 3.7-1.2 1-.8 1.4-2 1.4-3.4s-.5-2.5-1.4-3.3c-1-.9-2.2-1.3-3.7-1.3zm30.6 18.8h-11.1V43.9h11.1v42.9zM268.1 87.6c-6.6 0-12.2-2.1-16.6-6.2-4.4-4.1-6.6-9.5-6.6-16 0-6.6 2.2-11.9 6.6-16 4.4-4.1 9.9-6.2 16.6-6.2 8.6 0 14.9 3.8 18.7 11.5l-9.5 4.5c-.7-1.8-1.9-3.2-3.6-4.4-1.7-1.2-3.5-1.8-5.6-1.8-3.5 0-6.3 1.2-8.6 3.6-2.3 2.4-3.4 5.3-3.4 8.8 0 3.5 1.1 6.5 3.4 8.8 2.3 2.3 5.1 3.6 8.6 3.6 2 0 3.9-.6 5.6-1.8 1.7-1.2 2.9-2.7 3.6-4.4l9.5 4.5c-1.6 3.3-4 6-7 8.2-3.1 2.2-6.9 3.3-11.7 3.3zM328.8 81.4c-4.3 4.2-9.8 6.2-16.4 6.2-6.6 0-12.1-2.1-16.4-6.2-4.4-4.2-6.5-9.5-6.5-16s2.2-11.8 6.5-16c4.4-4.2 9.8-6.2 16.4-6.2 6.6 0 12.1 2.1 16.4 6.2 4.3 4.2 6.5 9.5 6.5 16s-2.2 11.8-6.5 16zm-16.4-3.6c3.5 0 6.3-1.2 8.4-3.5 2.1-2.4 3.2-5.3 3.2-8.9 0-3.6-1.1-6.5-3.2-8.9-2.1-2.4-5-3.5-8.4-3.5-3.5 0-6.3 1.2-8.5 3.5-2.1 2.4-3.2 5.3-3.2 8.9 0 3.6 1.1 6.5 3.2 8.9 2.1 2.3 5 3.5 8.5 3.5zM361.5 86.8h-11.1V53.5h-12v-9.6h35.1v9.6h-12v33.3zM420.5 86.8H408l-2.1-6.2H389l-2.1 6.2h-12.5l16.1-42.9h13.9l16.1 42.9zM402.8 71l-5.5-16.1-5.5 16.1h11zM152.5 107.9l-1.3 3.8h-1.6l4.1-12.2h1.9l4.2 12.2h-1.7l-1.3-3.8h-4.3zm3.9-1.3l-1.2-3.5c-.3-.8-.5-1.5-.6-2.2-.2.7-.4 1.5-.6 2.2l-1.2 3.5h3.6zM168.5 110.4h.9l-.1 4h-1.2l-.1-2.8h-6l-.1 2.8h-1.2l-.1-4h.7c.4-.6.7-1.2.9-1.8.3-1.1.5-2.3.5-3.5v-2.3h5.8v7.6zm-4.4-4.8c0 1.2-.2 2.3-.5 3.2-.2.6-.4 1.1-.7 1.6h4v-6.3H164v1.5h.1zM171.4 102.9h1.9l1.6 4.4c.2.6.6 1.7.8 2.4.2-.6.7-2 1-3l1.4-3.8h2l.6 8.7h-1.5l-.2-4.2c-.1-.9-.1-2.1-.2-3.1h-.1c-.2.8-.5 1.5-1 2.8l-1.7 4.4h-1.2l-1.6-4.3c-.3-.8-.6-2.1-.9-2.9h-.1c0 1-.1 2.2-.1 3.1l-.2 4.1h-1.5l1-8.6zM184.3 102.9v3.7c0 1.4 0 2.3-.1 3.5h.1c.5-1 .8-1.7 1.4-2.7l2.7-4.5h1.9v8.7h-1.5V108c0-1.4 0-2.2.1-3.6h-.1c-.6 1.1-.9 1.8-1.4 2.7-.8 1.4-1.8 3-2.7 4.6h-1.8V103h1.4v-.1zM194.4 102.9v3.5h4.2v-3.5h1.6v8.7h-1.6v-4h-4.2v4h-1.6v-8.7h1.6zM204.2 102.9v3.7c0 1.4 0 2.3-.1 3.5h.1c.5-1 .8-1.7 1.4-2.7l2.7-4.5h1.9v8.7h-1.5V108c0-1.4 0-2.2.1-3.6h-.1c-.6 1.1-.9 1.8-1.4 2.7-.8 1.4-1.8 3-2.7 4.6h-1.8V103h1.4v-.1zM218.9 111.4c-.4.2-1.3.5-2.5.5-2.6 0-4.4-1.8-4.4-4.5s1.8-4.6 4.7-4.6c.9 0 1.8.2 2.2.5l-.4 1.2c-.4-.2-1-.4-1.8-.4-2 0-3.1 1.5-3.1 3.3 0 2 1.3 3.3 3 3.3.9 0 1.5-.2 1.9-.4l.4 1.1zM227 102.9v1.3h-2.7v7.5h-1.6v-7.5H220v-1.3h7zM228.4 105.8c0-1.1 0-2-.1-2.9h1.4l.1 1.5c.6-1.1 1.7-1.7 3.1-1.7 2.1 0 3.7 1.8 3.7 4.4 0 3.1-1.9 4.7-4 4.7-1.2 0-2.2-.5-2.7-1.4v4.7h-1.6v-9.3h.1zm1.5 2.3c0 .2 0 .5.1.6.3 1.1 1.2 1.9 2.4 1.9 1.7 0 2.7-1.4 2.7-3.4 0-1.8-.9-3.3-2.6-3.3-1.1 0-2.1.8-2.4 2-.1.2-.1.4-.1.7v1.5h-.1zM244.8 109.6c0 .8 0 1.5.1 2.1h-1.4l-.1-1.1h-.1c-.5.7-1.4 1.3-2.7 1.3-1.8 0-2.7-1.2-2.7-2.5 0-2.1 1.9-3.3 5.3-3.2v-.2c0-.7-.2-2-2-2-.8 0-1.7.3-2.3.6l-.4-1c.7-.5 1.8-.8 2.9-.8 2.7 0 3.3 1.8 3.3 3.6v3.2h.1zm-1.6-2.4c-1.7 0-3.7.3-3.7 2 0 1 .7 1.5 1.5 1.5 1.1 0 1.9-.7 2.1-1.5.1-.2.1-.3.1-.5v-1.5zM253.1 102.9v1.3h-2.7v7.5h-1.6v-7.5h-2.7v-1.3h7zM256 102.9v3.7c0 1.4 0 2.3-.1 3.5h.1c.5-1 .8-1.7 1.4-2.7l2.7-4.5h1.9v8.7h-1.5V108c0-1.4 0-2.2.1-3.6h-.1c-.6 1.1-.9 1.8-1.4 2.7-.8 1.4-1.8 3-2.7 4.6h-1.8V103h1.4v-.1zM264.5 103.1c.6-.1 1.8-.2 2.8-.2 1.5 0 3.9.2 3.9 2.2 0 1.1-.8 1.8-1.8 2 1.3.2 2.2.9 2.2 2.2 0 2.3-2.9 2.6-4.6 2.6-1 0-2-.1-2.5-.1v-8.7zm1.5 7.5c.5.1.8.1 1.3.1 1.1 0 2.7-.3 2.7-1.5 0-1.3-1.3-1.5-2.8-1.5H266v2.9zm0-4h1.2c1.2 0 2.4-.3 2.4-1.4 0-.9-.8-1.3-2.3-1.3-.5 0-.8 0-1.2.1v2.6h-.1zM275 102.9v3.5h4.2v-3.5h1.6v8.7h-1.6v-4H275v4h-1.6v-8.7h1.6zM291.3 107.2c0 3.2-2.2 4.6-4.4 4.6-2.4 0-4.2-1.7-4.2-4.5 0-2.9 1.9-4.6 4.3-4.6 2.6 0 4.3 1.9 4.3 4.5zm-7 .1c0 1.9 1.1 3.4 2.7 3.4 1.5 0 2.7-1.4 2.7-3.4 0-1.5-.7-3.4-2.6-3.4-1.9 0-2.8 1.8-2.8 3.4zM305.5 99.5v10.9h1.1l-.1 4.2h-1.2l-.1-2.9h-7.7l-.1 2.9h-1.2l-.1-4.2h.9c.5-.8.9-1.7 1.2-2.7.4-1.4.6-3 .6-5.1v-3.1h6.7zm-5.4 3.6c0 1.9-.2 3.6-.6 5-.3.8-.6 1.7-1 2.3h5.4v-9.6h-3.8v2.3zM309.2 107.6c0 2.1 1.4 3 3 3 1.1 0 1.8-.2 2.4-.5l.3 1.1c-.6.3-1.5.6-2.9.6-2.7 0-4.3-1.8-4.3-4.4 0-2.6 1.6-4.7 4.1-4.7 2.9 0 3.6 2.5 3.6 4.1 0 .3 0 .6-.1.7h-6.1v.1zm4.7-1.1c0-1-.4-2.6-2.2-2.6-1.6 0-2.3 1.5-2.4 2.6h4.6zM324 111.6h-1.6v-7.5h-3v2.2c0 2.5-.2 4.1-1.4 4.8-.4.4-.9.6-1.7.6l-.2-1.3c.3 0 .6-.2.9-.4.8-.6.9-1.8.9-3.8v-3.5h6.1v8.9zM334.5 107.2c0 3.2-2.2 4.6-4.4 4.6-2.4 0-4.2-1.7-4.2-4.5 0-2.9 1.9-4.6 4.3-4.6 2.6 0 4.3 1.9 4.3 4.5zm-6.9.1c0 1.9 1.1 3.4 2.7 3.4 1.5 0 2.7-1.4 2.7-3.4 0-1.5-.7-3.4-2.6-3.4-2 0-2.8 1.8-2.8 3.4zM336.5 103.1c.6-.1 1.8-.2 2.8-.2 1.5 0 3.9.2 3.9 2.2 0 1.1-.8 1.8-1.8 2 1.3.2 2.2.9 2.2 2.2 0 2.3-2.9 2.6-4.6 2.6-1 0-2-.1-2.5-.1v-8.7zm1.5 7.5c.5.1.8.1 1.3.1 1.1 0 2.7-.3 2.7-1.5 0-1.3-1.3-1.5-2.8-1.5H338v2.9zm0-4h1.2c1.2 0 2.4-.3 2.4-1.4 0-.9-.8-1.3-2.3-1.3-.5 0-.8 0-1.2.1v2.6h-.1zM353.5 107.2c0 3.2-2.2 4.6-4.4 4.6-2.4 0-4.2-1.7-4.2-4.5 0-2.9 1.9-4.6 4.3-4.6 2.6 0 4.3 1.9 4.3 4.5zm-7 .1c0 1.9 1.1 3.4 2.7 3.4 1.5 0 2.7-1.4 2.7-3.4 0-1.5-.7-3.4-2.6-3.4-1.9 0-2.8 1.8-2.8 3.4zM356.9 102.9v3.7c0 1.4 0 2.3-.1 3.5h.1c.5-1 .8-1.7 1.4-2.7l2.7-4.5h1.9v8.7h-1.5V108c0-1.4 0-2.2.1-3.6h-.1c-.6 1.1-.9 1.8-1.4 2.7-.8 1.4-1.8 3-2.7 4.6h-1.8V103h1.4v-.1zm1.1-3.5c0 .8.4 1.4 1.2 1.4.8 0 1.1-.6 1.2-1.4h1.2c-.1 1.5-1 2.2-2.4 2.2-1.6 0-2.2-1-2.3-2.2h1.1zM370.9 99.5v10.8h5.6V99.5h1.6v10.9h1.1l-.1 4.2h-1.2l-.1-2.9h-8.3V99.5h1.4zM381.8 107.6c0 2.1 1.4 3 3 3 1.1 0 1.8-.2 2.4-.5l.3 1.1c-.6.3-1.5.6-2.9.6-2.7 0-4.3-1.8-4.3-4.4 0-2.6 1.6-4.7 4.1-4.7 2.9 0 3.6 2.5 3.6 4.1 0 .3 0 .6-.1.7h-6.1v.1zm4.7-1.1c0-1-.4-2.6-2.2-2.6-1.6 0-2.3 1.5-2.4 2.6h4.6zM391.5 102.9v3.5h4.2v-3.5h1.6v8.7h-1.6v-4h-4.2v4H390v-8.7h1.5zM405.7 102.9v1.3H403v7.5h-1.6v-7.5h-2.7v-1.3h7zM407.1 105.8c0-1.1 0-2-.1-2.9h1.4l.1 1.5c.6-1.1 1.7-1.7 3.1-1.7 2.1 0 3.7 1.8 3.7 4.4 0 3.1-1.9 4.7-4 4.7-1.2 0-2.2-.5-2.7-1.4v4.7H407v-9.3h.1zm1.6 2.3c0 .2 0 .5.1.6.3 1.1 1.2 1.9 2.4 1.9 1.7 0 2.7-1.4 2.7-3.4 0-1.8-.9-3.3-2.6-3.3-1.1 0-2.1.8-2.4 2-.1.2-.1.4-.1.7v1.5h-.1z"/></svg>