<svg width="120" height="50" viewBox="0 0 120 50" xmlns="http://www.w3.org/2000/svg"><path d="M8.58667 39.0132H4V3.33325H8.58667V39.0132Z M40.8604 34.2133V17.9466C40.8604 17.271 40.7538 16.8266 40.5404 16.6133C40.3626 16.3999 39.9182 16.2933 39.2071 16.2933H27.0471C26.336 16.2933 25.8738 16.3999 25.6604 16.6133C25.4826 16.8266 25.3938 17.271 25.3938 17.9466V34.2133C25.3938 34.9244 25.4826 35.3866 25.6604 35.5999C25.8738 35.7777 26.336 35.8666 27.0471 35.8666H39.2071C39.9182 35.8666 40.3626 35.7777 40.5404 35.5999C40.7538 35.3866 40.8604 34.9244 40.8604 34.2133ZM25.0738 13.1466H41.1804C43.9893 13.1466 45.3938 14.551 45.3938 17.3599V34.7999C45.3938 37.6088 43.9893 39.0132 41.1804 39.0132H25.0738C22.2649 39.0132 20.8604 37.6088 20.8604 34.7999V17.3599C20.8604 14.551 22.2649 13.1466 25.0738 13.1466Z M62.84 35.8666H74.5733C75.2133 35.8666 75.6756 35.7244 75.96 35.4399C76.2445 35.1555 76.3867 34.6755 76.3867 33.9999V18.1599C76.3867 17.4844 76.2445 17.0044 75.96 16.7199C75.6756 16.4355 75.2133 16.2933 74.5733 16.2933H62.84C62.1645 16.2933 61.72 16.3999 61.5067 16.6133C61.2933 16.8266 61.1867 17.271 61.1867 17.9466V34.2133C61.1867 34.9244 61.2933 35.3866 61.5067 35.5999C61.72 35.7777 62.1645 35.8666 62.84 35.8666ZM80.9733 38.3199H81.0267V42.3199C81.0267 45.1288 79.6222 46.5333 76.8133 46.5333H57.5067V43.3866H74.7867C75.4622 43.3866 75.9067 43.2799 76.12 43.0666C76.3333 42.8533 76.44 42.4088 76.44 41.7333V38.9066H76.3867V37.3066C75.9245 38.4444 74.9467 39.0132 73.4533 39.0132H60.8133C58.0045 39.0132 56.6 37.6088 56.6 34.7999V17.3599C56.6 14.551 58.0045 13.1466 60.8133 13.1466H73.4533C74.9467 13.1466 75.9245 13.7155 76.3867 14.8533V13.1466H80.9733V38.3199Z M112.183 34.2133V17.9466C112.183 17.271 112.077 16.8266 111.863 16.6133C111.686 16.3999 111.241 16.2933 110.53 16.2933H98.37C97.6589 16.2933 97.1967 16.3999 96.9833 16.6133C96.8056 16.8266 96.7167 17.271 96.7167 17.9466V34.2133C96.7167 34.9244 96.8056 35.3866 96.9833 35.5999C97.1967 35.7777 97.6589 35.8666 98.37 35.8666H110.53C111.241 35.8666 111.686 35.7777 111.863 35.5999C112.077 35.3866 112.183 34.9244 112.183 34.2133ZM96.3967 13.1466H112.503C115.312 13.1466 116.717 14.551 116.717 17.3599V34.7999C116.717 37.6088 115.312 39.0132 112.503 39.0132H96.3967C93.5878 39.0132 92.1833 37.6088 92.1833 34.7999V17.3599C92.1833 14.551 93.5878 13.1466 96.3967 13.1466Z"/></svg>