<svg width="59" height="58" viewBox="0 0 59 58" xmlns="http://www.w3.org/2000/svg">
<path d="M34.4694 19.6143C34.4694 18.938 35.0223 18.3857 35.6989 18.3857H38.7869C39.4636 18.3857 40.0171 18.938 40.0171 19.6143V22.5555C40.0171 23.231 39.4636 23.7841 38.7869 23.7841H35.6989C35.0223 23.7841 34.4694 23.231 34.4694 22.5555V19.6143Z M37.6254 26.8951H40.03L40.0305 38.4248C40.0305 39.0221 39.5418 39.5102 38.9443 39.5102H19.9185C19.321 39.5102 18.8323 39.0212 18.8323 38.4248V26.8951H21.3416C21.1138 27.6373 20.9909 28.4228 20.9909 29.2366C20.9909 33.777 24.7931 37.4569 29.483 37.4569C34.1732 37.4569 37.976 33.777 37.976 29.2366C37.976 28.4236 37.8528 27.6373 37.6254 26.8951Z M23.9956 28.9409C23.9956 26.0072 26.4525 23.6291 29.4828 23.6291C32.5135 23.6291 34.9704 26.0072 34.9704 28.9409C34.9704 31.8745 32.5133 34.2518 29.4828 34.2518C26.4525 34.2518 23.9956 31.8745 23.9956 28.9409Z"/>
<path fill-rule="evenodd" clip-rule="evenodd" d="M58.4862 5C58.4862 2.23858 56.2476 0 53.4862 0H5.4277C2.66628 0 0.427704 2.23858 0.427704 5V53C0.427704 55.7614 2.66628 58 5.4277 58H53.4862C56.2476 58 58.4862 55.7614 58.4862 53V5ZM39.6111 15.3529H19.3029C17.3738 15.3529 15.7961 16.7798 15.7961 18.8563V39.1437C15.7961 41.2202 17.3738 42.6471 19.3029 42.6471H39.6111C41.5398 42.6471 43.1178 41.2202 43.1178 39.1437V18.8563C43.1178 16.7798 41.5398 15.3529 39.6111 15.3529Z"/>
</svg>
