<svg width="59" height="58" viewBox="0 0 59 58" xmlns="http://www.w3.org/2000/svg">
<path fill-rule="evenodd" clip-rule="evenodd" d="M58.0585 5C58.0585 2.23858 55.8199 0 53.0585 0H5C2.23858 0 0 2.23858 0 5V53C0 55.7614 2.23858 58 5 58H53.0585C55.8199 58 58.0585 55.7614 58.0585 53V5ZM47.4706 38.6114C47.5136 38.6797 47.5566 38.7613 47.6068 38.8571C47.6497 38.9596 47.6999 39.1303 47.7429 39.3827C47.7931 39.6293 47.7931 39.8475 47.7357 40.0458C47.6856 40.244 47.5136 40.4214 47.227 40.5855C46.9476 40.7496 46.5392 40.8312 46.0233 40.8312L40.786 40.907C40.4564 40.9753 40.0767 40.9412 39.6397 40.8112C39.2026 40.6813 38.8444 40.538 38.5722 40.3806L38.1638 40.1482C37.7554 39.875 37.2753 39.4585 36.7309 38.8979C36.1792 38.3374 35.7134 37.8393 35.3265 37.3878C34.9397 36.9372 34.5241 36.5615 34.0799 36.2542C33.6357 35.9535 33.256 35.851 32.9265 35.9535C32.8834 35.9668 32.8261 35.9876 32.7616 36.0218C32.69 36.0484 32.5753 36.1442 32.4106 36.3016C32.253 36.4591 32.1025 36.6498 31.9736 36.8755C31.8374 37.1013 31.7228 37.4361 31.6224 37.8867C31.515 38.3307 31.472 38.8363 31.4863 39.3969C31.4863 39.5951 31.4648 39.7725 31.4147 39.9366C31.3717 40.1007 31.3215 40.2232 31.2642 40.299L31.1854 40.3939C30.9418 40.6405 30.5836 40.7837 30.1036 40.8246H27.7535C26.7863 40.8795 25.7905 40.7704 24.7659 40.5039C23.7485 40.2373 22.8529 39.8958 22.0792 39.4719C21.3125 39.0487 20.6105 38.6181 19.9728 38.1808C19.3423 37.7435 18.8622 37.3745 18.5327 37.0596L18.0239 36.5882C17.8878 36.4591 17.6944 36.2608 17.458 36.0009C17.2215 35.7411 16.7344 35.1472 15.9964 34.2243C15.2585 33.3022 14.5348 32.3185 13.8255 31.2798C13.1162 30.2411 12.278 28.8742 11.3179 27.1667C10.3579 25.4583 9.46227 23.6958 8.65985 21.8375C8.58095 21.6317 8.53801 21.4543 8.53801 21.311C8.53801 21.1678 8.55948 21.0653 8.60252 20.997L8.68132 20.8804C8.88904 20.6347 9.27602 20.5114 9.84914 20.5114L15.4519 20.4706C15.6167 20.4981 15.7743 20.5389 15.9248 20.6005C16.0752 20.6547 16.1898 20.7096 16.2543 20.7646L16.3546 20.8263C16.5767 20.9695 16.7416 21.1744 16.849 21.4476C17.1213 22.1032 17.4293 22.7729 17.7876 23.47C18.1386 24.1672 18.418 24.7003 18.6258 25.0618L18.9554 25.629C19.3495 26.4079 19.7363 27.0842 20.1017 27.6581C20.4743 28.232 20.8039 28.6768 21.0976 28.9975C21.3842 29.319 21.6708 29.5647 21.9431 29.7488C22.2153 29.9337 22.4446 30.0229 22.638 30.0229C22.8315 30.0229 23.0105 29.9887 23.1897 29.9271C23.2183 29.9129 23.247 29.8863 23.2899 29.8313C23.3258 29.7763 23.4118 29.633 23.5336 29.4006C23.6625 29.1683 23.7485 28.8609 23.813 28.4852C23.8704 28.1096 23.9348 27.5832 24.0065 26.9068C24.0341 26.6161 24.0499 26.477 24.0538 26.3371C24.059 26.1521 24.0433 25.9656 24.0065 25.4241C23.9778 24.9052 23.9133 24.4338 23.8201 24.0031C23.7271 23.5792 23.6267 23.2785 23.5336 23.1077L23.4118 22.8753C23.0678 22.4314 22.4875 22.1515 21.6708 22.0349C21.4917 22.0082 21.5275 21.8508 21.7711 21.5634C22.0004 21.311 22.2582 21.1195 22.5448 20.9762C23.2685 20.6347 24.8949 20.4773 27.4312 20.5047C28.5489 20.5181 29.4659 20.6005 30.1896 20.758C30.4618 20.8263 30.6911 20.9145 30.8773 21.0237C31.0636 21.1403 31.2069 21.2977 31.3001 21.4951C31.3932 21.6934 31.4648 21.9058 31.515 22.1173C31.5651 22.3356 31.5867 22.6296 31.5867 23.0053C31.5867 23.3809 31.5795 23.7433 31.5651 24.0781C31.559 24.223 31.5527 24.2114 31.5459 24.1997C31.5371 24.183 31.5272 24.1656 31.515 24.4946C31.4935 25.076 31.4863 25.6157 31.4863 26.1072C31.4863 26.2513 31.4791 26.5245 31.4648 26.9276L31.4624 27.0626C31.4562 27.4016 31.4513 27.6698 31.4576 27.863C31.4648 28.0888 31.4863 28.3486 31.5294 28.656C31.5723 28.9567 31.6511 29.2091 31.7657 29.4148C31.8804 29.6197 32.0309 29.7763 32.2243 29.8929C32.3182 29.9096 32.412 29.9304 32.5098 29.9529L32.5753 29.9679C32.6972 29.9954 32.8762 29.9271 33.1055 29.7563C33.342 29.5922 33.5999 29.3665 33.8865 29.0866C34.1731 28.8059 34.5241 28.3761 34.9468 27.7814C35.3696 27.1867 35.8353 26.4903 36.3368 25.684C37.1608 24.3313 37.8844 22.8687 38.5291 21.2977C38.5794 21.1678 38.651 21.0512 38.7298 20.9554C38.8085 20.8604 38.8803 20.7921 38.9519 20.7505L39.0307 20.6888L39.131 20.6413L39.3961 20.5797C39.5752 20.5456 39.7113 20.5389 39.8045 20.573L45.6938 20.5322C46.224 20.4639 46.661 20.4839 47.0049 20.5797C47.3417 20.6755 47.5566 20.7846 47.6354 20.9012L47.7572 21.092C48.0725 21.9191 47.048 23.8324 44.6907 26.8252C44.3612 27.2416 43.917 27.7947 43.3581 28.4852C42.2978 29.783 41.6816 30.6376 41.5168 31.0407C41.2875 31.5738 41.3807 32.0994 41.8034 32.6192C42.0327 32.8924 42.5844 33.4255 43.4584 34.2176H43.48L43.5014 34.2384L43.5229 34.2584L43.5659 34.3001C45.4861 36.0009 46.79 37.4428 47.4706 38.6114Z"/>
</svg>
