<svg width="59" height="58" viewBox="0 0 59 58" xmlns="http://www.w3.org/2000/svg">
<path d="M58.989 5C58.989 2.23858 56.7504 0 53.989 0H5.93054C3.16912 0 0.930542 2.23858 0.930542 5V53C0.930542 55.7614 3.16912 58 5.93054 58H22.5426V36.6765H18.0066V29.3265H22.5429V24.9019C22.5429 21.7617 23.3076 19.3853 24.8372 17.7718C26.367 16.1592 28.8839 15.3529 32.3883 15.3529H38.4448V22.7021H34.6564C33.9624 22.7021 33.4066 22.7579 32.9883 22.8703C32.5706 22.9828 32.268 23.1852 32.0813 23.4784C31.8942 23.7716 31.7736 24.0689 31.7206 24.3713C31.6675 24.6737 31.6413 25.101 31.6413 25.6524V29.3265H38.4978L37.6972 36.6765H31.6412V58H53.989C56.7504 58 58.989 55.7614 58.989 53V5Z"/>
</svg>