<svg width="59" height="58" viewBox="0 0 59 58" xmlns="http://www.w3.org/2000/svg">
<path d="M29.0304 16.3516C31.3728 16.3533 33.242 18.2216 33.2502 20.568C33.258 22.9145 31.3939 24.7944 29.0522 24.8028C26.7033 24.8111 24.8181 22.9561 24.8006 20.6189C24.7823 18.2508 26.6683 16.3483 29.0304 16.3516Z"/>
<path fill-rule="evenodd" clip-rule="evenodd" d="M0 5C0 2.23858 2.23858 0 5 0H53.0585C55.8199 0 58.0585 2.23858 58.0585 5V53C58.0585 55.7614 55.8199 58 53.0585 58H5C2.23858 58 0 55.7614 0 53V5ZM27.3495 35.9726C24.7039 35.6969 22.3187 35.0456 20.2765 33.448L20.1277 33.3322C19.9223 33.1739 19.7164 33.0148 19.5303 32.8366C18.6364 31.9778 18.5463 30.9949 19.2536 29.982C19.8587 29.1149 20.8745 28.8834 21.9302 29.3807C22.1346 29.4773 22.3294 29.5981 22.516 29.7272C26.3219 32.3418 31.5503 32.4143 35.3706 29.8446C35.7491 29.5547 36.1537 29.3182 36.6226 29.1974C37.5343 28.9633 38.3846 29.2982 38.8739 30.0953C39.4328 31.0066 39.4257 31.8953 38.7369 32.6025C37.6805 33.687 36.4099 34.4708 34.9982 35.0181C33.6633 35.5362 32.2012 35.796 30.754 35.9693L30.9001 36.1284L30.9259 36.1567C31.0384 36.2792 31.117 36.3658 31.2119 36.4607L33.3712 38.6256C34.6192 39.875 35.867 41.1253 37.109 42.3805C37.7763 43.0552 37.9157 43.8915 37.5483 44.6761C37.1465 45.5332 36.2474 46.098 35.3656 46.0372C34.807 45.9989 34.3713 45.7206 33.9842 45.3308C33.5615 44.9052 33.1366 44.4829 32.7114 44.0597L32.5228 43.8723L32.4754 43.8248C31.4875 42.8428 30.4998 41.8616 29.5378 40.8545C29.115 40.4131 28.9117 40.4964 28.5385 40.8804C27.0467 42.4155 25.5307 43.9273 24.0056 45.4308C23.3208 46.1055 22.506 46.2271 21.7118 45.8414C20.8677 45.4324 20.3305 44.5712 20.3719 43.7049C20.4005 43.1193 20.6886 42.672 21.0906 42.2706C22.5987 40.7654 24.1035 39.257 25.6081 37.7485L26.9145 36.4391C26.994 36.3583 27.07 36.2758 27.1608 36.1767L27.3495 35.9726ZM20.3991 20.5564C20.3716 25.2825 24.2415 29.1941 28.9611 29.2099C33.7284 29.2266 37.6251 25.4042 37.6495 20.688C37.6733 15.8602 33.8403 11.9537 29.0647 11.9412C24.2987 11.9278 20.4263 15.7786 20.3991 20.5564Z"/>
</svg>